<?xml version="1.0" encoding="UTF-8" standalone="no"?>
<!-- Generator: Adobe Illustrator 18.1.1, SVG Export Plug-In . SVG Version: 6.00 Build 0)  -->

<svg
   xmlns:dc="http://purl.org/dc/elements/1.1/"
   xmlns:cc="http://creativecommons.org/ns#"
   xmlns:rdf="http://www.w3.org/1999/02/22-rdf-syntax-ns#"
   xmlns:svg="http://www.w3.org/2000/svg"
   xmlns="http://www.w3.org/2000/svg"
   xmlns:sodipodi="http://sodipodi.sourceforge.net/DTD/sodipodi-0.dtd"
   xmlns:inkscape="http://www.inkscape.org/namespaces/inkscape"
   version="1.1"
   id="Layer_1"
   x="0px"
   y="0px"
   viewBox="0 0 141.69999 141.7"
   enable-background="new 0 0 255.1 141.7"
   xml:space="preserve"
   sodipodi:docname="facebook.svg"
   width="141.7"
   height="141.7"
   inkscape:version="0.92.2 (5c3e80d, 2017-08-06)"><metadata
     id="metadata9"><rdf:RDF><cc:Work
         rdf:about=""><dc:format>image/svg+xml</dc:format><dc:type
           rdf:resource="http://purl.org/dc/dcmitype/StillImage" /><dc:title></dc:title></cc:Work></rdf:RDF></metadata><defs
     id="defs7" /><sodipodi:namedview
     pagecolor="#ffffff"
     bordercolor="#666666"
     borderopacity="1"
     objecttolerance="10"
     gridtolerance="10"
     guidetolerance="10"
     inkscape:pageopacity="0"
     inkscape:pageshadow="2"
     inkscape:window-width="640"
     inkscape:window-height="480"
     id="namedview5"
     showgrid="false"
     fit-margin-top="0"
     fit-margin-left="0"
     fit-margin-right="0"
     fit-margin-bottom="0"
     inkscape:zoom="1.3014504"
     inkscape:cx="70.850003"
     inkscape:cy="70.850002"
     inkscape:window-x="532"
     inkscape:window-y="117"
     inkscape:window-maximized="0"
     inkscape:current-layer="Layer_1" /><path
     d="M 122.6,0 H 19.1 C 8.5,0 0,8.6 0,19.1 v 103.5 c 0,10.5 8.6,19.1 19.1,19.1 H 70.2 L 70.3,91.1 H 57.1 C 55.4,91.1 54,89.7 54,88 L 53.9,71.7 c 0,-1.7 1.4,-3.1 3.1,-3.1 H 70.1 V 52.8 C 70.1,34.5 81.3,24.5 97.6,24.5 H 111 c 1.7,0 3.1,1.4 3.1,3.1 v 13.8 c 0,1.7 -1.4,3.1 -3.1,3.1 h -8.2 c -8.9,0 -10.6,4.2 -10.6,10.4 v 13.7 h 19.5 c 1.9,0 3.3,1.6 3.1,3.5 l -1.9,16.3 c -0.2,1.6 -1.5,2.7 -3.1,2.7 H 92.3 l -0.1,50.6 h 30.4 c 10.5,0 19.1,-8.6 19.1,-19.1 V 19.1 C 141.7,8.6 133.2,0 122.6,0 Z"
     id="path2"
     inkscape:connector-curvature="0"
     style="fill:#1ba8e4" /></svg>