<?xml version="1.0" encoding="UTF-8" standalone="no"?>
<!-- Generator: Adobe Illustrator 18.1.1, SVG Export Plug-In . SVG Version: 6.00 Build 0)  -->

<svg
   xmlns:dc="http://purl.org/dc/elements/1.1/"
   xmlns:cc="http://creativecommons.org/ns#"
   xmlns:rdf="http://www.w3.org/1999/02/22-rdf-syntax-ns#"
   xmlns:svg="http://www.w3.org/2000/svg"
   xmlns="http://www.w3.org/2000/svg"
   xmlns:sodipodi="http://sodipodi.sourceforge.net/DTD/sodipodi-0.dtd"
   xmlns:inkscape="http://www.inkscape.org/namespaces/inkscape"
   version="1.1"
   id="Capa_1"
   x="0px"
   y="0px"
   viewBox="0 0 141.8 141.80001"
   enable-background="new 0 0 255.1 141.7"
   xml:space="preserve"
   sodipodi:docname="twitter.svg"
   width="141.8"
   height="141.8"
   inkscape:version="0.92.2 (5c3e80d, 2017-08-06)"><metadata
     id="metadata15"><rdf:RDF><cc:Work
         rdf:about=""><dc:format>image/svg+xml</dc:format><dc:type
           rdf:resource="http://purl.org/dc/dcmitype/StillImage" /><dc:title></dc:title></cc:Work></rdf:RDF></metadata><defs
     id="defs13" /><sodipodi:namedview
     pagecolor="#ffffff"
     bordercolor="#666666"
     borderopacity="1"
     objecttolerance="10"
     gridtolerance="10"
     guidetolerance="10"
     inkscape:pageopacity="0"
     inkscape:pageshadow="2"
     inkscape:window-width="640"
     inkscape:window-height="480"
     id="namedview11"
     showgrid="false"
     fit-margin-top="0"
     fit-margin-left="0"
     fit-margin-right="0"
     fit-margin-bottom="0"
     inkscape:zoom="1.3014504"
     inkscape:cx="70.850003"
     inkscape:cy="70.950002"
     inkscape:window-x="403"
     inkscape:window-y="89"
     inkscape:window-maximized="0"
     inkscape:current-layer="Capa_1" /><g
     id="g8"
     transform="translate(-56.7)"><g
       id="g6"><g
         id="g4"><path
           d="M 171.9,0 H 83.3 C 68.6,0 56.7,11.9 56.7,26.6 v 88.6 c 0,14.7 11.9,26.6 26.6,26.6 h 88.6 c 14.7,0 26.6,-11.9 26.6,-26.6 V 26.6 C 198.4,11.9 186.5,0 171.9,0 Z m -9.1,55 0.1,2.3 c 0,23.1 -17.5,49.6 -49.6,49.6 -9.9,0 -19,-2.9 -26.7,-7.8 1.4,0.2 2.8,0.2 4.2,0.2 8.2,0 15.7,-2.8 21.7,-7.5 -7.6,-0.1 -14.1,-5.2 -16.3,-12.1 1.1,0.2 2.2,0.3 3.3,0.3 1.6,0 3.1,-0.2 4.6,-0.6 -8,-1.6 -14,-8.7 -14,-17.1 v -0.2 c 2.4,1.3 5,2.1 7.9,2.2 -4.7,-3.1 -7.8,-8.5 -7.8,-14.5 0,-3.2 0.9,-6.2 2.4,-8.8 8.6,10.6 21.5,17.5 36,18.2 -0.3,-1.3 -0.5,-2.6 -0.5,-4 0,-9.6 7.8,-17.4 17.5,-17.4 5,0 9.5,2.1 12.7,5.5 4,-0.8 7.7,-2.2 11.1,-4.2 -1.3,4.1 -4.1,7.5 -7.7,9.7 3.5,-0.4 6.9,-1.4 10,-2.7 -2.5,3.3 -5.5,6.4 -8.9,8.9 z"
           id="path2"
           inkscape:connector-curvature="0"
           style="fill:#1ba8e4" /></g></g></g></svg>