<?xml version="1.0" encoding="UTF-8" standalone="no"?>
<!-- Generator: Adobe Illustrator 18.1.1, SVG Export Plug-In . SVG Version: 6.00 Build 0)  -->

<svg
   xmlns:dc="http://purl.org/dc/elements/1.1/"
   xmlns:cc="http://creativecommons.org/ns#"
   xmlns:rdf="http://www.w3.org/1999/02/22-rdf-syntax-ns#"
   xmlns:svg="http://www.w3.org/2000/svg"
   xmlns="http://www.w3.org/2000/svg"
   xmlns:sodipodi="http://sodipodi.sourceforge.net/DTD/sodipodi-0.dtd"
   xmlns:inkscape="http://www.inkscape.org/namespaces/inkscape"
   version="1.1"
   id="Capa_1"
   x="0px"
   y="0px"
   viewBox="0 0 281.79999 132.39999"
   enable-background="new 0 0 351 241"
   xml:space="preserve"
   sodipodi:docname="logo.svg"
   width="281.79999"
   height="132.39999"
   inkscape:version="0.92.2 (5c3e80d, 2017-08-06)"><metadata
     id="metadata69"><rdf:RDF><cc:Work
         rdf:about=""><dc:format>image/svg+xml</dc:format><dc:type
           rdf:resource="http://purl.org/dc/dcmitype/StillImage" /><dc:title></dc:title></cc:Work></rdf:RDF></metadata><defs
     id="defs67" /><sodipodi:namedview
     pagecolor="#ffffff"
     bordercolor="#666666"
     borderopacity="1"
     objecttolerance="10"
     gridtolerance="10"
     guidetolerance="10"
     inkscape:pageopacity="0"
     inkscape:pageshadow="2"
     inkscape:window-width="2498"
     inkscape:window-height="1057"
     id="namedview65"
     showgrid="false"
     fit-margin-top="0"
     fit-margin-left="0"
     fit-margin-right="0"
     fit-margin-bottom="0"
     inkscape:zoom="0.94586895"
     inkscape:cx="139.4"
     inkscape:cy="69.2"
     inkscape:window-x="54"
     inkscape:window-y="-8"
     inkscape:window-maximized="1"
     inkscape:current-layer="Capa_1" /><g
     id="XMLID_74_"
     transform="translate(-36.1,-57.3)"><g
       id="XMLID_85_"><path
         id="XMLID_103_"
         d="M 204.9,61.3 204.6,61 c -0.7,-0.6 -2,-1.3 -4,-2 -3.2,-1.2 -7.3,-1.7 -12.1,-1.7 -6.8,0 -12.5,2.2 -17.3,6.6 -4.9,4.5 -7.4,10 -7.4,16.6 v 0.1 c 0.1,6.7 2.6,12.2 7.4,16.6 4.8,4.4 10.5,6.6 17.3,6.6 4.8,0 8.9,-0.6 12.1,-1.7 1.9,-0.7 3.3,-1.4 4,-2 l 0.3,-0.3 c 0.1,-0.2 0.2,-0.3 0.2,-0.5 0.2,-1.7 0.3,-3.6 0.3,-5.7 0,-2.1 -0.1,-3.2 -0.3,-3.3 H 205 c -0.1,0.6 -0.3,1.2 -0.7,2 -0.4,0.8 -0.9,1.6 -1.7,2.4 -0.8,0.8 -1.7,1.7 -2.9,2.5 -1.2,0.8 -2.6,1.7 -4.2,2.4 -1.9,0.8 -4.3,1.3 -7.2,1.3 -5,0 -9.1,-1.7 -12.3,-5 -3.4,-3.6 -5.1,-8.6 -5.1,-14.9 v -0.3 -0.1 -0.3 c 0,-6.3 1.7,-11.3 5.1,-14.9 3.2,-3.3 7.3,-5 12.3,-5 3,0 5.4,0.4 7.2,1.3 1.7,0.7 3.1,1.5 4.2,2.4 1.1,0.9 2.1,1.7 2.9,2.5 0.8,0.8 1.3,1.6 1.7,2.4 0.4,0.8 0.6,1.5 0.7,2 h 0.1 c 0.2,-0.1 0.3,-1.3 0.3,-3.3 0,-2.1 -0.1,-4 -0.3,-5.7 0,-0.3 -0.1,-0.5 -0.2,-0.7 z"
         inkscape:connector-curvature="0"
         style="fill:#354f98" /><path
         id="XMLID_100_"
         d="m 194.6,97.4 c 1,-0.4 1.8,-0.9 2.6,-1.3 V 79.9 c 0.1,-2.8 0.5,-4.8 1.1,-5.9 0.7,-1.2 1.6,-1.9 2.8,-2.1 v -0.1 h -13.8 v 0.1 c 1.2,0.2 2.1,0.8 2.8,1.8 0.7,1 1,2.5 1,4.3 v 0.1 h 0.1 v 8 h 0.1 v 12.1 c 1.2,-0.1 2.4,-0.4 3.3,-0.8 z"
         inkscape:connector-curvature="0" /><path
         id="XMLID_97_"
         d="m 220.3,107 c -0.4,1.2 -1.2,2.3 -2.5,3.2 -1.3,1 -3.4,1.8 -6.2,2.6 -1.3,0.3 -2.8,0.5 -4.5,0.5 -3.6,0 -5.7,0 -6.3,-0.1 -2.5,-0.5 -3.7,-1.8 -3.7,-3.9 v -4 c -1.8,0.4 -3.8,0.6 -6,0.7 v 4.1 c 0,1.9 -0.3,3.3 -1,4.3 -0.7,1 -1.6,1.7 -2.8,1.8 v 0.1 c 6.7,0 12.1,-0.1 16.1,-0.1 5.5,0 10,0.1 13.5,0.3 0.6,0 1.1,0 1.5,-0.1 l 0.6,0.1 0.1,-0.4 z"
         inkscape:connector-curvature="0" /><g
         id="XMLID_87_"><path
           id="XMLID_96_"
           d="m 186.8,72.2 0.1,-0.1 h -0.1 V 72 c -4.8,6.6 -8.9,12.3 -12.3,17.1 0.5,1.2 1.1,2.4 1.8,3.4 l 4.3,-6.2 0.1,10.3 c 1.8,1.1 3.9,1.7 6.2,1.8 z"
           inkscape:connector-curvature="0"
           style="fill:#501d5e" /><path
           id="XMLID_95_"
           d="m 169.6,98.8 c -0.4,-0.4 -0.9,-0.8 -1.3,-1.2 -3,4.1 -5.1,7.1 -6.4,8.9 L 137.7,71.7 h -0.2 c 0.1,1.4 0.1,3.7 0.1,6.7 l -0.2,25.5 v 6.1 c 0,1.9 -0.3,3.3 -1,4.3 -0.7,1 -1.6,1.7 -2.8,1.8 v 0.1 h 11.5 v -0.1 c -1.2,-0.2 -2.1,-0.8 -2.8,-1.8 -0.7,-1 -1,-2.5 -1,-4.3 v -5.3 l -0.1,-17.5 c 10.8,16.6 17.1,26.3 18.8,29 l 11,-16.1 c -0.4,-0.4 -0.9,-0.8 -1.4,-1.3 z"
           inkscape:connector-curvature="0"
           style="fill:#501d5e" /><rect
           id="XMLID_92_"
           x="160"
           y="116.2"
           width="0.1"
           height="0.1"
           style="fill:#501d5e" /><path
           id="XMLID_88_"
           d="m 187.9,114.2 c -0.7,-1 -1,-2.5 -1,-4.3 V 106 c -2.1,-0.1 -4.2,-0.4 -6.1,-0.9 l 0.1,4.8 c 0,1.9 -0.3,3.3 -1,4.3 -0.7,1 -1.6,1.7 -2.9,1.8 v 0.1 c 2.5,0 4.6,-0.1 6.5,-0.1 h 1.2 l 6.1,0.1 V 116 c -1.3,-0.1 -2.2,-0.7 -2.9,-1.8 z"
           inkscape:connector-curvature="0"
           style="fill:#501d5e" /></g></g><g
       id="XMLID_193_"><path
         id="XMLID_194_"
         d="m 101.6,142.4 c 0.7,2.1 1.4,4 2,5.6 0.8,1.9 1.4,3.6 1.8,4.8 0.4,1.3 0.9,2.6 1.5,3.8 1.5,-3.3 3.2,-8.1 5.2,-14.3 h 4.3 c 0.2,0 0.2,0.1 0.2,0.3 0,0.1 -0.1,0.2 -0.3,0.3 -0.8,0.1 -1.3,0.3 -1.5,0.6 -0.3,0.3 -0.4,0.9 -0.5,1.6 -0.1,0.8 -0.1,2.2 -0.2,4.3 -0.1,2.1 -0.1,3.8 -0.1,5.2 0,2.7 0,4.2 0,4.6 0,0.4 0.2,0.8 0.4,1.1 0.2,0.3 0.6,0.5 1.3,0.6 0.2,0 0.3,0.1 0.3,0.3 0,0.2 -0.1,0.2 -0.3,0.2 h -4.2 -1.1 c -0.2,0 -0.4,-0.1 -0.4,-0.2 0,-0.1 0.1,-0.2 0.3,-0.2 0.6,-0.1 1,-0.3 1.2,-0.5 0.2,-0.2 0.3,-0.5 0.4,-1 0.1,-0.5 0.1,-1.7 0.1,-3.7 l 0.2,-7 0.1,-3.4 c 0,-0.3 0,-0.4 -0.1,-0.4 -0.1,0 -0.2,0.1 -0.2,0.2 l -2.2,5.7 c -1.4,3.6 -2.2,6 -2.5,7 l -0.7,2.2 c -0.2,0.7 -0.3,1 -0.4,1.1 0,0.1 -0.1,0.1 -0.2,0.1 -0.1,0 -0.2,-0.1 -0.2,-0.4 -0.1,-0.6 -0.8,-2.5 -2,-5.7 -0.6,-1.8 -1.4,-3.9 -2.3,-6.2 -0.9,-2.3 -1.4,-3.5 -1.4,-3.6 -0.1,-0.1 -0.1,-0.2 -0.2,-0.2 -0.1,0 -0.1,0.1 -0.1,0.4 l -0.1,8.8 v 2.9 c 0,1.5 0.2,2.5 0.5,3 0.3,0.5 0.8,0.7 1.4,0.7 0.4,0 0.6,0.1 0.6,0.3 0,0.2 -0.1,0.2 -0.3,0.2 h -0.2 -0.7 -1.5 c -0.7,0 -1.5,0 -2.6,0.1 -0.1,-0.1 -0.1,-0.2 -0.1,-0.2 0,-0.2 0.1,-0.3 0.4,-0.3 0.7,0 1.3,-0.3 1.6,-1 0.3,-0.6 0.5,-2 0.5,-4.1 v -2.6 l 0.2,-6.5 c 0,-1.5 -0.2,-2.5 -0.5,-3.1 -0.3,-0.6 -0.8,-0.9 -1.5,-1 -0.3,0 -0.4,-0.1 -0.4,-0.3 0,-0.2 0.1,-0.3 0.3,-0.3 0.1,0 0.2,0 0.4,0 z"
         inkscape:connector-curvature="0" /><path
         id="XMLID_196_"
         d="m 123.4,159.5 c -0.4,0.7 -0.8,1.2 -1.3,1.5 -0.5,0.3 -1.1,0.5 -1.7,0.5 -0.7,0 -1.3,-0.3 -1.7,-0.8 -0.4,-0.5 -0.6,-1.2 -0.6,-2.1 0,-0.6 0.1,-1.2 0.4,-1.8 0.2,-0.6 0.5,-0.9 0.9,-1.2 0.4,-0.3 0.9,-0.5 1.7,-0.9 1.2,-0.5 1.9,-0.9 2.1,-1.3 0.2,-0.3 0.3,-0.8 0.3,-1.3 0,-0.9 -0.2,-1.5 -0.5,-2 -0.3,-0.5 -0.7,-0.7 -1.3,-0.7 -0.5,0 -0.8,0.1 -1,0.4 -0.2,0.3 -0.4,0.8 -0.5,1.6 -0.1,0.9 -0.4,1.3 -0.9,1.3 -0.2,0 -0.3,-0.1 -0.5,-0.3 -0.2,-0.2 -0.3,-0.5 -0.3,-0.9 0,-0.7 0.3,-1.4 0.9,-1.9 0.6,-0.5 1.4,-0.8 2.5,-0.8 0.8,0 1.5,0.2 2,0.5 0.5,0.3 0.8,0.7 0.9,1.1 0.1,0.4 0.2,1.2 0.2,2.4 l -0.1,3.8 c 0,1.5 0.1,2.5 0.2,3.2 0.1,0.6 0.4,0.9 0.7,0.9 0.1,0 0.2,0 0.3,0 h 0.2 c 0.2,0 0.2,0.1 0.2,0.2 0,0.4 -0.7,0.6 -2.1,0.6 -0.4,0 -0.7,-0.1 -0.8,-0.4 -0.1,-0.2 -0.2,-0.8 -0.2,-1.6 z m 0,-5.6 c -0.2,0.4 -0.7,0.8 -1.5,1.4 -0.8,0.5 -1.3,1 -1.6,1.5 -0.3,0.5 -0.5,1.1 -0.5,1.7 0,0.6 0.1,1.1 0.4,1.6 0.3,0.4 0.6,0.6 1,0.6 0.4,0 0.8,-0.2 1.2,-0.5 0.4,-0.3 0.6,-0.8 0.8,-1.3 0.2,-0.5 0.3,-1.3 0.3,-2.4 0,-0.8 0,-1.7 -0.1,-2.6 z"
         inkscape:connector-curvature="0" /><path
         id="XMLID_199_"
         d="m 135.2,151 c 0.3,0.7 0.5,1.5 0.5,2.3 0,1.2 -0.3,2.3 -0.9,3.2 -0.6,0.9 -1.5,1.4 -2.7,1.5 -0.7,0.1 -1.3,0.2 -1.5,0.3 -0.2,0.1 -0.5,0.3 -0.7,0.6 -0.2,0.3 -0.3,0.5 -0.3,0.8 0,0.4 0.2,0.7 0.5,0.9 0.3,0.2 1.1,0.3 2.2,0.4 1.6,0.1 2.7,0.2 3.2,0.3 0.5,0.1 1,0.5 1.4,1 0.4,0.6 0.6,1.3 0.6,2.2 0,1.5 -0.5,2.7 -1.5,3.6 -1,0.9 -2.4,1.4 -4.3,1.4 -1.4,0 -2.5,-0.2 -3.2,-0.7 -0.7,-0.5 -1.1,-1.2 -1.1,-2.2 0,-1.5 1.1,-2.7 3.2,-3.7 -0.9,-0.2 -1.5,-0.5 -1.9,-0.8 -0.4,-0.3 -0.6,-0.8 -0.6,-1.4 0,-0.6 0.2,-1.2 0.6,-1.6 0.4,-0.4 1,-0.9 1.7,-1.2 -0.7,-0.3 -1.3,-0.7 -1.7,-1.4 -0.4,-0.7 -0.6,-1.5 -0.6,-2.4 0,-1.3 0.4,-2.5 1.1,-3.5 0.8,-1 1.7,-1.5 2.9,-1.5 1.1,0 2.1,0.5 2.8,1.6 0.7,-1.1 1.4,-1.7 2.1,-1.7 0.5,0 0.8,0.2 1.1,0.5 0.2,0.3 0.4,0.7 0.4,1.1 0,0.3 -0.1,0.5 -0.2,0.7 -0.1,0.2 -0.3,0.3 -0.5,0.3 -0.4,0 -0.7,-0.3 -0.9,-0.9 -0.1,-0.3 -0.3,-0.5 -0.5,-0.5 -0.4,-0.2 -0.8,0.1 -1.2,0.8 z m -2.5,11.8 c -0.8,0 -1.5,0.2 -2.1,0.5 -0.6,0.3 -1.1,0.7 -1.4,1.2 -0.3,0.5 -0.5,1 -0.5,1.6 0,0.9 0.3,1.5 0.9,2 0.6,0.4 1.4,0.7 2.3,0.7 1.4,0 2.5,-0.4 3.1,-1.1 0.7,-0.8 1,-1.6 1,-2.5 0,-0.8 -0.3,-1.4 -0.8,-1.7 -0.5,-0.5 -1.3,-0.7 -2.5,-0.7 z m -2.9,-9.4 c 0,1.4 0.2,2.4 0.7,3 0.5,0.6 1,0.9 1.5,0.9 0.5,0 0.9,-0.3 1.3,-0.9 0.4,-0.6 0.6,-1.6 0.6,-2.8 0,-1.3 -0.2,-2.3 -0.6,-3 -0.4,-0.7 -0.9,-1.1 -1.4,-1.1 -0.6,0 -1.1,0.3 -1.5,1 -0.4,0.7 -0.6,1.7 -0.6,2.9 z"
         inkscape:connector-curvature="0" /><path
         id="XMLID_203_"
         d="m 142.1,149 c 0.2,0.6 0.3,1.5 0.3,2.9 0.4,-0.9 0.9,-1.7 1.5,-2.1 0.5,-0.5 1.1,-0.7 1.8,-0.7 0.5,0 1,0.1 1.4,0.4 0.5,0.2 0.8,0.7 1.1,1.3 0.3,0.6 0.4,1.6 0.4,3.1 l -0.1,4.9 c 0,0.9 0.1,1.5 0.2,1.7 0.1,0.2 0.4,0.4 0.7,0.5 0.3,0.1 0.4,0.2 0.4,0.3 0,0.1 -0.1,0.2 -0.2,0.2 -0.1,0 -0.1,0 -0.2,0 -0.3,-0.1 -0.8,-0.1 -1.5,-0.1 -0.6,0 -1.2,0 -1.9,0.1 -0.3,0 -0.4,-0.1 -0.4,-0.2 0,-0.1 0.1,-0.2 0.2,-0.2 0.4,-0.1 0.7,-0.2 0.8,-0.4 0.1,-0.1 0.2,-0.3 0.3,-0.5 0.1,-0.2 0.1,-0.9 0.1,-2.1 0,-1.2 0,-2.2 0,-2.9 0,-2 -0.2,-3.4 -0.6,-4.1 -0.4,-0.7 -0.9,-1 -1.4,-1 -0.8,0 -1.6,0.6 -2.1,1.8 -0.6,1.2 -0.8,3.3 -0.8,6.1 0,1.3 0.1,2.1 0.2,2.5 0.1,0.4 0.4,0.6 1,0.6 0.2,0 0.2,0.1 0.2,0.3 0,0.1 -0.1,0.2 -0.2,0.2 l -0.6,-0.1 c -0.2,0 -0.9,0 -2,0 h -0.9 c -0.3,0 -0.5,-0.1 -0.5,-0.2 0,-0.2 0.2,-0.3 0.5,-0.4 0.3,-0.1 0.6,-0.2 0.7,-0.5 0.1,-0.3 0.2,-0.9 0.2,-2.2 0,-1.2 0.1,-2.8 0.1,-4.6 0,-1.7 -0.1,-2.8 -0.3,-3.2 -0.2,-0.4 -0.4,-0.7 -0.7,-0.8 -0.3,-0.1 -0.4,-0.2 -0.4,-0.4 0,-0.2 0.1,-0.2 0.3,-0.2 h 0.9 c 0.1,0 0.6,0 1.5,0 z"
         inkscape:connector-curvature="0" /><path
         id="XMLID_205_"
         d="m 156.7,159.5 c -0.4,0.7 -0.8,1.2 -1.3,1.5 -0.5,0.3 -1.1,0.5 -1.7,0.5 -0.7,0 -1.3,-0.3 -1.7,-0.8 -0.4,-0.5 -0.6,-1.2 -0.6,-2.1 0,-0.6 0.1,-1.2 0.4,-1.8 0.2,-0.6 0.5,-0.9 0.9,-1.2 0.4,-0.3 0.9,-0.5 1.7,-0.9 1.2,-0.5 1.9,-0.9 2.1,-1.3 0.2,-0.3 0.3,-0.8 0.3,-1.3 0,-0.9 -0.2,-1.5 -0.5,-2 -0.3,-0.5 -0.7,-0.7 -1.3,-0.7 -0.5,0 -0.8,0.1 -1,0.4 -0.2,0.3 -0.4,0.8 -0.5,1.6 -0.1,0.9 -0.4,1.3 -0.9,1.3 -0.2,0 -0.3,-0.1 -0.5,-0.3 -0.2,-0.2 -0.3,-0.5 -0.3,-0.9 0,-0.7 0.3,-1.4 0.9,-1.9 0.6,-0.5 1.4,-0.8 2.5,-0.8 0.8,0 1.5,0.2 2,0.5 0.5,0.3 0.8,0.7 0.9,1.1 0.1,0.4 0.2,1.2 0.2,2.4 l -0.1,3.8 c 0,1.5 0.1,2.5 0.2,3.2 0.1,0.6 0.4,0.9 0.7,0.9 0.1,0 0.2,0 0.3,0 h 0.2 c 0.2,0 0.2,0.1 0.2,0.2 0,0.4 -0.7,0.6 -2.1,0.6 -0.4,0 -0.7,-0.1 -0.8,-0.4 -0.1,-0.2 -0.1,-0.8 -0.2,-1.6 z m 0,-5.6 c -0.2,0.4 -0.7,0.8 -1.5,1.4 -0.8,0.5 -1.3,1 -1.6,1.5 -0.3,0.5 -0.5,1.1 -0.5,1.7 0,0.6 0.1,1.1 0.4,1.6 0.3,0.4 0.6,0.6 1,0.6 0.4,0 0.8,-0.2 1.2,-0.5 0.4,-0.3 0.6,-0.8 0.8,-1.3 0.2,-0.5 0.3,-1.3 0.3,-2.4 0,-0.8 0,-1.7 -0.1,-2.6 z"
         inkscape:connector-curvature="0" /><path
         id="XMLID_208_"
         d="m 177.9,143.6 c 0.4,-0.5 0.6,-0.8 0.7,-1 0.1,-0.2 0.2,-0.3 0.3,-0.3 0.1,0 0.2,0.2 0.2,0.5 l 0.2,5.1 c 0,0.3 0,0.5 0,0.5 0,0.1 -0.1,0.1 -0.2,0.1 -0.1,0 -0.2,-0.2 -0.4,-0.6 -0.5,-1.5 -1.1,-2.8 -2,-3.8 -0.9,-1 -1.8,-1.5 -2.8,-1.5 -0.9,0 -1.7,0.4 -2.4,1.1 -0.7,0.8 -1.3,1.8 -1.7,3.2 -0.4,1.4 -0.6,2.9 -0.6,4.5 0,2.7 0.6,5 1.7,6.7 1.1,1.7 2.4,2.6 3.8,2.6 1,0 1.8,-0.4 2.6,-1.2 0.8,-0.8 1.4,-1.7 1.8,-2.8 0.1,-0.3 0.2,-0.4 0.3,-0.4 0.2,0 0.2,0.1 0.2,0.3 0,0.3 -0.3,0.9 -0.8,1.8 -0.6,0.9 -1.3,1.7 -2.2,2.3 -0.9,0.6 -1.9,0.9 -2.9,0.9 -1.2,0 -2.4,-0.4 -3.5,-1.2 -1.1,-0.8 -2,-2 -2.6,-3.4 -0.6,-1.5 -1,-3.2 -1,-5.1 0,-1.9 0.3,-3.6 0.9,-5.2 0.6,-1.5 1.5,-2.7 2.6,-3.6 1.1,-0.9 2.3,-1.3 3.5,-1.3 0.6,0 1.3,0.1 2,0.4 0.9,0.4 1.6,0.9 2.3,1.4 z"
         inkscape:connector-curvature="0" /><path
         id="XMLID_210_"
         d="m 186.5,159.5 c -0.4,0.7 -0.8,1.2 -1.3,1.5 -0.5,0.3 -1.1,0.5 -1.7,0.5 -0.7,0 -1.3,-0.3 -1.7,-0.8 -0.4,-0.5 -0.6,-1.2 -0.6,-2.1 0,-0.6 0.1,-1.2 0.4,-1.8 0.2,-0.6 0.5,-0.9 0.9,-1.2 0.4,-0.3 0.9,-0.5 1.7,-0.9 1.2,-0.5 1.9,-0.9 2.1,-1.3 0.2,-0.3 0.3,-0.8 0.3,-1.3 0,-0.9 -0.2,-1.5 -0.5,-2 -0.3,-0.5 -0.7,-0.7 -1.3,-0.7 -0.5,0 -0.8,0.1 -1,0.4 -0.2,0.3 -0.4,0.8 -0.5,1.6 -0.1,0.9 -0.4,1.3 -0.9,1.3 -0.2,0 -0.3,-0.1 -0.5,-0.3 -0.2,-0.2 -0.3,-0.5 -0.3,-0.9 0,-0.7 0.3,-1.4 0.9,-1.9 0.6,-0.5 1.4,-0.8 2.5,-0.8 0.8,0 1.5,0.2 2,0.5 0.5,0.3 0.8,0.7 0.9,1.1 0.1,0.4 0.2,1.2 0.2,2.4 l -0.1,3.8 c 0,1.5 0.1,2.5 0.2,3.2 0.1,0.6 0.4,0.9 0.7,0.9 0.1,0 0.2,0 0.3,0 h 0.2 c 0.2,0 0.2,0.1 0.2,0.2 0,0.4 -0.7,0.6 -2.1,0.6 -0.4,0 -0.7,-0.1 -0.8,-0.4 -0.1,-0.2 -0.2,-0.8 -0.2,-1.6 z m 0,-5.6 c -0.2,0.4 -0.7,0.8 -1.5,1.4 -0.8,0.5 -1.3,1 -1.6,1.5 -0.3,0.5 -0.5,1.1 -0.5,1.7 0,0.6 0.1,1.1 0.4,1.6 0.3,0.4 0.6,0.6 1,0.6 0.4,0 0.8,-0.2 1.2,-0.5 0.4,-0.3 0.6,-0.8 0.8,-1.3 0.2,-0.5 0.3,-1.3 0.3,-2.4 -0.1,-0.8 -0.1,-1.7 -0.1,-2.6 z"
         inkscape:connector-curvature="0" /><path
         id="XMLID_213_"
         d="m 193.7,152.2 c 0.5,-1.1 0.9,-1.9 1.5,-2.4 0.6,-0.5 1.1,-0.8 1.6,-0.8 0.4,0 0.7,0.2 1,0.6 0.3,0.4 0.4,0.8 0.4,1.3 0,0.9 -0.3,1.4 -0.9,1.4 -0.3,0 -0.5,-0.3 -0.7,-0.8 -0.2,-0.6 -0.5,-1 -0.9,-1 -0.4,0 -0.7,0.3 -1.1,0.8 -0.4,0.5 -0.6,1.1 -0.8,1.8 -0.1,0.6 -0.2,2 -0.2,4 0,1.9 0.1,3 0.2,3.2 0.1,0.3 0.4,0.5 0.9,0.5 0.1,0 0.2,0.1 0.2,0.2 0,0.2 -0.2,0.3 -0.5,0.3 H 191 c -0.2,0 -0.4,-0.1 -0.4,-0.2 0,-0.2 0.2,-0.2 0.5,-0.3 0.5,0 0.7,-0.2 0.8,-0.6 0.1,-0.4 0.2,-1.6 0.2,-3.7 0,-3.2 0,-5.1 -0.1,-5.7 -0.1,-0.6 -0.5,-1 -1.1,-1 -0.3,0 -0.4,-0.1 -0.4,-0.3 0,-0.1 0,-0.2 0.1,-0.2 0.1,0 0.4,-0.1 1,-0.1 l 2,-0.1 c 0,0.5 0,1.5 0.1,3.1 z"
         inkscape:connector-curvature="0" /><path
         id="XMLID_215_"
         d="m 203.2,150.2 c -0.1,2.1 -0.2,4.2 -0.2,6.3 0,1.6 0.1,2.6 0.4,3.1 0.3,0.5 0.7,0.7 1.2,0.7 0.4,0 0.8,-0.2 1.3,-0.6 0.2,-0.1 0.3,-0.2 0.3,-0.2 0.1,0 0.1,0.1 0.1,0.2 0,0.2 -0.3,0.6 -0.8,1.1 -0.5,0.5 -1.1,0.8 -1.9,0.8 -0.7,0 -1.3,-0.3 -1.7,-1 -0.4,-0.7 -0.6,-1.7 -0.6,-3.1 0,-1.4 0.1,-3.9 0.2,-7.3 -0.1,0 -0.4,-0.1 -1,-0.1 l -0.7,-0.1 c -0.2,0 -0.2,-0.1 -0.2,-0.2 0,-0.1 0.1,-0.2 0.3,-0.3 0.3,-0.1 0.8,-0.6 1.5,-1.3 0.7,-0.7 1.1,-1.7 1.2,-3 0,-0.3 0.1,-0.5 0.2,-0.5 0.1,0 0.2,0.1 0.2,0.4 0,0.1 0,0.2 0,0.3 0,0.4 0,0.8 0,1.3 v 2.3 h 2.4 c 0.4,0 0.6,0.1 0.6,0.2 0,0.4 -0.1,0.7 -0.2,0.8 -0.1,0 -1,0.1 -2.6,0.2 z"
         inkscape:connector-curvature="0" /><path
         id="XMLID_217_"
         d="m 213.1,159.5 c -0.4,0.7 -0.8,1.2 -1.3,1.5 -0.5,0.3 -1.1,0.5 -1.7,0.5 -0.7,0 -1.3,-0.3 -1.7,-0.8 -0.4,-0.5 -0.6,-1.2 -0.6,-2.1 0,-0.6 0.1,-1.2 0.4,-1.8 0.2,-0.6 0.5,-0.9 0.9,-1.2 0.4,-0.3 0.9,-0.5 1.7,-0.9 1.2,-0.5 1.9,-0.9 2.1,-1.3 0.2,-0.3 0.3,-0.8 0.3,-1.3 0,-0.9 -0.2,-1.5 -0.5,-2 -0.3,-0.5 -0.7,-0.7 -1.3,-0.7 -0.5,0 -0.8,0.1 -1,0.4 -0.2,0.3 -0.4,0.8 -0.5,1.6 -0.1,0.9 -0.4,1.3 -0.9,1.3 -0.2,0 -0.3,-0.1 -0.5,-0.3 -0.2,-0.2 -0.3,-0.5 -0.3,-0.9 0,-0.7 0.3,-1.4 0.9,-1.9 0.6,-0.5 1.4,-0.8 2.5,-0.8 0.8,0 1.5,0.2 2,0.5 0.5,0.3 0.8,0.7 0.9,1.1 0.1,0.4 0.2,1.2 0.2,2.4 l -0.1,3.8 c 0,1.5 0.1,2.5 0.2,3.2 0.1,0.6 0.4,0.9 0.7,0.9 0.1,0 0.2,0 0.3,0 h 0.2 c 0.2,0 0.2,0.1 0.2,0.2 0,0.4 -0.7,0.6 -2.1,0.6 -0.4,0 -0.7,-0.1 -0.8,-0.4 -0.1,-0.2 -0.2,-0.8 -0.2,-1.6 z m 0,-5.6 c -0.2,0.4 -0.7,0.8 -1.5,1.4 -0.8,0.5 -1.3,1 -1.6,1.5 -0.3,0.5 -0.5,1.1 -0.5,1.7 0,0.6 0.1,1.1 0.4,1.6 0.3,0.4 0.6,0.6 1,0.6 0.4,0 0.8,-0.2 1.2,-0.5 0.4,-0.3 0.6,-0.8 0.8,-1.3 0.2,-0.5 0.3,-1.3 0.3,-2.4 0,-0.8 -0.1,-1.7 -0.1,-2.6 z"
         inkscape:connector-curvature="0" /><path
         id="XMLID_220_"
         d="m 234.9,161.4 c -0.4,0 -0.6,0 -0.6,0 -0.3,0 -0.8,0 -1.5,-0.1 -0.7,-0.1 -2.2,-0.1 -4.4,-0.1 h -2.8 c -0.1,0 -0.5,0 -1.1,0.1 -0.6,0 -1,0.1 -1.2,0.1 -0.6,0 -0.8,-0.1 -0.8,-0.3 0,-0.2 0.1,-0.2 0.3,-0.2 0.7,-0.1 1.2,-0.3 1.5,-0.6 0.3,-0.3 0.5,-0.8 0.6,-1.5 0.1,-0.6 0.2,-2.4 0.2,-5.2 v -5.2 c 0,-1.7 -0.1,-2.9 -0.2,-3.5 -0.1,-0.6 -0.3,-1.2 -0.7,-1.5 -0.4,-0.4 -0.7,-0.6 -1.2,-0.6 -0.2,0 -0.3,-0.1 -0.3,-0.3 0,-0.2 0.1,-0.3 0.3,-0.3 0.1,0 0.1,0 0.3,0 1.2,0.1 2.5,0.1 4,0.1 h 1.9 c 0.2,0 0.3,0.1 0.3,0.3 0,0.2 -0.1,0.3 -0.3,0.3 -0.5,0 -0.9,0.1 -1.3,0.4 -0.3,0.3 -0.6,0.6 -0.7,0.9 -0.1,0.4 -0.2,1 -0.2,2.1 l -0.1,6.9 v 3.8 c 0,1.2 0,2 0.1,2.3 0.1,0.4 0.2,0.7 0.5,1 0.2,0.3 0.7,0.4 1.3,0.4 0.1,0 0.7,0 1.9,-0.1 1,-0.2 1.9,-0.8 2.7,-1.9 0.8,-1.1 1.3,-2.1 1.6,-3 0.1,-0.3 0.2,-0.4 0.3,-0.4 0.1,0 0.2,0.1 0.2,0.3 0,0.3 -0.1,1.2 -0.3,2.9 -0.2,1.8 -0.3,2.7 -0.3,2.9 z"
         inkscape:connector-curvature="0" /><path
         id="XMLID_222_"
         d="m 238.3,154.6 c 0,0.5 0,0.9 0,1.2 0,1.4 0.3,2.5 0.9,3.5 0.6,0.9 1.4,1.4 2.3,1.4 0.9,0 1.7,-0.5 2.4,-1.4 0.2,-0.3 0.4,-0.4 0.4,-0.4 0.1,0 0.2,0.1 0.2,0.4 -0.3,0.7 -0.7,1.2 -1.4,1.7 -0.7,0.5 -1.4,0.7 -2.2,0.7 -1.2,0 -2.2,-0.6 -3.1,-1.7 -0.8,-1.2 -1.3,-2.6 -1.3,-4.4 0,-1.9 0.5,-3.5 1.4,-4.7 0.9,-1.3 1.9,-1.9 2.9,-1.9 1,0 1.9,0.5 2.7,1.5 0.8,1 1.2,2.2 1.2,3.5 0,0.2 0,0.4 -0.1,0.4 0,0.1 -0.3,0.1 -0.8,0.1 z m 0,-0.8 c 0.9,0.1 1.9,0.1 2.7,0.1 h 0.6 c 0.4,0 0.8,-0.1 1,-0.3 0.2,-0.2 0.3,-0.6 0.3,-1.1 0,-0.8 -0.2,-1.5 -0.6,-2.1 -0.4,-0.6 -0.9,-0.9 -1.5,-0.9 -0.5,0 -1,0.3 -1.6,1 -0.6,0.7 -0.7,1.8 -0.9,3.3 z"
         inkscape:connector-curvature="0" /><path
         id="XMLID_225_"
         d="m 250.9,155.4 -2.7,-4.9 c -0.3,-0.6 -0.8,-0.9 -1.5,-1 -0.2,0 -0.4,-0.1 -0.4,-0.3 0,-0.1 0,-0.2 0.1,-0.2 0.1,0 0.3,-0.1 0.7,-0.1 h 3.5 c 0.4,0 0.6,0.1 0.6,0.3 0,0.2 -0.3,0.3 -0.8,0.4 -0.3,0 -0.4,0.2 -0.4,0.3 0,0.2 0.6,1.6 1.9,4 1.1,-2 1.7,-3.2 1.7,-3.6 0,-0.4 -0.3,-0.7 -0.8,-0.8 -0.2,0 -0.3,-0.1 -0.3,-0.3 0,-0.2 0.2,-0.3 0.7,-0.3 h 2.4 c 0.3,0 0.5,0.1 0.5,0.3 0,0.2 -0.1,0.3 -0.3,0.3 -0.6,0 -1,0.2 -1.2,0.6 -0.2,0.4 -1,1.8 -2.3,4.3 l 2.1,3.8 c 0.6,1.2 1.1,1.9 1.4,2.1 0.3,0.3 0.7,0.4 1.1,0.5 0.2,0 0.3,0.1 0.3,0.3 0,0.1 0,0.2 -0.1,0.3 -0.1,0 -0.3,0.1 -0.7,0.1 h -3.5 c -0.4,0 -0.7,-0.1 -0.7,-0.3 0,-0.2 0.1,-0.3 0.3,-0.3 0.6,-0.1 0.8,-0.3 0.8,-0.7 0,-0.2 -0.1,-0.4 -0.2,-0.7 -0.1,-0.1 -0.2,-0.4 -0.5,-0.9 -0.3,-0.7 -0.8,-1.6 -1.4,-2.6 -1.2,2.4 -1.8,3.8 -1.8,4.2 0,0.5 0.3,0.7 1,0.7 0.2,0 0.4,0.1 0.4,0.3 0,0.2 -0.2,0.3 -0.6,0.3 h -2.9 c -0.4,0 -0.6,-0.1 -0.6,-0.3 0,-0.2 0.1,-0.3 0.3,-0.3 0.3,0 0.7,-0.2 1.1,-0.4 0.4,-0.2 0.8,-0.8 1.3,-1.7 z"
         inkscape:connector-curvature="0" /></g><path
       id="XMLID_76_"
       d="m 317.9,130.7 c 0,0 -136.7,3.4 -281.8,0 0,0 163.8,-2.6 281.8,0 z"
       inkscape:connector-curvature="0"
       style="fill:#9a999e" /><g
       id="XMLID_73_"><path
         id="XMLID_104_"
         d="m 45.6,180.1 c -0.2,1 -0.3,1.7 -0.3,2.2 0,0.3 0.1,0.6 0.2,0.8 0.2,0.2 0.4,0.4 0.6,0.4 0.4,0 0.8,-0.2 1.2,-0.5 0.4,-0.3 0.8,-0.8 1.1,-1.3 0.1,-0.2 0.3,-0.4 0.4,-0.4 0.1,0 0.2,0.1 0.2,0.2 0,0.4 -0.3,0.9 -1,1.5 -0.7,0.7 -1.4,1 -2.2,1 -0.6,0 -1,-0.2 -1.4,-0.7 -0.3,-0.5 -0.5,-1 -0.5,-1.6 0,-1.3 0.5,-2.8 1.6,-4.5 1.1,-1.7 2.2,-2.4 3.2,-2.4 0.4,0 0.7,0.1 0.9,0.4 0.2,0.3 0.4,0.6 0.4,1 0,0.7 -0.3,1.4 -1,2.1 -0.7,0.7 -1.8,1.3 -3.4,1.8 z m 0.1,-0.5 c 1,-0.5 1.8,-1.1 2.4,-1.8 0.6,-0.7 1,-1.4 1,-2 0,-0.1 0,-0.3 -0.1,-0.4 -0.1,-0.1 -0.2,-0.2 -0.4,-0.2 -0.4,0 -0.9,0.3 -1.4,0.9 -0.5,0.6 -1.1,1.8 -1.5,3.5 z"
         inkscape:connector-curvature="0"
         style="fill:#9a999e" /><path
         id="XMLID_107_"
         d="m 55.1,181 c 0,0.8 -0.3,1.5 -0.8,2.1 -0.5,0.6 -1.2,0.9 -1.9,0.9 -0.6,0 -1.1,-0.2 -1.5,-0.6 -0.4,-0.4 -0.5,-0.7 -0.5,-1 0,-0.2 0.1,-0.4 0.2,-0.6 0.1,-0.2 0.3,-0.3 0.5,-0.3 0.2,0 0.4,0.1 0.5,0.2 0.1,0.1 0.2,0.3 0.2,0.5 0,0.1 0,0.2 -0.1,0.4 -0.1,0.2 -0.1,0.3 -0.1,0.4 0,0.2 0.1,0.3 0.2,0.4 0.1,0.1 0.4,0.1 0.6,0.1 0.5,0 0.8,-0.1 1.1,-0.4 0.3,-0.3 0.4,-0.7 0.4,-1.1 0,-0.4 -0.2,-1 -0.7,-1.7 -0.8,-1.2 -1.2,-2.2 -1.2,-2.9 0,-0.7 0.2,-1.3 0.7,-1.8 0.4,-0.6 1,-0.8 1.6,-0.8 0.5,0 0.9,0.1 1.2,0.4 0.4,0.3 0.5,0.6 0.5,0.9 0,0.2 -0.1,0.4 -0.2,0.6 -0.1,0.2 -0.3,0.2 -0.5,0.2 -0.4,0 -0.5,-0.2 -0.5,-0.6 v -0.6 c 0,-0.2 -0.1,-0.3 -0.2,-0.4 -0.2,-0.1 -0.3,-0.2 -0.5,-0.2 -0.3,0 -0.5,0.1 -0.8,0.3 -0.2,0.2 -0.4,0.5 -0.4,0.9 0,0.4 0.4,1.1 1.1,2.1 0.7,1.2 1.1,2 1.1,2.6 z"
         inkscape:connector-curvature="0"
         style="fill:#9a999e" /><path
         id="XMLID_109_"
         d="m 59.2,175.4 0.8,-3.2 c 0.4,0 0.9,0 1.2,0.1 l -0.7,2.7 c 0.3,-0.1 0.6,-0.1 0.9,-0.1 0.9,0 1.5,0.3 1.9,0.9 0.4,0.6 0.7,1.3 0.7,2.1 0,1.6 -0.5,2.9 -1.6,4 -1.1,1.1 -2.5,1.8 -4.3,2.1 -0.7,2.3 -1.1,3.8 -1.1,4.4 0,0.5 0.4,0.7 1.2,0.8 0.2,0 0.2,0.1 0.2,0.2 0,0.1 -0.1,0.2 -0.2,0.2 l -2.1,-0.1 c -0.3,0 -0.7,0 -1,0.1 -0.5,0 -0.8,0.1 -1,0.1 -0.2,0 -0.3,-0.1 -0.3,-0.2 0,-0.1 0.1,-0.2 0.4,-0.2 0.4,0 0.8,-0.1 1,-0.4 0.2,-0.2 0.5,-0.6 0.7,-1.3 0.2,-0.7 0.7,-2.3 1.3,-4.8 l 1.8,-6.7 c -0.3,0.2 -0.7,0.5 -1.2,1 -0.5,0.5 -0.8,0.8 -1,1.1 -0.2,0.4 -0.4,0.5 -0.5,0.5 -0.1,0 -0.1,-0.1 -0.1,-0.2 0,-0.2 0.3,-0.7 0.9,-1.4 0.7,-0.6 1.3,-1.2 2.1,-1.7 z m -0.8,7.9 c 0.2,0 0.3,0 0.3,0 0.8,0 1.6,-0.5 2.5,-1.4 0.9,-0.9 1.4,-2.2 1.4,-3.7 0,-1 -0.2,-1.7 -0.5,-2.2 -0.3,-0.4 -0.7,-0.7 -1.2,-0.7 -0.1,0 -0.3,0 -0.4,0.1 z"
         inkscape:connector-curvature="0"
         style="fill:#9a999e" /><path
         id="XMLID_112_"
         d="m 66.8,180.1 c -0.2,1 -0.3,1.7 -0.3,2.2 0,0.3 0.1,0.6 0.2,0.8 0.2,0.2 0.4,0.4 0.6,0.4 0.4,0 0.8,-0.2 1.2,-0.5 0.4,-0.3 0.8,-0.8 1.1,-1.3 0.1,-0.2 0.3,-0.4 0.4,-0.4 0.1,0 0.2,0.1 0.2,0.2 0,0.4 -0.3,0.9 -1,1.5 -0.7,0.7 -1.4,1 -2.2,1 -0.6,0 -1,-0.2 -1.4,-0.7 -0.3,-0.5 -0.5,-1 -0.5,-1.6 0,-1.3 0.5,-2.8 1.6,-4.5 1.1,-1.7 2.2,-2.4 3.2,-2.4 0.4,0 0.7,0.1 0.9,0.4 0.2,0.3 0.4,0.6 0.4,1 0,0.7 -0.3,1.4 -1,2.1 -0.7,0.7 -1.8,1.3 -3.4,1.8 z m 0.1,-0.5 c 1,-0.5 1.8,-1.1 2.4,-1.8 0.6,-0.7 1,-1.4 1,-2 0,-0.1 0,-0.3 -0.1,-0.4 -0.1,-0.1 -0.2,-0.2 -0.4,-0.2 -0.4,0 -0.9,0.3 -1.4,0.9 -0.5,0.6 -1,1.8 -1.5,3.5 z"
         inkscape:connector-curvature="0"
         style="fill:#9a999e" /><path
         id="XMLID_115_"
         d="m 76.8,174.8 c 0.3,0 0.6,0.1 0.9,0.4 0.3,0.3 0.4,0.6 0.4,0.9 0,0.3 -0.1,0.4 -0.2,0.6 -0.1,0.1 -0.3,0.2 -0.4,0.2 -0.2,0 -0.3,-0.1 -0.4,-0.2 -0.1,-0.1 -0.2,-0.3 -0.3,-0.7 -0.1,-0.3 -0.2,-0.5 -0.2,-0.6 -0.1,-0.1 -0.2,-0.1 -0.3,-0.1 -0.4,0 -0.8,0.3 -1.3,0.9 -0.5,0.6 -0.9,1.5 -1.3,2.6 -0.3,1.1 -0.5,2 -0.5,2.8 0,0.6 0.1,1 0.3,1.3 0.2,0.3 0.4,0.4 0.8,0.4 0.4,0 0.8,-0.2 1.2,-0.6 0.4,-0.4 0.8,-0.9 1.1,-1.3 0.2,-0.2 0.3,-0.4 0.4,-0.4 0.1,0 0.2,0.1 0.2,0.2 0,0.2 -0.3,0.7 -1,1.5 -0.7,0.8 -1.5,1.2 -2.4,1.2 -0.6,0 -1.1,-0.2 -1.4,-0.6 -0.4,-0.4 -0.5,-0.9 -0.5,-1.5 0,-1.1 0.3,-2.2 0.9,-3.4 0.6,-1.2 1.3,-2.1 2.1,-2.7 0.8,-0.6 1.2,-0.9 1.9,-0.9 z"
         inkscape:connector-curvature="0"
         style="fill:#9a999e" /><path
         id="XMLID_117_"
         d="m 80,183.2 c 0,0.1 0,0.2 0.1,0.3 0.1,0.1 0.1,0.1 0.2,0.1 0.2,0 0.5,-0.1 0.8,-0.4 0.3,-0.2 0.7,-0.6 1,-0.9 0.1,-0.2 0.2,-0.2 0.3,-0.2 0.1,0 0.2,0.1 0.2,0.2 0,0.2 -0.3,0.6 -1,1.1 -0.7,0.5 -1.2,0.8 -1.8,0.8 -0.3,0 -0.6,-0.1 -0.8,-0.2 -0.2,-0.1 -0.3,-0.3 -0.3,-0.6 0,-0.3 0.4,-1.4 1.1,-3.3 0.9,-2.4 1.3,-3.7 1.3,-4.1 0,-0.1 0,-0.2 -0.1,-0.3 0,-0.1 -0.1,-0.1 -0.2,-0.1 -0.3,0 -0.7,0.3 -1.3,1 -0.2,0.3 -0.4,0.4 -0.5,0.4 -0.1,0 -0.1,-0.1 -0.1,-0.2 0,-0.2 0.3,-0.6 1,-1.1 0.7,-0.6 1.3,-0.8 1.8,-0.8 0.2,0 0.4,0.1 0.6,0.3 0.2,0.2 0.2,0.4 0.2,0.6 0,0.3 0,0.5 -0.1,0.7 -0.1,0.2 -0.6,1.5 -1.4,3.8 -0.7,1.7 -1,2.7 -1,2.9 z m 3,-13.5 c 0.2,0 0.4,0.1 0.5,0.2 0.1,0.2 0.2,0.4 0.2,0.6 0,0.2 -0.1,0.4 -0.2,0.6 -0.1,0.2 -0.3,0.2 -0.5,0.2 -0.2,0 -0.4,-0.1 -0.5,-0.2 -0.1,-0.2 -0.2,-0.4 -0.2,-0.6 0,-0.2 0.1,-0.4 0.2,-0.6 0.1,-0.2 0.3,-0.2 0.5,-0.2 z"
         inkscape:connector-curvature="0"
         style="fill:#9a999e" /><path
         id="XMLID_120_"
         d="m 91.5,175 c -0.2,0.4 -0.5,1.6 -1.1,3.5 l -0.8,2.9 c -0.2,0.5 -0.3,1 -0.3,1.4 0,0.2 0.1,0.4 0.3,0.4 0.1,0 0.4,-0.1 0.6,-0.3 0.3,-0.2 0.6,-0.5 0.8,-0.9 0.2,-0.2 0.3,-0.3 0.4,-0.3 0.1,0 0.2,0.1 0.2,0.2 0,0.2 -0.3,0.6 -1,1.3 -0.7,0.6 -1.3,1 -1.8,1 -0.4,0 -0.6,-0.3 -0.6,-0.8 0,-0.4 0,-0.9 0.1,-1.5 -1,1.5 -2,2.2 -3.1,2.2 -0.5,0 -0.8,-0.2 -1,-0.6 -0.2,-0.4 -0.3,-0.8 -0.3,-1.3 0,-1.4 0.6,-2.9 1.8,-4.7 1.2,-1.8 2.4,-2.6 3.4,-2.6 0.3,0 0.5,0.1 0.7,0.3 0.2,0.2 0.3,0.5 0.3,1 0.1,-0.3 0.3,-0.7 0.5,-1.3 0.2,0 0.4,0.1 0.6,0.1 0.2,-0.1 0.2,0 0.3,0 z m -2.9,0.3 c -0.4,0 -0.8,0.3 -1.3,0.9 -0.5,0.6 -1,1.5 -1.4,2.6 -0.4,1.1 -0.6,2.1 -0.6,2.8 0,0.5 0.1,0.8 0.2,1 0.1,0.2 0.4,0.3 0.6,0.3 0.7,0 1.5,-0.7 2.2,-2.2 0.7,-1.5 1.1,-2.8 1.1,-4 0,-0.4 -0.1,-0.7 -0.2,-1 -0.2,-0.2 -0.4,-0.4 -0.6,-0.4 z"
         inkscape:connector-curvature="0"
         style="fill:#9a999e" /><path
         id="XMLID_123_"
         d="m 97.9,169.4 c -0.1,0.5 -0.7,2.5 -1.6,6 l -1.8,6.5 c -0.2,0.8 -0.3,1.3 -0.3,1.5 0,0.1 0,0.2 0.1,0.2 0.2,0 0.5,-0.2 1.1,-0.7 0.5,-0.5 0.9,-0.9 1.1,-1.3 0.2,-0.3 0.3,-0.4 0.3,-0.4 0.1,0 0.2,0.1 0.2,0.2 0,0.2 -0.4,0.8 -1.1,1.6 -0.7,0.8 -1.4,1.2 -2.1,1.2 -0.2,0 -0.4,-0.1 -0.5,-0.2 -0.2,-0.2 -0.2,-0.4 -0.2,-0.7 0,-0.5 0.1,-1 0.2,-1.6 0.1,-0.6 0.7,-2.8 1.8,-6.6 0.7,-2.5 1.1,-4 1.1,-4.3 0,-0.4 -0.4,-0.6 -1.1,-0.6 -0.3,0 -0.4,-0.1 -0.4,-0.2 0,-0.1 0.1,-0.2 0.4,-0.2 z"
         inkscape:connector-curvature="0"
         style="fill:#9a999e" /><path
         id="XMLID_125_"
         d="m 99.4,183.2 c 0,0.1 0,0.2 0.1,0.3 0.1,0.1 0.1,0.1 0.2,0.1 0.2,0 0.5,-0.1 0.8,-0.4 0.3,-0.2 0.7,-0.6 1,-0.9 0.1,-0.2 0.2,-0.2 0.3,-0.2 0.1,0 0.2,0.1 0.2,0.2 0,0.2 -0.3,0.6 -1,1.1 -0.7,0.5 -1.2,0.8 -1.8,0.8 -0.3,0 -0.6,-0.1 -0.8,-0.2 -0.2,-0.1 -0.3,-0.3 -0.3,-0.6 0,-0.3 0.4,-1.4 1.1,-3.3 0.9,-2.4 1.3,-3.7 1.3,-4.1 0,-0.1 0,-0.2 -0.1,-0.3 0,-0.1 -0.1,-0.1 -0.2,-0.1 -0.3,0 -0.7,0.3 -1.3,1 -0.2,0.3 -0.4,0.4 -0.5,0.4 -0.1,0 -0.1,-0.1 -0.1,-0.2 0,-0.2 0.3,-0.6 1,-1.1 0.7,-0.6 1.3,-0.8 1.8,-0.8 0.2,0 0.4,0.1 0.6,0.3 0.2,0.2 0.2,0.4 0.2,0.6 0,0.3 0,0.5 -0.1,0.7 -0.1,0.2 -0.6,1.5 -1.4,3.8 -0.7,1.7 -1,2.7 -1,2.9 z m 3,-13.5 c 0.2,0 0.4,0.1 0.5,0.2 0.1,0.2 0.2,0.4 0.2,0.6 0,0.2 -0.1,0.4 -0.2,0.6 -0.1,0.2 -0.3,0.2 -0.5,0.2 -0.2,0 -0.4,-0.1 -0.5,-0.2 -0.1,-0.2 -0.2,-0.4 -0.2,-0.6 0,-0.2 0.1,-0.4 0.2,-0.6 0.1,-0.2 0.3,-0.2 0.5,-0.2 z"
         inkscape:connector-curvature="0"
         style="fill:#9a999e" /><path
         id="XMLID_128_"
         d="m 107.7,181 c 0,0.8 -0.3,1.5 -0.8,2.1 -0.5,0.6 -1.2,0.9 -1.9,0.9 -0.6,0 -1.1,-0.2 -1.5,-0.6 -0.4,-0.4 -0.5,-0.7 -0.5,-1 0,-0.2 0.1,-0.4 0.2,-0.6 0.1,-0.2 0.3,-0.3 0.5,-0.3 0.2,0 0.4,0.1 0.5,0.2 0.1,0.1 0.2,0.3 0.2,0.5 0,0.1 0,0.2 -0.1,0.4 -0.1,0.2 -0.1,0.3 -0.1,0.4 0,0.2 0.1,0.3 0.2,0.4 0.1,0.1 0.4,0.1 0.6,0.1 0.5,0 0.8,-0.1 1.1,-0.4 0.3,-0.3 0.4,-0.7 0.4,-1.1 0,-0.4 -0.2,-1 -0.7,-1.7 -0.8,-1.2 -1.2,-2.2 -1.2,-2.9 0,-0.7 0.2,-1.3 0.7,-1.8 0.4,-0.6 1,-0.8 1.6,-0.8 0.5,0 0.9,0.1 1.2,0.4 0.4,0.3 0.5,0.6 0.5,0.9 0,0.2 -0.1,0.4 -0.2,0.6 -0.1,0.2 -0.3,0.2 -0.5,0.2 -0.4,0 -0.5,-0.2 -0.5,-0.6 v -0.6 c 0,-0.2 -0.1,-0.3 -0.2,-0.4 -0.2,-0.1 -0.3,-0.2 -0.5,-0.2 -0.3,0 -0.5,0.1 -0.8,0.3 -0.2,0.2 -0.4,0.5 -0.4,0.9 0,0.4 0.4,1.1 1.1,2.1 0.7,1.2 1.1,2 1.1,2.6 z"
         inkscape:connector-curvature="0"
         style="fill:#9a999e" /><path
         id="XMLID_130_"
         d="m 112.8,175.5 c -0.1,0.2 -0.2,0.8 -0.5,1.7 -0.9,2.9 -1.4,4.7 -1.4,5.4 0,0.4 0.1,0.6 0.4,0.6 0.5,0 1.2,-0.6 2.1,-1.8 0.1,-0.2 0.2,-0.2 0.3,-0.2 0.1,0 0.2,0 0.2,0.1 0,0.2 -0.4,0.7 -1.2,1.5 -0.8,0.8 -1.6,1.2 -2.4,1.2 -0.3,0 -0.5,-0.1 -0.7,-0.3 -0.2,-0.2 -0.2,-0.4 -0.2,-0.6 0,-0.5 0.1,-1.1 0.4,-1.9 0,-0.1 0.6,-2 1.7,-5.7 h -0.9 -0.6 c -0.1,0 -0.1,0 -0.1,-0.1 0,-0.2 0,-0.3 0.1,-0.4 0,0 0.2,-0.1 0.5,-0.1 0.3,0 0.7,0 1.3,0 0.2,-0.6 0.4,-1.2 0.6,-2 l 0.4,-1.2 c 0,-0.1 0.1,-0.1 0.1,-0.1 0.2,0 0.5,0 0.7,0.1 0.2,0.1 0.3,0.1 0.3,0.2 v 0.1 l -0.9,2.9 h 1.2 c 0.4,0 0.6,0 0.6,0 0,0 0,0 0,0.1 0,0.3 0,0.5 -0.1,0.5 l -0.7,-0.1 z"
         inkscape:connector-curvature="0"
         style="fill:#9a999e" /><path
         id="XMLID_132_"
         d="m 122.4,175 c -0.2,0.4 -0.5,1.6 -1.1,3.5 l -0.8,2.9 c -0.2,0.5 -0.3,1 -0.3,1.4 0,0.2 0.1,0.4 0.3,0.4 0.1,0 0.4,-0.1 0.6,-0.3 0.3,-0.2 0.6,-0.5 0.8,-0.9 0.2,-0.2 0.3,-0.3 0.4,-0.3 0.1,0 0.2,0.1 0.2,0.2 0,0.2 -0.3,0.6 -1,1.3 -0.7,0.6 -1.3,1 -1.8,1 -0.4,0 -0.6,-0.3 -0.6,-0.8 0,-0.4 0,-0.9 0.1,-1.5 -1,1.5 -2,2.2 -3.1,2.2 -0.5,0 -0.8,-0.2 -1,-0.6 -0.2,-0.4 -0.3,-0.8 -0.3,-1.3 0,-1.4 0.6,-2.9 1.8,-4.7 1.2,-1.8 2.4,-2.6 3.4,-2.6 0.3,0 0.5,0.1 0.7,0.3 0.2,0.2 0.3,0.5 0.3,1 0.1,-0.3 0.3,-0.7 0.5,-1.3 0.2,0 0.4,0.1 0.6,0.1 0.2,-0.1 0.3,0 0.3,0 z m -2.9,0.3 c -0.4,0 -0.8,0.3 -1.3,0.9 -0.5,0.6 -1,1.5 -1.4,2.6 -0.4,1.1 -0.6,2.1 -0.6,2.8 0,0.5 0.1,0.8 0.2,1 0.1,0.2 0.4,0.3 0.6,0.3 0.7,0 1.5,-0.7 2.2,-2.2 0.7,-1.5 1.1,-2.8 1.1,-4 0,-0.4 -0.1,-0.7 -0.2,-1 -0.1,-0.2 -0.3,-0.4 -0.6,-0.4 z"
         inkscape:connector-curvature="0"
         style="fill:#9a999e" /><path
         id="XMLID_135_"
         d="m 128.1,181 c 0,0.8 -0.3,1.5 -0.8,2.1 -0.5,0.6 -1.2,0.9 -1.9,0.9 -0.6,0 -1.1,-0.2 -1.5,-0.6 -0.4,-0.4 -0.5,-0.7 -0.5,-1 0,-0.2 0.1,-0.4 0.2,-0.6 0.1,-0.2 0.3,-0.3 0.5,-0.3 0.2,0 0.4,0.1 0.5,0.2 0.1,0.1 0.2,0.3 0.2,0.5 0,0.1 0,0.2 -0.1,0.4 -0.1,0.2 -0.1,0.3 -0.1,0.4 0,0.2 0.1,0.3 0.2,0.4 0.1,0.1 0.4,0.1 0.6,0.1 0.5,0 0.8,-0.1 1.1,-0.4 0.3,-0.3 0.4,-0.7 0.4,-1.1 0,-0.4 -0.2,-1 -0.7,-1.7 -0.8,-1.2 -1.2,-2.2 -1.2,-2.9 0,-0.7 0.2,-1.3 0.7,-1.8 0.4,-0.6 1,-0.8 1.6,-0.8 0.5,0 0.9,0.1 1.2,0.4 0.4,0.3 0.5,0.6 0.5,0.9 0,0.2 -0.1,0.4 -0.2,0.6 -0.1,0.2 -0.3,0.2 -0.5,0.2 -0.4,0 -0.5,-0.2 -0.5,-0.6 v -0.6 c 0,-0.2 -0.1,-0.3 -0.2,-0.4 -0.2,-0.1 -0.3,-0.2 -0.5,-0.2 -0.3,0 -0.5,0.1 -0.8,0.3 -0.2,0.2 -0.4,0.5 -0.4,0.9 0,0.4 0.4,1.1 1.1,2.1 0.7,1.2 1.1,2 1.1,2.6 z"
         inkscape:connector-curvature="0"
         style="fill:#9a999e" /><path
         id="XMLID_137_"
         d="m 136.1,180.1 c -0.2,1 -0.3,1.7 -0.3,2.2 0,0.3 0.1,0.6 0.2,0.8 0.2,0.2 0.4,0.4 0.6,0.4 0.4,0 0.8,-0.2 1.2,-0.5 0.4,-0.3 0.8,-0.8 1.1,-1.3 0.1,-0.2 0.3,-0.4 0.4,-0.4 0.1,0 0.2,0.1 0.2,0.2 0,0.4 -0.3,0.9 -1,1.5 -0.7,0.7 -1.4,1 -2.2,1 -0.6,0 -1,-0.2 -1.4,-0.7 -0.3,-0.5 -0.5,-1 -0.5,-1.6 0,-1.3 0.5,-2.8 1.6,-4.5 1.1,-1.7 2.2,-2.4 3.2,-2.4 0.4,0 0.7,0.1 0.9,0.4 0.2,0.3 0.4,0.6 0.4,1 0,0.7 -0.3,1.4 -1,2.1 -0.7,0.7 -1.8,1.3 -3.4,1.8 z m 0.1,-0.5 c 1,-0.5 1.8,-1.1 2.4,-1.8 0.6,-0.7 1,-1.4 1,-2 0,-0.1 0,-0.3 -0.1,-0.4 -0.1,-0.1 -0.2,-0.2 -0.4,-0.2 -0.4,0 -0.9,0.3 -1.4,0.9 -0.5,0.6 -1.1,1.8 -1.5,3.5 z"
         inkscape:connector-curvature="0"
         style="fill:#9a999e" /><path
         id="XMLID_140_"
         d="m 144.4,178.5 c 0.7,-1.2 1.3,-2.2 1.9,-2.8 0.6,-0.6 1.1,-0.9 1.6,-0.9 0.3,0 0.5,0.1 0.7,0.4 0.2,0.2 0.2,0.5 0.2,0.8 0,0.4 -0.1,0.8 -0.2,1.2 -0.1,0.4 -0.4,1.3 -0.8,2.6 -0.6,1.7 -0.8,2.8 -0.8,3.1 0,0.2 0.1,0.3 0.3,0.3 0.2,0 0.4,-0.2 0.8,-0.5 0.4,-0.3 0.6,-0.6 0.8,-0.9 0.2,-0.3 0.3,-0.5 0.4,-0.5 0.1,0 0.2,0.1 0.2,0.2 0,0.3 -0.3,0.8 -1,1.5 -0.6,0.7 -1.3,1 -1.9,1 -0.6,0 -0.9,-0.3 -0.9,-0.8 0,-0.6 0.5,-2.2 1.4,-4.9 0.4,-1 0.5,-1.8 0.5,-2.3 0,-0.2 0,-0.3 -0.1,-0.4 -0.1,-0.1 -0.1,-0.1 -0.3,-0.1 -0.2,0 -0.5,0.3 -1.1,0.8 -0.6,0.5 -1.1,1.5 -1.8,2.9 -0.7,1.4 -1.2,2.6 -1.6,3.8 -0.3,0.7 -0.4,1.1 -0.5,1.1 -0.6,0 -0.9,-0.1 -0.9,-0.3 v -0.1 l 1.6,-5.2 c 0.4,-1.3 0.6,-2.1 0.6,-2.6 0,-0.2 -0.1,-0.3 -0.3,-0.3 -0.2,0 -0.4,0.2 -0.8,0.5 -0.4,0.3 -0.6,0.7 -0.8,1 -0.2,0.2 -0.3,0.4 -0.4,0.4 -0.1,0 -0.1,-0.1 -0.1,-0.2 0,-0.2 0.3,-0.7 1,-1.4 0.7,-0.7 1.3,-1.1 2,-1.1 0.2,0 0.4,0.1 0.5,0.2 0.1,0.2 0.2,0.3 0.2,0.5 0,0.3 -0.1,1.3 -0.4,3 z"
         inkscape:connector-curvature="0"
         style="fill:#9a999e" /><path
         id="XMLID_142_"
         d="m 164.8,169.6 c -0.2,0.7 -0.6,2.1 -1.3,4.4 -1.5,5 -2.3,7.9 -2.3,8.6 0,0.1 0,0.2 0.1,0.3 0.1,0.1 0.1,0.1 0.2,0.1 0.4,0 1,-0.5 1.8,-1.6 0.1,-0.2 0.2,-0.2 0.2,-0.2 0,0 0.1,0 0.1,0.1 0,0.1 0.1,0.1 0.1,0.1 0,0.1 -0.2,0.3 -0.5,0.8 -0.4,0.5 -0.8,0.9 -1.2,1.2 -0.4,0.3 -0.8,0.5 -1.1,0.5 -0.2,0 -0.4,-0.1 -0.6,-0.4 -0.2,-0.3 -0.3,-0.6 -0.3,-1 0,-0.2 0,-0.5 0,-0.8 -1.1,1.5 -2.1,2.2 -3.1,2.2 -0.6,0 -1,-0.2 -1.3,-0.5 -0.3,-0.3 -0.4,-0.9 -0.4,-1.5 0,-1.5 0.6,-3 1.7,-4.5 1.1,-1.5 2.3,-2.2 3.6,-2.2 0.2,0 0.4,0 0.6,0.1 0.2,0 0.4,0.1 0.7,0.2 l 1.2,-3.9 c 0.1,-0.4 0.2,-0.7 0.2,-1 0,-0.2 -0.1,-0.3 -0.3,-0.4 -0.2,-0.1 -0.5,-0.2 -1,-0.3 -0.1,0 -0.2,-0.1 -0.2,-0.2 0,-0.1 0.1,-0.2 0.2,-0.2 0.1,0 0.3,0 0.5,0 0.5,0.1 1.4,0.1 2.4,0.1 z m -4.5,6.1 c -0.7,0 -1.5,0.7 -2.4,2 -0.9,1.3 -1.3,2.6 -1.3,3.9 0,0.5 0.1,0.9 0.2,1.2 0.2,0.4 0.4,0.5 0.6,0.5 0.4,0 0.9,-0.3 1.5,-1 0.6,-0.7 1.2,-1.6 1.6,-2.7 0.5,-1.2 0.7,-2.1 0.7,-2.9 0,-0.3 -0.1,-0.5 -0.2,-0.7 -0.2,-0.2 -0.4,-0.3 -0.7,-0.3 z"
         inkscape:connector-curvature="0"
         style="fill:#9a999e" /><path
         id="XMLID_145_"
         d="m 166.1,180.1 c -0.2,1 -0.3,1.7 -0.3,2.2 0,0.3 0.1,0.6 0.2,0.8 0.2,0.2 0.4,0.4 0.6,0.4 0.4,0 0.8,-0.2 1.2,-0.5 0.4,-0.3 0.8,-0.8 1.1,-1.3 0.1,-0.2 0.3,-0.4 0.4,-0.4 0.1,0 0.2,0.1 0.2,0.2 0,0.4 -0.3,0.9 -1,1.5 -0.7,0.7 -1.4,1 -2.2,1 -0.6,0 -1,-0.2 -1.4,-0.7 -0.3,-0.5 -0.5,-1 -0.5,-1.6 0,-1.3 0.5,-2.8 1.6,-4.5 1.1,-1.7 2.2,-2.4 3.2,-2.4 0.4,0 0.7,0.1 0.9,0.4 0.2,0.3 0.4,0.6 0.4,1 0,0.7 -0.3,1.4 -1,2.1 -0.7,0.7 -1.8,1.3 -3.4,1.8 z m 0.1,-0.5 c 1,-0.5 1.8,-1.1 2.4,-1.8 0.6,-0.7 1,-1.4 1,-2 0,-0.1 0,-0.3 -0.1,-0.4 -0.1,-0.1 -0.2,-0.2 -0.4,-0.2 -0.4,0 -0.9,0.3 -1.4,0.9 -0.5,0.6 -1,1.8 -1.5,3.5 z"
         inkscape:connector-curvature="0"
         style="fill:#9a999e" /><path
         id="XMLID_148_"
         d="m 174.5,177.8 c 0.5,-1 1,-1.7 1.5,-2.2 0.5,-0.5 0.9,-0.7 1.3,-0.7 0.3,0 0.5,0.1 0.7,0.3 0.2,0.2 0.3,0.4 0.3,0.7 0,0.3 -0.1,0.5 -0.2,0.7 -0.1,0.2 -0.3,0.3 -0.6,0.3 -0.4,0 -0.7,-0.2 -0.8,-0.6 -0.1,-0.3 -0.1,-0.4 -0.3,-0.4 -0.2,0 -0.5,0.3 -1,1 -0.5,0.7 -0.9,1.6 -1.4,2.6 l -1.3,4.6 h -0.5 -0.5 -0.1 c 0,-0.2 0.2,-0.8 0.6,-2 0.9,-3.8 1.4,-5.9 1.4,-6.3 0,-0.1 0,-0.2 -0.1,-0.2 -0.1,0 -0.3,0.2 -0.7,0.5 -0.3,0.4 -0.6,0.7 -0.9,1.1 -0.2,0.3 -0.3,0.5 -0.5,0.5 -0.2,0 -0.2,-0.1 -0.2,-0.2 0,-0.2 0.3,-0.7 1,-1.5 0.7,-0.8 1.2,-1.2 1.7,-1.2 0.3,0 0.5,0.1 0.6,0.3 0.1,0.2 0.2,0.4 0.2,0.5 0,0.2 0,0.6 -0.1,1 0,0.2 -0.1,0.6 -0.1,1.2 z"
         inkscape:connector-curvature="0"
         style="fill:#9a999e" /><path
         id="XMLID_150_"
         d="m 179.7,180.1 c -0.2,1 -0.3,1.7 -0.3,2.2 0,0.3 0.1,0.6 0.2,0.8 0.2,0.2 0.4,0.4 0.6,0.4 0.4,0 0.8,-0.2 1.2,-0.5 0.4,-0.3 0.8,-0.8 1.1,-1.3 0.1,-0.2 0.3,-0.4 0.4,-0.4 0.1,0 0.2,0.1 0.2,0.2 0,0.4 -0.3,0.9 -1,1.5 -0.7,0.7 -1.4,1 -2.2,1 -0.6,0 -1,-0.2 -1.4,-0.7 -0.3,-0.5 -0.5,-1 -0.5,-1.6 0,-1.3 0.5,-2.8 1.6,-4.5 1.1,-1.7 2.2,-2.4 3.2,-2.4 0.4,0 0.7,0.1 0.9,0.4 0.2,0.3 0.4,0.6 0.4,1 0,0.7 -0.3,1.4 -1,2.1 -0.7,0.7 -1.9,1.3 -3.4,1.8 z m 0.1,-0.5 c 1,-0.5 1.8,-1.1 2.4,-1.8 0.6,-0.7 1,-1.4 1,-2 0,-0.1 0,-0.3 -0.1,-0.4 -0.1,-0.1 -0.2,-0.2 -0.4,-0.2 -0.4,0 -0.9,0.3 -1.4,0.9 -0.5,0.6 -1.1,1.8 -1.5,3.5 z"
         inkscape:connector-curvature="0"
         style="fill:#9a999e" /><path
         id="XMLID_153_"
         d="m 189.6,174.8 c 0.3,0 0.6,0.1 0.9,0.4 0.3,0.3 0.4,0.6 0.4,0.9 0,0.3 -0.1,0.4 -0.2,0.6 -0.1,0.1 -0.3,0.2 -0.4,0.2 -0.2,0 -0.3,-0.1 -0.4,-0.2 -0.1,-0.1 -0.2,-0.3 -0.3,-0.7 -0.1,-0.3 -0.2,-0.5 -0.2,-0.6 -0.1,-0.1 -0.2,-0.1 -0.3,-0.1 -0.4,0 -0.8,0.3 -1.3,0.9 -0.5,0.6 -0.9,1.5 -1.3,2.6 -0.3,1.1 -0.5,2 -0.5,2.8 0,0.6 0.1,1 0.3,1.3 0.2,0.3 0.4,0.4 0.8,0.4 0.4,0 0.8,-0.2 1.2,-0.6 0.4,-0.4 0.8,-0.9 1.1,-1.3 0.2,-0.2 0.3,-0.4 0.4,-0.4 0.1,0 0.2,0.1 0.2,0.2 0,0.2 -0.3,0.7 -1,1.5 -0.7,0.8 -1.5,1.2 -2.4,1.2 -0.6,0 -1.1,-0.2 -1.4,-0.6 -0.4,-0.4 -0.5,-0.9 -0.5,-1.5 0,-1.1 0.3,-2.2 0.9,-3.4 0.6,-1.2 1.3,-2.1 2.1,-2.7 0.8,-0.6 1.3,-0.9 1.9,-0.9 z"
         inkscape:connector-curvature="0"
         style="fill:#9a999e" /><path
         id="XMLID_155_"
         d="m 193.6,178.1 c 0.9,-1.3 1.7,-2.2 2.2,-2.7 0.5,-0.5 1,-0.8 1.4,-0.8 0.3,0 0.6,0.1 0.8,0.3 0.2,0.2 0.3,0.5 0.3,0.8 0,0.6 -0.3,1.9 -0.9,3.8 -0.6,1.8 -0.9,2.9 -0.9,3.3 0,0.2 0.1,0.3 0.3,0.3 0.2,0 0.4,-0.2 0.8,-0.5 0.4,-0.4 0.7,-0.8 1,-1.2 0.1,-0.1 0.2,-0.2 0.3,-0.2 0.1,0 0.2,0.1 0.2,0.2 0,0.2 -0.3,0.7 -1,1.4 -0.7,0.7 -1.3,1.1 -1.9,1.1 -0.6,0 -0.9,-0.3 -0.9,-0.8 0,-0.4 0.1,-0.8 0.3,-1.3 0.3,-0.9 0.7,-2 1,-3.3 0.4,-1.3 0.6,-2.2 0.6,-2.6 0,-0.2 0,-0.3 -0.1,-0.4 -0.1,-0.1 -0.1,-0.1 -0.2,-0.1 -0.3,0 -0.8,0.3 -1.4,0.9 -0.6,0.6 -1.2,1.3 -1.6,2.2 -0.4,0.8 -0.8,2 -1.3,3.5 -0.3,0.9 -0.4,1.5 -0.5,1.6 -0.1,0.1 -0.1,0.2 -0.2,0.2 -0.2,0 -0.4,0 -0.7,-0.1 -0.3,-0.1 -0.4,-0.1 -0.4,-0.2 0,-0.1 0,-0.2 0,-0.2 0.1,-0.2 0.5,-1.8 1.4,-4.8 l 1.3,-4.7 0.7,-2.7 c 0.1,-0.3 0.1,-0.5 0.1,-0.7 0,-0.2 -0.3,-0.4 -1,-0.6 -0.2,0 -0.4,-0.1 -0.4,-0.3 0,-0.2 0.1,-0.2 0.4,-0.2 h 1.6 c 0.5,0 0.8,0 0.9,0 0,0 0.1,0.1 0.1,0.1 v 0.1 c 0,0 0,0.1 -0.1,0.2 -0.1,1.2 -0.9,3.9 -2.2,8.4 z"
         inkscape:connector-curvature="0"
         style="fill:#9a999e" /><path
         id="XMLID_157_"
         d="m 204.1,174.8 c 0.8,0 1.5,0.4 2,1.1 0.5,0.7 0.7,1.6 0.7,2.5 0,1.4 -0.4,2.6 -1.3,3.8 -0.9,1.2 -1.9,1.8 -3.1,1.8 -0.9,0 -1.5,-0.4 -1.9,-1.1 -0.4,-0.7 -0.6,-1.5 -0.6,-2.3 0,-1 0.2,-2.1 0.7,-3 0.5,-1 1.1,-1.7 1.7,-2.1 0.7,-0.4 1.2,-0.7 1.8,-0.7 z m 0.2,0.5 c -0.4,0 -0.7,0.2 -1.2,0.7 -0.4,0.5 -0.8,1.3 -1.3,2.5 -0.4,1.2 -0.6,2.3 -0.6,3.3 0,0.5 0.1,0.9 0.3,1.3 0.2,0.4 0.5,0.5 0.8,0.5 0.4,0 0.8,-0.3 1.3,-0.8 0.5,-0.5 0.9,-1.3 1.3,-2.4 0.4,-1.1 0.6,-2.1 0.6,-3.1 0,-0.7 -0.1,-1.1 -0.3,-1.5 -0.2,-0.4 -0.5,-0.5 -0.9,-0.5 z"
         inkscape:connector-curvature="0"
         style="fill:#9a999e" /><path
         id="XMLID_160_"
         d="m 217.6,174.8 c 0.3,0 0.6,0.1 0.9,0.4 0.3,0.3 0.4,0.6 0.4,0.9 0,0.3 -0.1,0.4 -0.2,0.6 -0.1,0.1 -0.3,0.2 -0.4,0.2 -0.2,0 -0.3,-0.1 -0.4,-0.2 -0.1,-0.1 -0.2,-0.3 -0.3,-0.7 -0.1,-0.3 -0.2,-0.5 -0.2,-0.6 -0.1,-0.1 -0.2,-0.1 -0.3,-0.1 -0.4,0 -0.8,0.3 -1.3,0.9 -0.5,0.6 -0.9,1.5 -1.3,2.6 -0.3,1.1 -0.5,2 -0.5,2.8 0,0.6 0.1,1 0.3,1.3 0.2,0.3 0.4,0.4 0.8,0.4 0.4,0 0.8,-0.2 1.2,-0.6 0.4,-0.4 0.8,-0.9 1.1,-1.3 0.2,-0.2 0.3,-0.4 0.4,-0.4 0.1,0 0.2,0.1 0.2,0.2 0,0.2 -0.3,0.7 -1,1.5 -0.7,0.8 -1.5,1.2 -2.4,1.2 -0.6,0 -1.1,-0.2 -1.4,-0.6 -0.4,-0.4 -0.5,-0.9 -0.5,-1.5 0,-1.1 0.3,-2.2 0.9,-3.4 0.6,-1.2 1.3,-2.1 2.1,-2.7 0.8,-0.6 1.2,-0.9 1.9,-0.9 z"
         inkscape:connector-curvature="0"
         style="fill:#9a999e" /><path
         id="XMLID_162_"
         d="m 223.4,174.8 c 0.8,0 1.5,0.4 2,1.1 0.5,0.7 0.7,1.6 0.7,2.5 0,1.4 -0.4,2.6 -1.3,3.8 -0.9,1.2 -1.9,1.8 -3.1,1.8 -0.9,0 -1.5,-0.4 -1.9,-1.1 -0.4,-0.7 -0.6,-1.5 -0.6,-2.3 0,-1 0.2,-2.1 0.7,-3 0.5,-1 1.1,-1.7 1.7,-2.1 0.7,-0.4 1.3,-0.7 1.8,-0.7 z m 0.2,0.5 c -0.4,0 -0.7,0.2 -1.2,0.7 -0.4,0.5 -0.8,1.3 -1.3,2.5 -0.4,1.2 -0.6,2.3 -0.6,3.3 0,0.5 0.1,0.9 0.3,1.3 0.2,0.4 0.5,0.5 0.8,0.5 0.4,0 0.8,-0.3 1.3,-0.8 0.5,-0.5 0.9,-1.3 1.3,-2.4 0.4,-1.1 0.6,-2.1 0.6,-3.1 0,-0.7 -0.1,-1.1 -0.3,-1.5 -0.2,-0.4 -0.5,-0.5 -0.9,-0.5 z"
         inkscape:connector-curvature="0"
         style="fill:#9a999e" /><path
         id="XMLID_165_"
         d="m 230.4,178.5 c 0.7,-1.2 1.3,-2.2 1.9,-2.8 0.6,-0.6 1.1,-0.9 1.6,-0.9 0.3,0 0.5,0.1 0.7,0.4 0.2,0.2 0.2,0.5 0.2,0.8 0,0.4 -0.1,0.8 -0.2,1.2 -0.1,0.4 -0.4,1.3 -0.8,2.6 -0.6,1.7 -0.8,2.8 -0.8,3.1 0,0.2 0.1,0.3 0.3,0.3 0.2,0 0.4,-0.2 0.8,-0.5 0.4,-0.3 0.6,-0.6 0.8,-0.9 0.2,-0.3 0.3,-0.5 0.4,-0.5 0.1,0 0.2,0.1 0.2,0.2 0,0.3 -0.3,0.8 -1,1.5 -0.6,0.7 -1.3,1 -1.9,1 -0.6,0 -0.9,-0.3 -0.9,-0.8 0,-0.6 0.5,-2.2 1.4,-4.9 0.4,-1 0.5,-1.8 0.5,-2.3 0,-0.2 0,-0.3 -0.1,-0.4 -0.1,-0.1 -0.1,-0.1 -0.3,-0.1 -0.2,0 -0.5,0.3 -1.1,0.8 -0.6,0.5 -1.1,1.5 -1.8,2.9 -0.7,1.4 -1.2,2.6 -1.6,3.8 -0.3,0.7 -0.4,1.1 -0.5,1.1 -0.6,0 -0.9,-0.1 -0.9,-0.3 v -0.1 l 1.6,-5.2 c 0.4,-1.3 0.6,-2.1 0.6,-2.6 0,-0.2 -0.1,-0.3 -0.3,-0.3 -0.2,0 -0.4,0.2 -0.8,0.5 -0.4,0.3 -0.6,0.7 -0.8,1 -0.2,0.2 -0.3,0.4 -0.4,0.4 -0.1,0 -0.1,-0.1 -0.1,-0.2 0,-0.2 0.3,-0.7 1,-1.4 0.7,-0.7 1.3,-1.1 2,-1.1 0.2,0 0.4,0.1 0.5,0.2 0.1,0.2 0.2,0.3 0.2,0.5 0.1,0.3 0,1.3 -0.4,3 z"
         inkscape:connector-curvature="0"
         style="fill:#9a999e" /><path
         id="XMLID_167_"
         d="m 241,181 c 0,0.8 -0.3,1.5 -0.8,2.1 -0.5,0.6 -1.2,0.9 -1.9,0.9 -0.6,0 -1.1,-0.2 -1.5,-0.6 -0.4,-0.4 -0.5,-0.7 -0.5,-1 0,-0.2 0.1,-0.4 0.2,-0.6 0.1,-0.2 0.3,-0.3 0.5,-0.3 0.2,0 0.4,0.1 0.5,0.2 0.1,0.1 0.2,0.3 0.2,0.5 0,0.1 0,0.2 -0.1,0.4 -0.1,0.2 -0.1,0.3 -0.1,0.4 0,0.2 0.1,0.3 0.2,0.4 0.1,0.1 0.4,0.1 0.6,0.1 0.5,0 0.8,-0.1 1.1,-0.4 0.3,-0.3 0.4,-0.7 0.4,-1.1 0,-0.4 -0.2,-1 -0.7,-1.7 -0.8,-1.2 -1.2,-2.2 -1.2,-2.9 0,-0.7 0.2,-1.3 0.7,-1.8 0.5,-0.5 1,-0.8 1.6,-0.8 0.5,0 0.9,0.1 1.2,0.4 0.4,0.3 0.5,0.6 0.5,0.9 0,0.2 -0.1,0.4 -0.2,0.6 -0.1,0.2 -0.3,0.2 -0.5,0.2 -0.4,0 -0.5,-0.2 -0.5,-0.6 v -0.6 c 0,-0.2 -0.1,-0.3 -0.2,-0.4 -0.2,-0.1 -0.3,-0.2 -0.5,-0.2 -0.3,0 -0.5,0.1 -0.8,0.3 -0.2,0.2 -0.4,0.5 -0.4,0.9 0,0.4 0.4,1.1 1.1,2.1 0.7,1.2 1.1,2 1.1,2.6 z"
         inkscape:connector-curvature="0"
         style="fill:#9a999e" /><path
         id="XMLID_169_"
         d="m 246.1,175.5 c -0.1,0.2 -0.2,0.8 -0.5,1.7 -0.9,2.9 -1.4,4.7 -1.4,5.4 0,0.4 0.1,0.6 0.4,0.6 0.5,0 1.2,-0.6 2.1,-1.8 0.1,-0.2 0.2,-0.2 0.3,-0.2 0.1,0 0.2,0 0.2,0.1 0,0.2 -0.4,0.7 -1.2,1.5 -0.8,0.8 -1.6,1.2 -2.4,1.2 -0.3,0 -0.5,-0.1 -0.7,-0.3 -0.2,-0.2 -0.2,-0.4 -0.2,-0.6 0,-0.5 0.1,-1.1 0.4,-1.9 0,-0.1 0.6,-2 1.7,-5.7 h -0.9 -0.6 c -0.1,0 -0.1,0 -0.1,-0.1 0,-0.2 0,-0.3 0.1,-0.4 0,0 0.2,-0.1 0.5,-0.1 0.3,0 0.7,0 1.3,0 0.2,-0.6 0.4,-1.2 0.6,-2 l 0.4,-1.2 c 0,-0.1 0.1,-0.1 0.1,-0.1 0.2,0 0.5,0 0.7,0.1 0.2,0.1 0.3,0.1 0.3,0.2 v 0.1 l -0.9,2.9 h 1.2 c 0.4,0 0.6,0 0.6,0 0,0 0,0 0,0.1 0,0.3 0,0.5 -0.1,0.5 l -0.7,-0.1 z"
         inkscape:connector-curvature="0"
         style="fill:#9a999e" /><path
         id="XMLID_171_"
         d="m 249.6,183.2 c 0,0.1 0,0.2 0.1,0.3 0,0.1 0.1,0.1 0.2,0.1 0.2,0 0.5,-0.1 0.8,-0.4 0.3,-0.2 0.7,-0.6 1,-0.9 0.1,-0.2 0.2,-0.2 0.3,-0.2 0.1,0 0.2,0.1 0.2,0.2 0,0.2 -0.3,0.6 -1,1.1 -0.7,0.5 -1.2,0.8 -1.8,0.8 -0.3,0 -0.6,-0.1 -0.8,-0.2 -0.2,-0.2 -0.3,-0.3 -0.3,-0.6 0,-0.3 0.4,-1.4 1.1,-3.3 0.9,-2.4 1.3,-3.7 1.3,-4.1 0,-0.1 0,-0.2 -0.1,-0.3 0,-0.1 -0.1,-0.1 -0.2,-0.1 -0.3,0 -0.7,0.3 -1.3,1 -0.2,0.3 -0.4,0.4 -0.5,0.4 -0.1,0 -0.1,-0.1 -0.1,-0.2 0,-0.2 0.3,-0.6 1,-1.1 0.7,-0.6 1.3,-0.8 1.8,-0.8 0.2,0 0.4,0.1 0.6,0.3 0.2,0.2 0.2,0.4 0.2,0.6 0,0.3 0,0.5 -0.1,0.7 -0.1,0.2 -0.6,1.5 -1.4,3.8 -0.6,1.7 -1,2.7 -1,2.9 z m 3.1,-13.5 c 0.2,0 0.4,0.1 0.5,0.2 0.1,0.2 0.2,0.4 0.2,0.6 0,0.2 -0.1,0.4 -0.2,0.6 -0.1,0.2 -0.3,0.2 -0.5,0.2 -0.2,0 -0.4,-0.1 -0.5,-0.2 -0.1,-0.2 -0.2,-0.4 -0.2,-0.6 0,-0.2 0.1,-0.4 0.2,-0.6 0.1,-0.2 0.3,-0.2 0.5,-0.2 z"
         inkscape:connector-curvature="0"
         style="fill:#9a999e" /><path
         id="XMLID_174_"
         d="m 257,175.5 c -0.1,0.2 -0.2,0.8 -0.5,1.7 -0.9,2.9 -1.4,4.7 -1.4,5.4 0,0.4 0.1,0.6 0.4,0.6 0.5,0 1.2,-0.6 2.1,-1.8 0.1,-0.2 0.2,-0.2 0.3,-0.2 0.1,0 0.2,0 0.2,0.1 0,0.2 -0.4,0.7 -1.2,1.5 -0.8,0.8 -1.6,1.2 -2.4,1.2 -0.3,0 -0.5,-0.1 -0.7,-0.3 -0.2,-0.2 -0.2,-0.4 -0.2,-0.6 0,-0.5 0.1,-1.1 0.4,-1.9 0,-0.1 0.6,-2 1.7,-5.7 h -0.9 -0.6 c -0.1,0 -0.1,0 -0.1,-0.1 0,-0.2 0,-0.3 0.1,-0.4 0,0 0.2,-0.1 0.5,-0.1 0.3,0 0.7,0 1.3,0 0.2,-0.6 0.4,-1.2 0.6,-2 l 0.4,-1.2 c 0,-0.1 0.1,-0.1 0.1,-0.1 0.2,0 0.5,0 0.7,0.1 0.2,0.1 0.3,0.1 0.3,0.2 v 0.1 l -0.9,2.9 h 1.2 c 0.4,0 0.6,0 0.6,0 0,0 0,0 0,0.1 0,0.3 0,0.5 -0.1,0.5 l -0.7,-0.1 z"
         inkscape:connector-curvature="0"
         style="fill:#9a999e" /><path
         id="XMLID_176_"
         d="m 267,175 c -0.1,0.4 -0.3,1 -0.6,2 -1.1,3.2 -1.6,5.2 -1.6,5.9 0,0.1 0,0.2 0.1,0.2 0.1,0 0.1,0.1 0.2,0.1 0.2,0 0.5,-0.2 0.8,-0.6 0.3,-0.4 0.6,-0.7 0.8,-1.1 0.1,-0.3 0.3,-0.4 0.4,-0.4 0.1,0 0.2,0.1 0.2,0.2 0,0.3 -0.3,0.8 -1,1.6 -0.7,0.8 -1.3,1.2 -1.8,1.2 -0.2,0 -0.4,-0.1 -0.5,-0.3 -0.1,-0.2 -0.2,-0.4 -0.2,-0.8 0,-0.7 0.1,-1.5 0.4,-2.5 -1.4,2.4 -2.6,3.5 -3.5,3.5 -0.2,0 -0.5,-0.1 -0.6,-0.3 -0.2,-0.2 -0.3,-0.5 -0.3,-0.8 0,-0.3 0,-0.6 0.1,-0.9 0.1,-0.3 0.3,-1.2 0.8,-2.7 0.4,-1.5 0.7,-2.4 0.8,-2.6 0.1,-0.3 0.2,-0.6 0.2,-0.8 0,-0.1 0,-0.1 0,-0.2 0,0 -0.1,-0.1 -0.2,-0.1 -0.3,0 -0.8,0.5 -1.5,1.4 -0.3,0.4 -0.5,0.6 -0.5,0.6 -0.1,0 -0.1,0 -0.1,-0.1 0,-0.2 0.3,-0.7 1,-1.5 0.7,-0.7 1.2,-1.1 1.7,-1.1 0.2,0 0.4,0.1 0.6,0.3 0.2,0.2 0.3,0.5 0.3,0.7 0,0.4 -0.2,1.2 -0.6,2.3 -0.8,2.3 -1.3,3.8 -1.3,4.5 0,0.1 0,0.3 0.1,0.4 0.1,0.1 0.1,0.2 0.2,0.2 0.1,0 0.3,-0.1 0.6,-0.3 0.2,-0.2 0.7,-0.7 1.2,-1.6 0.6,-0.9 1.1,-1.9 1.6,-3 l 1.5,-3.4 c 0.1,0 0.2,-0.1 0.4,-0.1 -0.2,0 0.1,0 0.3,0.1 z"
         inkscape:connector-curvature="0"
         style="fill:#9a999e" /><path
         id="XMLID_178_"
         d="m 273,174.8 c 0.3,0 0.6,0.1 0.9,0.4 0.3,0.3 0.4,0.6 0.4,0.9 0,0.3 -0.1,0.4 -0.2,0.6 -0.1,0.1 -0.3,0.2 -0.4,0.2 -0.2,0 -0.3,-0.1 -0.4,-0.2 -0.1,-0.1 -0.2,-0.3 -0.3,-0.7 -0.1,-0.3 -0.2,-0.5 -0.2,-0.6 -0.1,-0.1 -0.2,-0.1 -0.3,-0.1 -0.4,0 -0.8,0.3 -1.3,0.9 -0.5,0.6 -0.9,1.5 -1.3,2.6 -0.3,1.1 -0.5,2 -0.5,2.8 0,0.6 0.1,1 0.3,1.3 0.2,0.3 0.4,0.4 0.8,0.4 0.4,0 0.8,-0.2 1.2,-0.6 0.4,-0.4 0.8,-0.9 1.1,-1.3 0.2,-0.2 0.3,-0.4 0.4,-0.4 0.1,0 0.2,0.1 0.2,0.2 0,0.2 -0.3,0.7 -1,1.5 -0.7,0.8 -1.5,1.2 -2.4,1.2 -0.6,0 -1.1,-0.2 -1.4,-0.6 -0.3,-0.4 -0.5,-0.9 -0.5,-1.5 0,-1.1 0.3,-2.2 0.9,-3.4 0.6,-1.2 1.3,-2.1 2.1,-2.7 0.5,-0.5 1.2,-0.9 1.9,-0.9 z"
         inkscape:connector-curvature="0"
         style="fill:#9a999e" /><path
         id="XMLID_180_"
         d="m 276.1,183.2 c 0,0.1 0,0.2 0.1,0.3 0,0.1 0.1,0.1 0.2,0.1 0.2,0 0.5,-0.1 0.8,-0.4 0.3,-0.2 0.7,-0.6 1,-0.9 0.1,-0.2 0.2,-0.2 0.3,-0.2 0.1,0 0.2,0.1 0.2,0.2 0,0.2 -0.3,0.6 -1,1.1 -0.7,0.5 -1.2,0.8 -1.8,0.8 -0.3,0 -0.6,-0.1 -0.8,-0.2 -0.2,-0.2 -0.3,-0.3 -0.3,-0.6 0,-0.3 0.4,-1.4 1.1,-3.3 0.9,-2.4 1.3,-3.7 1.3,-4.1 0,-0.1 0,-0.2 -0.1,-0.3 0,-0.1 -0.1,-0.1 -0.2,-0.1 -0.3,0 -0.7,0.3 -1.3,1 -0.2,0.3 -0.4,0.4 -0.5,0.4 -0.1,0 -0.1,-0.1 -0.1,-0.2 0,-0.2 0.3,-0.6 1,-1.1 0.7,-0.6 1.3,-0.8 1.8,-0.8 0.2,0 0.4,0.1 0.6,0.3 0.2,0.2 0.2,0.4 0.2,0.6 0,0.3 0,0.5 -0.1,0.7 -0.1,0.2 -0.6,1.5 -1.4,3.8 -0.6,1.7 -1,2.7 -1,2.9 z m 3.1,-13.5 c 0.2,0 0.4,0.1 0.5,0.2 0.1,0.2 0.2,0.4 0.2,0.6 0,0.2 -0.1,0.4 -0.2,0.6 -0.1,0.2 -0.3,0.2 -0.5,0.2 -0.2,0 -0.4,-0.1 -0.5,-0.2 -0.1,-0.2 -0.2,-0.4 -0.2,-0.6 0,-0.2 0.1,-0.4 0.2,-0.6 0.1,-0.2 0.3,-0.2 0.5,-0.2 z"
         inkscape:connector-curvature="0"
         style="fill:#9a999e" /><path
         id="XMLID_183_"
         d="m 284.3,174.8 c 0.8,0 1.5,0.4 2,1.1 0.5,0.7 0.7,1.6 0.7,2.5 0,1.4 -0.4,2.6 -1.3,3.8 -0.9,1.2 -1.9,1.8 -3.1,1.8 -0.9,0 -1.5,-0.4 -1.9,-1.1 -0.4,-0.7 -0.6,-1.5 -0.6,-2.3 0,-1 0.2,-2.1 0.7,-3 0.5,-1 1.1,-1.7 1.7,-2.1 0.6,-0.4 1.2,-0.7 1.8,-0.7 z m 0.1,0.5 c -0.4,0 -0.7,0.2 -1.2,0.7 -0.4,0.5 -0.8,1.3 -1.3,2.5 -0.4,1.2 -0.6,2.3 -0.6,3.3 0,0.5 0.1,0.9 0.3,1.3 0.2,0.4 0.5,0.5 0.8,0.5 0.4,0 0.8,-0.3 1.3,-0.8 0.5,-0.5 0.9,-1.3 1.3,-2.4 0.4,-1.1 0.6,-2.1 0.6,-3.1 0,-0.7 -0.1,-1.1 -0.3,-1.5 -0.2,-0.4 -0.4,-0.5 -0.9,-0.5 z"
         inkscape:connector-curvature="0"
         style="fill:#9a999e" /><path
         id="XMLID_186_"
         d="m 291.3,178.5 c 0.7,-1.2 1.3,-2.2 1.9,-2.8 0.6,-0.6 1.1,-0.9 1.6,-0.9 0.3,0 0.5,0.1 0.7,0.4 0.2,0.2 0.2,0.5 0.2,0.8 0,0.4 -0.1,0.8 -0.2,1.2 -0.1,0.4 -0.4,1.3 -0.8,2.6 -0.6,1.7 -0.8,2.8 -0.8,3.1 0,0.2 0.1,0.3 0.3,0.3 0.2,0 0.4,-0.2 0.8,-0.5 0.4,-0.3 0.6,-0.6 0.8,-0.9 0.2,-0.3 0.3,-0.5 0.4,-0.5 0.1,0 0.2,0.1 0.2,0.2 0,0.3 -0.3,0.8 -1,1.5 -0.6,0.7 -1.3,1 -1.9,1 -0.6,0 -0.9,-0.3 -0.9,-0.8 0,-0.6 0.5,-2.2 1.4,-4.9 0.4,-1 0.5,-1.8 0.5,-2.3 0,-0.2 0,-0.3 -0.1,-0.4 -0.1,-0.1 -0.1,-0.1 -0.3,-0.1 -0.2,0 -0.5,0.3 -1.1,0.8 -0.5,0.5 -1.1,1.5 -1.8,2.9 -0.7,1.4 -1.2,2.6 -1.6,3.8 -0.3,0.7 -0.4,1.1 -0.5,1.1 -0.6,0 -0.9,-0.1 -0.9,-0.3 v -0.1 l 1.6,-5.2 c 0.4,-1.3 0.6,-2.1 0.6,-2.6 0,-0.2 -0.1,-0.3 -0.3,-0.3 -0.2,0 -0.4,0.2 -0.8,0.5 -0.4,0.3 -0.6,0.7 -0.8,1 -0.2,0.2 -0.3,0.4 -0.4,0.4 -0.1,0 -0.1,-0.1 -0.1,-0.2 0,-0.2 0.3,-0.7 1,-1.4 0.7,-0.7 1.3,-1.1 2,-1.1 0.2,0 0.4,0.1 0.5,0.2 0.1,0.2 0.2,0.3 0.2,0.5 0.1,0.3 -0.1,1.3 -0.4,3 z"
         inkscape:connector-curvature="0"
         style="fill:#9a999e" /><path
         id="XMLID_188_"
         d="m 305.1,175 c -0.2,0.4 -0.5,1.6 -1.1,3.5 l -0.8,2.9 c -0.2,0.5 -0.3,1 -0.3,1.4 0,0.2 0.1,0.4 0.3,0.4 0.1,0 0.4,-0.1 0.6,-0.3 0.2,-0.2 0.6,-0.5 0.8,-0.9 0.2,-0.2 0.3,-0.3 0.4,-0.3 0.1,0 0.2,0.1 0.2,0.2 0,0.2 -0.3,0.6 -1,1.3 -0.7,0.7 -1.3,1 -1.8,1 -0.4,0 -0.5,-0.3 -0.5,-0.8 0,-0.4 0,-0.9 0.1,-1.5 -1,1.5 -2,2.2 -3.1,2.2 -0.5,0 -0.8,-0.2 -1,-0.6 -0.2,-0.4 -0.3,-0.8 -0.3,-1.3 0,-1.4 0.6,-2.9 1.8,-4.7 1.2,-1.8 2.4,-2.6 3.4,-2.6 0.3,0 0.5,0.1 0.7,0.3 0.2,0.2 0.3,0.5 0.3,1 0.1,-0.3 0.3,-0.7 0.5,-1.3 0.2,0 0.4,0.1 0.6,0.1 0,-0.1 0.1,0 0.2,0 z m -3,0.3 c -0.4,0 -0.8,0.3 -1.3,0.9 -0.5,0.6 -1,1.5 -1.4,2.6 -0.4,1.1 -0.6,2.1 -0.6,2.8 0,0.5 0.1,0.8 0.2,1 0.1,0.2 0.4,0.3 0.6,0.3 0.7,0 1.5,-0.7 2.2,-2.2 0.7,-1.5 1.1,-2.8 1.1,-4 0,-0.4 -0.1,-0.7 -0.2,-1 -0.1,-0.2 -0.3,-0.4 -0.6,-0.4 z"
         inkscape:connector-curvature="0"
         style="fill:#9a999e" /><path
         id="XMLID_191_"
         d="m 311.5,169.4 c -0.1,0.5 -0.7,2.5 -1.6,6 l -1.8,6.5 c -0.2,0.8 -0.3,1.3 -0.3,1.5 0,0.1 0,0.2 0.1,0.2 0.2,0 0.5,-0.2 1.1,-0.7 0.5,-0.5 0.9,-0.9 1.1,-1.3 0.2,-0.3 0.3,-0.4 0.3,-0.4 0.1,0 0.2,0.1 0.2,0.2 0,0.2 -0.4,0.8 -1.1,1.6 -0.7,0.8 -1.4,1.2 -2.1,1.2 -0.2,0 -0.4,-0.1 -0.5,-0.2 -0.2,-0.2 -0.2,-0.4 -0.2,-0.7 0,-0.5 0.1,-1 0.2,-1.6 0.1,-0.6 0.7,-2.8 1.8,-6.6 0.7,-2.5 1.1,-4 1.1,-4.3 0,-0.4 -0.4,-0.6 -1.1,-0.6 -0.3,0 -0.4,-0.1 -0.4,-0.2 0,-0.1 0.1,-0.2 0.4,-0.2 z"
         inkscape:connector-curvature="0"
         style="fill:#9a999e" /></g></g></svg>