<?xml version="1.0" encoding="utf-8"?>
<!-- Generator: Adobe Illustrator 18.1.1, SVG Export Plug-In . SVG Version: 6.00 Build 0)  -->
<svg version="1.1" id="Capa_1" xmlns="http://www.w3.org/2000/svg" xmlns:xlink="http://www.w3.org/1999/xlink" x="0px" y="0px"
	 viewBox="0 0 351 241" enable-background="new 0 0 351 241" xml:space="preserve">
<g id="XMLID_74_">
	<g id="XMLID_85_">
		<path id="XMLID_103_" fill="#354F98" d="M204.9,61.3l-0.3-0.3c-0.7-0.6-2-1.3-4-2c-3.2-1.2-7.3-1.7-12.1-1.7
			c-6.8,0-12.5,2.2-17.3,6.6c-4.9,4.5-7.4,10-7.4,16.6v0.1c0.1,6.7,2.6,12.2,7.4,16.6c4.8,4.4,10.5,6.6,17.3,6.6
			c4.8,0,8.9-0.6,12.1-1.7c1.9-0.7,3.3-1.4,4-2l0.3-0.3c0.1-0.2,0.2-0.3,0.2-0.5c0.2-1.7,0.3-3.6,0.3-5.7c0-2.1-0.1-3.2-0.3-3.3H205
			c-0.1,0.6-0.3,1.2-0.7,2c-0.4,0.8-0.9,1.6-1.7,2.4c-0.8,0.8-1.7,1.7-2.9,2.5s-2.6,1.7-4.2,2.4c-1.9,0.8-4.3,1.3-7.2,1.3
			c-5,0-9.1-1.7-12.3-5c-3.4-3.6-5.1-8.6-5.1-14.9v-0.3v-0.1v-0.3c0-6.3,1.7-11.3,5.1-14.9c3.2-3.3,7.3-5,12.3-5
			c3,0,5.4,0.4,7.2,1.3c1.7,0.7,3.1,1.5,4.2,2.4s2.1,1.7,2.9,2.5c0.8,0.8,1.3,1.6,1.7,2.4c0.4,0.8,0.6,1.5,0.7,2h0.1
			c0.2-0.1,0.3-1.3,0.3-3.3c0-2.1-0.1-4-0.3-5.7C205.1,61.7,205,61.5,204.9,61.3z"/>
		<path id="XMLID_100_" d="M194.6,97.4c1-0.4,1.8-0.9,2.6-1.3V79.9c0.1-2.8,0.5-4.8,1.1-5.9c0.7-1.2,1.6-1.9,2.8-2.1v-0.1h-13.8v0.1
			c1.2,0.2,2.1,0.8,2.8,1.8s1,2.5,1,4.3v0.1h0.1v8h0.1l0,12.1C192.5,98.1,193.7,97.8,194.6,97.4z"/>
		<path id="XMLID_97_" d="M220.3,107c-0.4,1.2-1.2,2.3-2.5,3.2c-1.3,1-3.4,1.8-6.2,2.6c-1.3,0.3-2.8,0.5-4.5,0.5
			c-3.6,0-5.7,0-6.3-0.1c-2.5-0.5-3.7-1.8-3.7-3.9v-4c-1.8,0.4-3.8,0.6-6,0.7l0,4.1c0,1.9-0.3,3.3-1,4.3c-0.7,1-1.6,1.7-2.8,1.8v0.1
			c6.7,0,12.1-0.1,16.1-0.1c5.5,0,10,0.1,13.5,0.3c0.6,0,1.1,0,1.5-0.1l0.6,0.1l0.1-0.4L220.3,107L220.3,107z"/>
		<g id="XMLID_87_">
			<path id="XMLID_96_" fill="#501D5E" d="M186.8,72.2l0.1-0.1h-0.1V72c-4.8,6.6-8.9,12.3-12.3,17.1c0.5,1.2,1.1,2.4,1.8,3.4
				l4.3-6.2l0.1,10.3c1.8,1.1,3.9,1.7,6.2,1.8L186.8,72.2z"/>
			<path id="XMLID_95_" fill="#501D5E" d="M169.6,98.8c-0.4-0.4-0.9-0.8-1.3-1.2c-3,4.1-5.1,7.1-6.4,8.9l-24.2-34.8h-0.2
				c0.1,1.4,0.1,3.7,0.1,6.7l-0.2,25.5v6.1c0,1.9-0.3,3.3-1,4.3s-1.6,1.7-2.8,1.8v0.1h11.5v-0.1c-1.2-0.2-2.1-0.8-2.8-1.8
				c-0.7-1-1-2.5-1-4.3v-5.3l-0.1-17.5c10.8,16.6,17.1,26.3,18.8,29l11-16.1C170.6,99.7,170.1,99.3,169.6,98.8z"/>
			<rect id="XMLID_92_" x="160" y="116.2" fill="#501D5E" width="0.1" height="0.1"/>
			<path id="XMLID_88_" fill="#501D5E" d="M187.9,114.2c-0.7-1-1-2.5-1-4.3l0-3.9c-2.1-0.1-4.2-0.4-6.1-0.9l0.1,4.8
				c0,1.9-0.3,3.3-1,4.3c-0.7,1-1.6,1.7-2.9,1.8v0.1c2.5,0,4.6-0.1,6.5-0.1h1.2l6.1,0.1v-0.1C189.5,115.9,188.6,115.3,187.9,114.2z"
				/>
		</g>
	</g>
	<g id="XMLID_193_">
		<path id="XMLID_194_" d="M101.6,142.4c0.7,2.1,1.4,4,2,5.6c0.8,1.9,1.4,3.6,1.8,4.8c0.4,1.3,0.9,2.6,1.5,3.8
			c1.5-3.3,3.2-8.1,5.2-14.3l4.3,0c0.2,0,0.2,0.1,0.2,0.3c0,0.1-0.1,0.2-0.3,0.3c-0.8,0.1-1.3,0.3-1.5,0.6c-0.3,0.3-0.4,0.9-0.5,1.6
			c-0.1,0.8-0.1,2.2-0.2,4.3c-0.1,2.1-0.1,3.8-0.1,5.2c0,2.7,0,4.2,0,4.6c0,0.4,0.2,0.8,0.4,1.1c0.2,0.3,0.6,0.5,1.3,0.6
			c0.2,0,0.3,0.1,0.3,0.3s-0.1,0.2-0.3,0.2l-4.2,0h-1.1c-0.2,0-0.4-0.1-0.4-0.2c0-0.1,0.1-0.2,0.3-0.2c0.6-0.1,1-0.3,1.2-0.5
			c0.2-0.2,0.3-0.5,0.4-1c0.1-0.5,0.1-1.7,0.1-3.7l0.2-7l0.1-3.4c0-0.3,0-0.4-0.1-0.4c-0.1,0-0.2,0.1-0.2,0.2l-2.2,5.7
			c-1.4,3.6-2.2,6-2.5,7l-0.7,2.2c-0.2,0.7-0.3,1-0.4,1.1c0,0.1-0.1,0.1-0.2,0.1c-0.1,0-0.2-0.1-0.2-0.4c-0.1-0.6-0.8-2.5-2-5.7
			c-0.6-1.8-1.4-3.9-2.3-6.2c-0.9-2.3-1.4-3.5-1.4-3.6c-0.1-0.1-0.1-0.2-0.2-0.2c-0.1,0-0.1,0.1-0.1,0.4l-0.1,8.8l0,2.9
			c0,1.5,0.2,2.5,0.5,3s0.8,0.7,1.4,0.7c0.4,0,0.6,0.1,0.6,0.3c0,0.2-0.1,0.2-0.3,0.2l-0.2,0l-0.7,0l-1.5,0c-0.7,0-1.5,0-2.6,0.1
			c-0.1-0.1-0.1-0.2-0.1-0.2c0-0.2,0.1-0.3,0.4-0.3c0.7,0,1.3-0.3,1.6-1c0.3-0.6,0.5-2,0.5-4.1l0-2.6l0.2-6.5c0-1.5-0.2-2.5-0.5-3.1
			c-0.3-0.6-0.8-0.9-1.5-1c-0.3,0-0.4-0.1-0.4-0.3c0-0.2,0.1-0.3,0.3-0.3c0.1,0,0.2,0,0.4,0L101.6,142.4z"/>
		<path id="XMLID_196_" d="M123.4,159.5c-0.4,0.7-0.8,1.2-1.3,1.5c-0.5,0.3-1.1,0.5-1.7,0.5c-0.7,0-1.3-0.3-1.7-0.8
			s-0.6-1.2-0.6-2.1c0-0.6,0.1-1.2,0.4-1.8c0.2-0.6,0.5-0.9,0.9-1.2s0.9-0.5,1.7-0.9c1.2-0.5,1.9-0.9,2.1-1.3
			c0.2-0.3,0.3-0.8,0.3-1.3c0-0.9-0.2-1.5-0.5-2c-0.3-0.5-0.7-0.7-1.3-0.7c-0.5,0-0.8,0.1-1,0.4c-0.2,0.3-0.4,0.8-0.5,1.6
			c-0.1,0.9-0.4,1.3-0.9,1.3c-0.2,0-0.3-0.1-0.5-0.3s-0.3-0.5-0.3-0.9c0-0.7,0.3-1.4,0.9-1.9s1.4-0.8,2.5-0.8c0.8,0,1.5,0.2,2,0.5
			c0.5,0.3,0.8,0.7,0.9,1.1s0.2,1.2,0.2,2.4l-0.1,3.8c0,1.5,0.1,2.5,0.2,3.2c0.1,0.6,0.4,0.9,0.7,0.9c0.1,0,0.2,0,0.3,0l0.2,0
			c0.2,0,0.2,0.1,0.2,0.2c0,0.4-0.7,0.6-2.1,0.6c-0.4,0-0.7-0.1-0.8-0.4C123.5,160.9,123.4,160.3,123.4,159.5z M123.4,153.9
			c-0.2,0.4-0.7,0.8-1.5,1.4c-0.8,0.5-1.3,1-1.6,1.5c-0.3,0.5-0.5,1.1-0.5,1.7c0,0.6,0.1,1.1,0.4,1.6c0.3,0.4,0.6,0.6,1,0.6
			c0.4,0,0.8-0.2,1.2-0.5c0.4-0.3,0.6-0.8,0.8-1.3c0.2-0.5,0.3-1.3,0.3-2.4C123.5,155.7,123.5,154.8,123.4,153.9z"/>
		<path id="XMLID_199_" d="M135.2,151c0.3,0.7,0.5,1.5,0.5,2.3c0,1.2-0.3,2.3-0.9,3.2c-0.6,0.9-1.5,1.4-2.7,1.5
			c-0.7,0.1-1.3,0.2-1.5,0.3s-0.5,0.3-0.7,0.6c-0.2,0.3-0.3,0.5-0.3,0.8c0,0.4,0.2,0.7,0.5,0.9c0.3,0.2,1.1,0.3,2.2,0.4
			c1.6,0.1,2.7,0.2,3.2,0.3s1,0.5,1.4,1c0.4,0.6,0.6,1.3,0.6,2.2c0,1.5-0.5,2.7-1.5,3.6c-1,0.9-2.4,1.4-4.3,1.4
			c-1.4,0-2.5-0.2-3.2-0.7c-0.7-0.5-1.1-1.2-1.1-2.2c0-1.5,1.1-2.7,3.2-3.7c-0.9-0.2-1.5-0.5-1.9-0.8c-0.4-0.3-0.6-0.8-0.6-1.4
			c0-0.6,0.2-1.2,0.6-1.6s1-0.9,1.7-1.2c-0.7-0.3-1.3-0.7-1.7-1.4c-0.4-0.7-0.6-1.5-0.6-2.4c0-1.3,0.4-2.5,1.1-3.5
			c0.8-1,1.7-1.5,2.9-1.5c1.1,0,2.1,0.5,2.8,1.6c0.7-1.1,1.4-1.7,2.1-1.7c0.5,0,0.8,0.2,1.1,0.5c0.2,0.3,0.4,0.7,0.4,1.1
			c0,0.3-0.1,0.5-0.2,0.7s-0.3,0.3-0.5,0.3c-0.4,0-0.7-0.3-0.9-0.9c-0.1-0.3-0.3-0.5-0.5-0.5C136,150,135.6,150.3,135.2,151z
			 M132.7,162.8c-0.8,0-1.5,0.2-2.1,0.5s-1.1,0.7-1.4,1.2c-0.3,0.5-0.5,1-0.5,1.6c0,0.9,0.3,1.5,0.9,2c0.6,0.4,1.4,0.7,2.3,0.7
			c1.4,0,2.5-0.4,3.1-1.1c0.7-0.8,1-1.6,1-2.5c0-0.8-0.3-1.4-0.8-1.7C134.7,163,133.9,162.8,132.7,162.8z M129.8,153.4
			c0,1.4,0.2,2.4,0.7,3c0.5,0.6,1,0.9,1.5,0.9c0.5,0,0.9-0.3,1.3-0.9c0.4-0.6,0.6-1.6,0.6-2.8c0-1.3-0.2-2.3-0.6-3
			c-0.4-0.7-0.9-1.1-1.4-1.1c-0.6,0-1.1,0.3-1.5,1C130,151.2,129.8,152.2,129.8,153.4z"/>
		<path id="XMLID_203_" d="M142.1,149c0.2,0.6,0.3,1.5,0.3,2.9c0.4-0.9,0.9-1.7,1.5-2.1c0.5-0.5,1.1-0.7,1.8-0.7
			c0.5,0,1,0.1,1.4,0.4c0.5,0.2,0.8,0.7,1.1,1.3c0.3,0.6,0.4,1.6,0.4,3.1l-0.1,4.9c0,0.9,0.1,1.5,0.2,1.7c0.1,0.2,0.4,0.4,0.7,0.5
			c0.3,0.1,0.4,0.2,0.4,0.3c0,0.1-0.1,0.2-0.2,0.2c-0.1,0-0.1,0-0.2,0c-0.3-0.1-0.8-0.1-1.5-0.1c-0.6,0-1.2,0-1.9,0.1
			c-0.3,0-0.4-0.1-0.4-0.2c0-0.1,0.1-0.2,0.2-0.2c0.4-0.1,0.7-0.2,0.8-0.4c0.1-0.1,0.2-0.3,0.3-0.5c0.1-0.2,0.1-0.9,0.1-2.1
			c0-1.2,0-2.2,0-2.9c0-2-0.2-3.4-0.6-4.1c-0.4-0.7-0.9-1-1.4-1c-0.8,0-1.6,0.6-2.1,1.8c-0.6,1.2-0.8,3.3-0.8,6.1
			c0,1.3,0.1,2.1,0.2,2.5s0.4,0.6,1,0.6c0.2,0,0.2,0.1,0.2,0.3c0,0.1-0.1,0.2-0.2,0.2l-0.6-0.1c-0.2,0-0.9,0-2,0l-0.9,0
			c-0.3,0-0.5-0.1-0.5-0.2c0-0.2,0.2-0.3,0.5-0.4c0.3-0.1,0.6-0.2,0.7-0.5s0.2-0.9,0.2-2.2c0-1.2,0.1-2.8,0.1-4.6
			c0-1.7-0.1-2.8-0.3-3.2c-0.2-0.4-0.4-0.7-0.7-0.8c-0.3-0.1-0.4-0.2-0.4-0.4c0-0.2,0.1-0.2,0.3-0.2l0.9,0
			C140.7,149,141.2,149,142.1,149z"/>
		<path id="XMLID_205_" d="M156.7,159.5c-0.4,0.7-0.8,1.2-1.3,1.5c-0.5,0.3-1.1,0.5-1.7,0.5c-0.7,0-1.3-0.3-1.7-0.8
			s-0.6-1.2-0.6-2.1c0-0.6,0.1-1.2,0.4-1.8c0.2-0.6,0.5-0.9,0.9-1.2s0.9-0.5,1.7-0.9c1.2-0.5,1.9-0.9,2.1-1.3
			c0.2-0.3,0.3-0.8,0.3-1.3c0-0.9-0.2-1.5-0.5-2c-0.3-0.5-0.7-0.7-1.3-0.7c-0.5,0-0.8,0.1-1,0.4c-0.2,0.3-0.4,0.8-0.5,1.6
			c-0.1,0.9-0.4,1.3-0.9,1.3c-0.2,0-0.3-0.1-0.5-0.3s-0.3-0.5-0.3-0.9c0-0.7,0.3-1.4,0.9-1.9s1.4-0.8,2.5-0.8c0.8,0,1.5,0.2,2,0.5
			c0.5,0.3,0.8,0.7,0.9,1.1s0.2,1.2,0.2,2.4l-0.1,3.8c0,1.5,0.1,2.5,0.2,3.2c0.1,0.6,0.4,0.9,0.7,0.9c0.1,0,0.2,0,0.3,0l0.2,0
			c0.2,0,0.2,0.1,0.2,0.2c0,0.4-0.7,0.6-2.1,0.6c-0.4,0-0.7-0.1-0.8-0.4C156.8,160.9,156.8,160.3,156.7,159.5z M156.7,153.9
			c-0.2,0.4-0.7,0.8-1.5,1.4c-0.8,0.5-1.3,1-1.6,1.5c-0.3,0.5-0.5,1.1-0.5,1.7c0,0.6,0.1,1.1,0.4,1.6c0.3,0.4,0.6,0.6,1,0.6
			c0.4,0,0.8-0.2,1.2-0.5c0.4-0.3,0.6-0.8,0.8-1.3c0.2-0.5,0.3-1.3,0.3-2.4C156.8,155.7,156.8,154.8,156.7,153.9z"/>
		<path id="XMLID_208_" d="M177.9,143.6c0.4-0.5,0.6-0.8,0.7-1c0.1-0.2,0.2-0.3,0.3-0.3c0.1,0,0.2,0.2,0.2,0.5l0.2,5.1
			c0,0.3,0,0.5,0,0.5c0,0.1-0.1,0.1-0.2,0.1c-0.1,0-0.2-0.2-0.4-0.6c-0.5-1.5-1.1-2.8-2-3.8c-0.9-1-1.8-1.5-2.8-1.5
			c-0.9,0-1.7,0.4-2.4,1.1c-0.7,0.8-1.3,1.8-1.7,3.2c-0.4,1.4-0.6,2.9-0.6,4.5c0,2.7,0.6,5,1.7,6.7c1.1,1.7,2.4,2.6,3.8,2.6
			c1,0,1.8-0.4,2.6-1.2c0.8-0.8,1.4-1.7,1.8-2.8c0.1-0.3,0.2-0.4,0.3-0.4c0.2,0,0.2,0.1,0.2,0.3c0,0.3-0.3,0.9-0.8,1.8
			c-0.6,0.9-1.3,1.7-2.2,2.3s-1.9,0.9-2.9,0.9c-1.2,0-2.4-0.4-3.5-1.2c-1.1-0.8-2-2-2.6-3.4c-0.6-1.5-1-3.2-1-5.1
			c0-1.9,0.3-3.6,0.9-5.2c0.6-1.5,1.5-2.7,2.6-3.6c1.1-0.9,2.3-1.3,3.5-1.3c0.6,0,1.3,0.1,2,0.4
			C176.5,142.6,177.2,143.1,177.9,143.6z"/>
		<path id="XMLID_210_" d="M186.5,159.5c-0.4,0.7-0.8,1.2-1.3,1.5c-0.5,0.3-1.1,0.5-1.7,0.5c-0.7,0-1.3-0.3-1.7-0.8
			s-0.6-1.2-0.6-2.1c0-0.6,0.1-1.2,0.4-1.8c0.2-0.6,0.5-0.9,0.9-1.2s0.9-0.5,1.7-0.9c1.2-0.5,1.9-0.9,2.1-1.3
			c0.2-0.3,0.3-0.8,0.3-1.3c0-0.9-0.2-1.5-0.5-2c-0.3-0.5-0.7-0.7-1.3-0.7c-0.5,0-0.8,0.1-1,0.4c-0.2,0.3-0.4,0.8-0.5,1.6
			c-0.1,0.9-0.4,1.3-0.9,1.3c-0.2,0-0.3-0.1-0.5-0.3s-0.3-0.5-0.3-0.9c0-0.7,0.3-1.4,0.9-1.9s1.4-0.8,2.5-0.8c0.8,0,1.5,0.2,2,0.5
			c0.5,0.3,0.8,0.7,0.9,1.1s0.2,1.2,0.2,2.4l-0.1,3.8c0,1.5,0.1,2.5,0.2,3.2c0.1,0.6,0.4,0.9,0.7,0.9c0.1,0,0.2,0,0.3,0l0.2,0
			c0.2,0,0.2,0.1,0.2,0.2c0,0.4-0.7,0.6-2.1,0.6c-0.4,0-0.7-0.1-0.8-0.4C186.6,160.9,186.5,160.3,186.5,159.5z M186.5,153.9
			c-0.2,0.4-0.7,0.8-1.5,1.4c-0.8,0.5-1.3,1-1.6,1.5c-0.3,0.5-0.5,1.1-0.5,1.7c0,0.6,0.1,1.1,0.4,1.6c0.3,0.4,0.6,0.6,1,0.6
			c0.4,0,0.8-0.2,1.2-0.5c0.4-0.3,0.6-0.8,0.8-1.3c0.2-0.5,0.3-1.3,0.3-2.4C186.5,155.7,186.5,154.8,186.5,153.9z"/>
		<path id="XMLID_213_" d="M193.7,152.2c0.5-1.1,0.9-1.9,1.5-2.4s1.1-0.8,1.6-0.8c0.4,0,0.7,0.2,1,0.6s0.4,0.8,0.4,1.3
			c0,0.9-0.3,1.4-0.9,1.4c-0.3,0-0.5-0.3-0.7-0.8c-0.2-0.6-0.5-1-0.9-1c-0.4,0-0.7,0.3-1.1,0.8c-0.4,0.5-0.6,1.1-0.8,1.8
			c-0.1,0.6-0.2,2-0.2,4c0,1.9,0.1,3,0.2,3.2c0.1,0.3,0.4,0.5,0.9,0.5c0.1,0,0.2,0.1,0.2,0.2c0,0.2-0.2,0.3-0.5,0.3H191
			c-0.2,0-0.4-0.1-0.4-0.2c0-0.2,0.2-0.2,0.5-0.3c0.5,0,0.7-0.2,0.8-0.6s0.2-1.6,0.2-3.7c0-3.2,0-5.1-0.1-5.7c-0.1-0.6-0.5-1-1.1-1
			c-0.3,0-0.4-0.1-0.4-0.3c0-0.1,0-0.2,0.1-0.2c0.1,0,0.4-0.1,1-0.1l2-0.1C193.6,149.6,193.6,150.6,193.7,152.2z"/>
		<path id="XMLID_215_" d="M203.2,150.2c-0.1,2.1-0.2,4.2-0.2,6.3c0,1.6,0.1,2.6,0.4,3.1c0.3,0.5,0.7,0.7,1.2,0.7
			c0.4,0,0.8-0.2,1.3-0.6c0.2-0.1,0.3-0.2,0.3-0.2c0.1,0,0.1,0.1,0.1,0.2c0,0.2-0.3,0.6-0.8,1.1c-0.5,0.5-1.1,0.8-1.9,0.8
			c-0.7,0-1.3-0.3-1.7-1s-0.6-1.7-0.6-3.1c0-1.4,0.1-3.9,0.2-7.3c-0.1,0-0.4-0.1-1-0.1l-0.7-0.1c-0.2,0-0.2-0.1-0.2-0.2
			c0-0.1,0.1-0.2,0.3-0.3c0.3-0.1,0.8-0.6,1.5-1.3c0.7-0.7,1.1-1.7,1.2-3c0-0.3,0.1-0.5,0.2-0.5c0.1,0,0.2,0.1,0.2,0.4
			c0,0.1,0,0.2,0,0.3c0,0.4,0,0.8,0,1.3l0,2.3l2.4,0c0.4,0,0.6,0.1,0.6,0.2c0,0.4-0.1,0.7-0.2,0.8
			C205.7,150,204.8,150.1,203.2,150.2z"/>
		<path id="XMLID_217_" d="M213.1,159.5c-0.4,0.7-0.8,1.2-1.3,1.5c-0.5,0.3-1.1,0.5-1.7,0.5c-0.7,0-1.3-0.3-1.7-0.8
			s-0.6-1.2-0.6-2.1c0-0.6,0.1-1.2,0.4-1.8c0.2-0.6,0.5-0.9,0.9-1.2s0.9-0.5,1.7-0.9c1.2-0.5,1.9-0.9,2.1-1.3
			c0.2-0.3,0.3-0.8,0.3-1.3c0-0.9-0.2-1.5-0.5-2c-0.3-0.5-0.7-0.7-1.3-0.7c-0.5,0-0.8,0.1-1,0.4c-0.2,0.3-0.4,0.8-0.5,1.6
			c-0.1,0.9-0.4,1.3-0.9,1.3c-0.2,0-0.3-0.1-0.5-0.3s-0.3-0.5-0.3-0.9c0-0.7,0.3-1.4,0.9-1.9s1.4-0.8,2.5-0.8c0.8,0,1.5,0.2,2,0.5
			c0.5,0.3,0.8,0.7,0.9,1.1s0.2,1.2,0.2,2.4l-0.1,3.8c0,1.5,0.1,2.5,0.2,3.2c0.1,0.6,0.4,0.9,0.7,0.9c0.1,0,0.2,0,0.3,0l0.2,0
			c0.2,0,0.2,0.1,0.2,0.2c0,0.4-0.7,0.6-2.1,0.6c-0.4,0-0.7-0.1-0.8-0.4C213.2,160.9,213.1,160.3,213.1,159.5z M213.1,153.9
			c-0.2,0.4-0.7,0.8-1.5,1.4c-0.8,0.5-1.3,1-1.6,1.5c-0.3,0.5-0.5,1.1-0.5,1.7c0,0.6,0.1,1.1,0.4,1.6c0.3,0.4,0.6,0.6,1,0.6
			c0.4,0,0.8-0.2,1.2-0.5c0.4-0.3,0.6-0.8,0.8-1.3c0.2-0.5,0.3-1.3,0.3-2.4C213.2,155.7,213.1,154.8,213.1,153.9z"/>
		<path id="XMLID_220_" d="M234.9,161.4c-0.4,0-0.6,0-0.6,0c-0.3,0-0.8,0-1.5-0.1s-2.2-0.1-4.4-0.1h-2.8c-0.1,0-0.5,0-1.1,0.1
			c-0.6,0-1,0.1-1.2,0.1c-0.6,0-0.8-0.1-0.8-0.3c0-0.2,0.1-0.2,0.3-0.2c0.7-0.1,1.2-0.3,1.5-0.6c0.3-0.3,0.5-0.8,0.6-1.5
			c0.1-0.6,0.2-2.4,0.2-5.2l0-5.2c0-1.7-0.1-2.9-0.2-3.5s-0.3-1.2-0.7-1.5c-0.4-0.4-0.7-0.6-1.2-0.6c-0.2,0-0.3-0.1-0.3-0.3
			s0.1-0.3,0.3-0.3c0.1,0,0.1,0,0.3,0c1.2,0.1,2.5,0.1,4,0.1l1.9,0c0.2,0,0.3,0.1,0.3,0.3c0,0.2-0.1,0.3-0.3,0.3
			c-0.5,0-0.9,0.1-1.3,0.4c-0.3,0.3-0.6,0.6-0.7,0.9c-0.1,0.4-0.2,1-0.2,2.1l-0.1,6.9l0,3.8c0,1.2,0,2,0.1,2.3
			c0.1,0.4,0.2,0.7,0.5,1c0.2,0.3,0.7,0.4,1.3,0.4c0.1,0,0.7,0,1.9-0.1c1-0.2,1.9-0.8,2.7-1.9s1.3-2.1,1.6-3
			c0.1-0.3,0.2-0.4,0.3-0.4c0.1,0,0.2,0.1,0.2,0.3c0,0.3-0.1,1.2-0.3,2.9C235,160.3,234.9,161.2,234.9,161.4z"/>
		<path id="XMLID_222_" d="M238.3,154.6c0,0.5,0,0.9,0,1.2c0,1.4,0.3,2.5,0.9,3.5c0.6,0.9,1.4,1.4,2.3,1.4c0.9,0,1.7-0.5,2.4-1.4
			c0.2-0.3,0.4-0.4,0.4-0.4c0.1,0,0.2,0.1,0.2,0.4c-0.3,0.7-0.7,1.2-1.4,1.7c-0.7,0.5-1.4,0.7-2.2,0.7c-1.2,0-2.2-0.6-3.1-1.7
			c-0.8-1.2-1.3-2.6-1.3-4.4c0-1.9,0.5-3.5,1.4-4.7c0.9-1.3,1.9-1.9,2.9-1.9c1,0,1.9,0.5,2.7,1.5c0.8,1,1.2,2.2,1.2,3.5
			c0,0.2,0,0.4-0.1,0.4c0,0.1-0.3,0.1-0.8,0.1L238.3,154.6z M238.3,153.8c0.9,0.1,1.9,0.1,2.7,0.1l0.6,0c0.4,0,0.8-0.1,1-0.3
			s0.3-0.6,0.3-1.1c0-0.8-0.2-1.5-0.6-2.1s-0.9-0.9-1.5-0.9c-0.5,0-1,0.3-1.6,1S238.5,152.3,238.3,153.8z"/>
		<path id="XMLID_225_" d="M250.9,155.4l-2.7-4.9c-0.3-0.6-0.8-0.9-1.5-1c-0.2,0-0.4-0.1-0.4-0.3c0-0.1,0-0.2,0.1-0.2
			c0.1,0,0.3-0.1,0.7-0.1h3.5c0.4,0,0.6,0.1,0.6,0.3c0,0.2-0.3,0.3-0.8,0.4c-0.3,0-0.4,0.2-0.4,0.3c0,0.2,0.6,1.6,1.9,4
			c1.1-2,1.7-3.2,1.7-3.6c0-0.4-0.3-0.7-0.8-0.8c-0.2,0-0.3-0.1-0.3-0.3c0-0.2,0.2-0.3,0.7-0.3h2.4c0.3,0,0.5,0.1,0.5,0.3
			c0,0.2-0.1,0.3-0.3,0.3c-0.6,0-1,0.2-1.2,0.6c-0.2,0.4-1,1.8-2.3,4.3l2.1,3.8c0.6,1.2,1.1,1.9,1.4,2.1c0.3,0.3,0.7,0.4,1.1,0.5
			c0.2,0,0.3,0.1,0.3,0.3c0,0.1,0,0.2-0.1,0.3c-0.1,0-0.3,0.1-0.7,0.1h-3.5c-0.4,0-0.7-0.1-0.7-0.3c0-0.2,0.1-0.3,0.3-0.3
			c0.6-0.1,0.8-0.3,0.8-0.7c0-0.2-0.1-0.4-0.2-0.7c-0.1-0.1-0.2-0.4-0.5-0.9c-0.3-0.7-0.8-1.6-1.4-2.6c-1.2,2.4-1.8,3.8-1.8,4.2
			c0,0.5,0.3,0.7,1,0.7c0.2,0,0.4,0.1,0.4,0.3c0,0.2-0.2,0.3-0.6,0.3h-2.9c-0.4,0-0.6-0.1-0.6-0.3c0-0.2,0.1-0.3,0.3-0.3
			c0.3,0,0.7-0.2,1.1-0.4c0.4-0.2,0.8-0.8,1.3-1.7L250.9,155.4z"/>
	</g>
	<path id="XMLID_76_" fill="#9A999E" d="M317.9,130.7c0,0-136.7,3.4-281.8,0C36.1,130.7,199.9,128.1,317.9,130.7z"/>
	<g id="XMLID_73_">
		<path id="XMLID_104_" fill="#9A999E" d="M45.6,180.1c-0.2,1-0.3,1.7-0.3,2.2c0,0.3,0.1,0.6,0.2,0.8c0.2,0.2,0.4,0.4,0.6,0.4
			c0.4,0,0.8-0.2,1.2-0.5c0.4-0.3,0.8-0.8,1.1-1.3c0.1-0.2,0.3-0.4,0.4-0.4s0.2,0.1,0.2,0.2c0,0.4-0.3,0.9-1,1.5
			c-0.7,0.7-1.4,1-2.2,1c-0.6,0-1-0.2-1.4-0.7c-0.3-0.5-0.5-1-0.5-1.6c0-1.3,0.5-2.8,1.6-4.5s2.2-2.4,3.2-2.4c0.4,0,0.7,0.1,0.9,0.4
			c0.2,0.3,0.4,0.6,0.4,1c0,0.7-0.3,1.4-1,2.1S47.2,179.6,45.6,180.1z M45.7,179.6c1-0.5,1.8-1.1,2.4-1.8c0.6-0.7,1-1.4,1-2
			c0-0.1,0-0.3-0.1-0.4c-0.1-0.1-0.2-0.2-0.4-0.2c-0.4,0-0.9,0.3-1.4,0.9S46.1,177.9,45.7,179.6z"/>
		<path id="XMLID_107_" fill="#9A999E" d="M55.1,181c0,0.8-0.3,1.5-0.8,2.1c-0.5,0.6-1.2,0.9-1.9,0.9c-0.6,0-1.1-0.2-1.5-0.6
			s-0.5-0.7-0.5-1c0-0.2,0.1-0.4,0.2-0.6c0.1-0.2,0.3-0.3,0.5-0.3c0.2,0,0.4,0.1,0.5,0.2c0.1,0.1,0.2,0.3,0.2,0.5
			c0,0.1,0,0.2-0.1,0.4c-0.1,0.2-0.1,0.3-0.1,0.4c0,0.2,0.1,0.3,0.2,0.4s0.4,0.1,0.6,0.1c0.5,0,0.8-0.1,1.1-0.4
			c0.3-0.3,0.4-0.7,0.4-1.1c0-0.4-0.2-1-0.7-1.7c-0.8-1.2-1.2-2.2-1.2-2.9c0-0.7,0.2-1.3,0.7-1.8c0.4-0.6,1-0.8,1.6-0.8
			c0.5,0,0.9,0.1,1.2,0.4c0.4,0.3,0.5,0.6,0.5,0.9c0,0.2-0.1,0.4-0.2,0.6s-0.3,0.2-0.5,0.2c-0.4,0-0.5-0.2-0.5-0.6l0-0.6
			c0-0.2-0.1-0.3-0.2-0.4c-0.2-0.1-0.3-0.2-0.5-0.2c-0.3,0-0.5,0.1-0.8,0.3c-0.2,0.2-0.4,0.5-0.4,0.9c0,0.4,0.4,1.1,1.1,2.1
			C54.7,179.6,55.1,180.4,55.1,181z"/>
		<path id="XMLID_109_" fill="#9A999E" d="M59.2,175.4l0.8-3.2c0.4,0,0.9,0,1.2,0.1l-0.7,2.7c0.3-0.1,0.6-0.1,0.9-0.1
			c0.9,0,1.5,0.3,1.9,0.9c0.4,0.6,0.7,1.3,0.7,2.1c0,1.6-0.5,2.9-1.6,4s-2.5,1.8-4.3,2.1c-0.7,2.3-1.1,3.8-1.1,4.4
			c0,0.5,0.4,0.7,1.2,0.8c0.2,0,0.2,0.1,0.2,0.2c0,0.1-0.1,0.2-0.2,0.2l-2.1-0.1c-0.3,0-0.7,0-1,0.1c-0.5,0-0.8,0.1-1,0.1
			c-0.2,0-0.3-0.1-0.3-0.2s0.1-0.2,0.4-0.2c0.4,0,0.8-0.1,1-0.4c0.2-0.2,0.5-0.6,0.7-1.3c0.2-0.7,0.7-2.3,1.3-4.8l1.8-6.7
			c-0.3,0.2-0.7,0.5-1.2,1c-0.5,0.5-0.8,0.8-1,1.1c-0.2,0.4-0.4,0.5-0.5,0.5c-0.1,0-0.1-0.1-0.1-0.2c0-0.2,0.3-0.7,0.9-1.4
			C57.8,176.5,58.4,175.9,59.2,175.4z M58.4,183.3c0.2,0,0.3,0,0.3,0c0.8,0,1.6-0.5,2.5-1.4c0.9-0.9,1.4-2.2,1.4-3.7
			c0-1-0.2-1.7-0.5-2.2c-0.3-0.4-0.7-0.7-1.2-0.7c-0.1,0-0.3,0-0.4,0.1L58.4,183.3z"/>
		<path id="XMLID_112_" fill="#9A999E" d="M66.8,180.1c-0.2,1-0.3,1.7-0.3,2.2c0,0.3,0.1,0.6,0.2,0.8c0.2,0.2,0.4,0.4,0.6,0.4
			c0.4,0,0.8-0.2,1.2-0.5c0.4-0.3,0.8-0.8,1.1-1.3c0.1-0.2,0.3-0.4,0.4-0.4s0.2,0.1,0.2,0.2c0,0.4-0.3,0.9-1,1.5
			c-0.7,0.7-1.4,1-2.2,1c-0.6,0-1-0.2-1.4-0.7c-0.3-0.5-0.5-1-0.5-1.6c0-1.3,0.5-2.8,1.6-4.5s2.2-2.4,3.2-2.4c0.4,0,0.7,0.1,0.9,0.4
			c0.2,0.3,0.4,0.6,0.4,1c0,0.7-0.3,1.4-1,2.1S68.4,179.6,66.8,180.1z M66.9,179.6c1-0.5,1.8-1.1,2.4-1.8c0.6-0.7,1-1.4,1-2
			c0-0.1,0-0.3-0.1-0.4c-0.1-0.1-0.2-0.2-0.4-0.2c-0.4,0-0.9,0.3-1.4,0.9S67.4,177.9,66.9,179.6z"/>
		<path id="XMLID_115_" fill="#9A999E" d="M76.8,174.8c0.3,0,0.6,0.1,0.9,0.4c0.3,0.3,0.4,0.6,0.4,0.9c0,0.3-0.1,0.4-0.2,0.6
			c-0.1,0.1-0.3,0.2-0.4,0.2c-0.2,0-0.3-0.1-0.4-0.2c-0.1-0.1-0.2-0.3-0.3-0.7c-0.1-0.3-0.2-0.5-0.2-0.6c-0.1-0.1-0.2-0.1-0.3-0.1
			c-0.4,0-0.8,0.3-1.3,0.9s-0.9,1.5-1.3,2.6c-0.3,1.1-0.5,2-0.5,2.8c0,0.6,0.1,1,0.3,1.3c0.2,0.3,0.4,0.4,0.8,0.4
			c0.4,0,0.8-0.2,1.2-0.6c0.4-0.4,0.8-0.9,1.1-1.3c0.2-0.2,0.3-0.4,0.4-0.4c0.1,0,0.2,0.1,0.2,0.2c0,0.2-0.3,0.7-1,1.5
			c-0.7,0.8-1.5,1.2-2.4,1.2c-0.6,0-1.1-0.2-1.4-0.6c-0.4-0.4-0.5-0.9-0.5-1.5c0-1.1,0.3-2.2,0.9-3.4s1.3-2.1,2.1-2.7
			S76.1,174.8,76.8,174.8z"/>
		<path id="XMLID_117_" fill="#9A999E" d="M80,183.2c0,0.1,0,0.2,0.1,0.3s0.1,0.1,0.2,0.1c0.2,0,0.5-0.1,0.8-0.4
			c0.3-0.2,0.7-0.6,1-0.9c0.1-0.2,0.2-0.2,0.3-0.2c0.1,0,0.2,0.1,0.2,0.2c0,0.2-0.3,0.6-1,1.1s-1.2,0.8-1.8,0.8
			c-0.3,0-0.6-0.1-0.8-0.2s-0.3-0.3-0.3-0.6c0-0.3,0.4-1.4,1.1-3.3c0.9-2.4,1.3-3.7,1.3-4.1c0-0.1,0-0.2-0.1-0.3
			c0-0.1-0.1-0.1-0.2-0.1c-0.3,0-0.7,0.3-1.3,1c-0.2,0.3-0.4,0.4-0.5,0.4c-0.1,0-0.1-0.1-0.1-0.2c0-0.2,0.3-0.6,1-1.1
			c0.7-0.6,1.3-0.8,1.8-0.8c0.2,0,0.4,0.1,0.6,0.3c0.2,0.2,0.2,0.4,0.2,0.6c0,0.3,0,0.5-0.1,0.7s-0.6,1.5-1.4,3.8
			C80.3,182,80,183,80,183.2z M83,169.7c0.2,0,0.4,0.1,0.5,0.2c0.1,0.2,0.2,0.4,0.2,0.6c0,0.2-0.1,0.4-0.2,0.6
			c-0.1,0.2-0.3,0.2-0.5,0.2c-0.2,0-0.4-0.1-0.5-0.2c-0.1-0.2-0.2-0.4-0.2-0.6c0-0.2,0.1-0.4,0.2-0.6S82.8,169.7,83,169.7z"/>
		<path id="XMLID_120_" fill="#9A999E" d="M91.5,175c-0.2,0.4-0.5,1.6-1.1,3.5l-0.8,2.9c-0.2,0.5-0.3,1-0.3,1.4
			c0,0.2,0.1,0.4,0.3,0.4c0.1,0,0.4-0.1,0.6-0.3c0.3-0.2,0.6-0.5,0.8-0.9c0.2-0.2,0.3-0.3,0.4-0.3c0.1,0,0.2,0.1,0.2,0.2
			c0,0.2-0.3,0.6-1,1.3c-0.7,0.6-1.3,1-1.8,1c-0.4,0-0.6-0.3-0.6-0.8c0-0.4,0-0.9,0.1-1.5c-1,1.5-2,2.2-3.1,2.2
			c-0.5,0-0.8-0.2-1-0.6c-0.2-0.4-0.3-0.8-0.3-1.3c0-1.4,0.6-2.9,1.8-4.7c1.2-1.8,2.4-2.6,3.4-2.6c0.3,0,0.5,0.1,0.7,0.3
			c0.2,0.2,0.3,0.5,0.3,1c0.1-0.3,0.3-0.7,0.5-1.3c0.2,0,0.4,0.1,0.6,0.1C91.4,174.9,91.4,175,91.5,175z M88.6,175.3
			c-0.4,0-0.8,0.3-1.3,0.9c-0.5,0.6-1,1.5-1.4,2.6s-0.6,2.1-0.6,2.8c0,0.5,0.1,0.8,0.2,1s0.4,0.3,0.6,0.3c0.7,0,1.5-0.7,2.2-2.2
			c0.7-1.5,1.1-2.8,1.1-4c0-0.4-0.1-0.7-0.2-1C89,175.5,88.8,175.3,88.6,175.3z"/>
		<path id="XMLID_123_" fill="#9A999E" d="M97.9,169.4c-0.1,0.5-0.7,2.5-1.6,6l-1.8,6.5c-0.2,0.8-0.3,1.3-0.3,1.5
			c0,0.1,0,0.2,0.1,0.2c0.2,0,0.5-0.2,1.1-0.7c0.5-0.5,0.9-0.9,1.1-1.3c0.2-0.3,0.3-0.4,0.3-0.4c0.1,0,0.2,0.1,0.2,0.2
			c0,0.2-0.4,0.8-1.1,1.6c-0.7,0.8-1.4,1.2-2.1,1.2c-0.2,0-0.4-0.1-0.5-0.2c-0.2-0.2-0.2-0.4-0.2-0.7c0-0.5,0.1-1,0.2-1.6
			c0.1-0.6,0.7-2.8,1.8-6.6c0.7-2.5,1.1-4,1.1-4.3c0-0.4-0.4-0.6-1.1-0.6c-0.3,0-0.4-0.1-0.4-0.2c0-0.1,0.1-0.2,0.4-0.2L97.9,169.4z
			"/>
		<path id="XMLID_125_" fill="#9A999E" d="M99.4,183.2c0,0.1,0,0.2,0.1,0.3s0.1,0.1,0.2,0.1c0.2,0,0.5-0.1,0.8-0.4
			c0.3-0.2,0.7-0.6,1-0.9c0.1-0.2,0.2-0.2,0.3-0.2c0.1,0,0.2,0.1,0.2,0.2c0,0.2-0.3,0.6-1,1.1s-1.2,0.8-1.8,0.8
			c-0.3,0-0.6-0.1-0.8-0.2s-0.3-0.3-0.3-0.6c0-0.3,0.4-1.4,1.1-3.3c0.9-2.4,1.3-3.7,1.3-4.1c0-0.1,0-0.2-0.1-0.3
			c0-0.1-0.1-0.1-0.2-0.1c-0.3,0-0.7,0.3-1.3,1c-0.2,0.3-0.4,0.4-0.5,0.4c-0.1,0-0.1-0.1-0.1-0.2c0-0.2,0.3-0.6,1-1.1
			c0.7-0.6,1.3-0.8,1.8-0.8c0.2,0,0.4,0.1,0.6,0.3c0.2,0.2,0.2,0.4,0.2,0.6c0,0.3,0,0.5-0.1,0.7s-0.6,1.5-1.4,3.8
			C99.7,182,99.4,183,99.4,183.2z M102.4,169.7c0.2,0,0.4,0.1,0.5,0.2c0.1,0.2,0.2,0.4,0.2,0.6c0,0.2-0.1,0.4-0.2,0.6
			c-0.1,0.2-0.3,0.2-0.5,0.2c-0.2,0-0.4-0.1-0.5-0.2c-0.1-0.2-0.2-0.4-0.2-0.6c0-0.2,0.1-0.4,0.2-0.6S102.2,169.7,102.4,169.7z"/>
		<path id="XMLID_128_" fill="#9A999E" d="M107.7,181c0,0.8-0.3,1.5-0.8,2.1c-0.5,0.6-1.2,0.9-1.9,0.9c-0.6,0-1.1-0.2-1.5-0.6
			s-0.5-0.7-0.5-1c0-0.2,0.1-0.4,0.2-0.6c0.1-0.2,0.3-0.3,0.5-0.3c0.2,0,0.4,0.1,0.5,0.2c0.1,0.1,0.2,0.3,0.2,0.5
			c0,0.1,0,0.2-0.1,0.4c-0.1,0.2-0.1,0.3-0.1,0.4c0,0.2,0.1,0.3,0.2,0.4s0.4,0.1,0.6,0.1c0.5,0,0.8-0.1,1.1-0.4
			c0.3-0.3,0.4-0.7,0.4-1.1c0-0.4-0.2-1-0.7-1.7c-0.8-1.2-1.2-2.2-1.2-2.9c0-0.7,0.2-1.3,0.7-1.8c0.4-0.6,1-0.8,1.6-0.8
			c0.5,0,0.9,0.1,1.2,0.4c0.4,0.3,0.5,0.6,0.5,0.9c0,0.2-0.1,0.4-0.2,0.6s-0.3,0.2-0.5,0.2c-0.4,0-0.5-0.2-0.5-0.6l0-0.6
			c0-0.2-0.1-0.3-0.2-0.4c-0.2-0.1-0.3-0.2-0.5-0.2c-0.3,0-0.5,0.1-0.8,0.3c-0.2,0.2-0.4,0.5-0.4,0.9c0,0.4,0.4,1.1,1.1,2.1
			C107.3,179.6,107.7,180.4,107.7,181z"/>
		<path id="XMLID_130_" fill="#9A999E" d="M112.8,175.5c-0.1,0.2-0.2,0.8-0.5,1.7c-0.9,2.9-1.4,4.7-1.4,5.4c0,0.4,0.1,0.6,0.4,0.6
			c0.5,0,1.2-0.6,2.1-1.8c0.1-0.2,0.2-0.2,0.3-0.2c0.1,0,0.2,0,0.2,0.1c0,0.2-0.4,0.7-1.2,1.5c-0.8,0.8-1.6,1.2-2.4,1.2
			c-0.3,0-0.5-0.1-0.7-0.3s-0.2-0.4-0.2-0.6c0-0.5,0.1-1.1,0.4-1.9c0-0.1,0.6-2,1.7-5.7l-0.9,0l-0.6,0c-0.1,0-0.1,0-0.1-0.1
			c0-0.2,0-0.3,0.1-0.4c0,0,0.2-0.1,0.5-0.1c0.3,0,0.7,0,1.3,0c0.2-0.6,0.4-1.2,0.6-2l0.4-1.2c0-0.1,0.1-0.1,0.1-0.1
			c0.2,0,0.5,0,0.7,0.1c0.2,0.1,0.3,0.1,0.3,0.2l0,0.1l-0.9,2.9l1.2,0c0.4,0,0.6,0,0.6,0c0,0,0,0,0,0.1c0,0.3,0,0.5-0.1,0.5
			l-0.7-0.1L112.8,175.5z"/>
		<path id="XMLID_132_" fill="#9A999E" d="M122.4,175c-0.2,0.4-0.5,1.6-1.1,3.5l-0.8,2.9c-0.2,0.5-0.3,1-0.3,1.4
			c0,0.2,0.1,0.4,0.3,0.4c0.1,0,0.4-0.1,0.6-0.3c0.3-0.2,0.6-0.5,0.8-0.9c0.2-0.2,0.3-0.3,0.4-0.3c0.1,0,0.2,0.1,0.2,0.2
			c0,0.2-0.3,0.6-1,1.3c-0.7,0.6-1.3,1-1.8,1c-0.4,0-0.6-0.3-0.6-0.8c0-0.4,0-0.9,0.1-1.5c-1,1.5-2,2.2-3.1,2.2
			c-0.5,0-0.8-0.2-1-0.6c-0.2-0.4-0.3-0.8-0.3-1.3c0-1.4,0.6-2.9,1.8-4.7c1.2-1.8,2.4-2.6,3.4-2.6c0.3,0,0.5,0.1,0.7,0.3
			c0.2,0.2,0.3,0.5,0.3,1c0.1-0.3,0.3-0.7,0.5-1.3c0.2,0,0.4,0.1,0.6,0.1C122.3,174.9,122.4,175,122.4,175z M119.5,175.3
			c-0.4,0-0.8,0.3-1.3,0.9c-0.5,0.6-1,1.5-1.4,2.6s-0.6,2.1-0.6,2.8c0,0.5,0.1,0.8,0.2,1s0.4,0.3,0.6,0.3c0.7,0,1.5-0.7,2.2-2.2
			c0.7-1.5,1.1-2.8,1.1-4c0-0.4-0.1-0.7-0.2-1C120,175.5,119.8,175.3,119.5,175.3z"/>
		<path id="XMLID_135_" fill="#9A999E" d="M128.1,181c0,0.8-0.3,1.5-0.8,2.1c-0.5,0.6-1.2,0.9-1.9,0.9c-0.6,0-1.1-0.2-1.5-0.6
			s-0.5-0.7-0.5-1c0-0.2,0.1-0.4,0.2-0.6c0.1-0.2,0.3-0.3,0.5-0.3c0.2,0,0.4,0.1,0.5,0.2c0.1,0.1,0.2,0.3,0.2,0.5
			c0,0.1,0,0.2-0.1,0.4c-0.1,0.2-0.1,0.3-0.1,0.4c0,0.2,0.1,0.3,0.2,0.4s0.4,0.1,0.6,0.1c0.5,0,0.8-0.1,1.1-0.4
			c0.3-0.3,0.4-0.7,0.4-1.1c0-0.4-0.2-1-0.7-1.7c-0.8-1.2-1.2-2.2-1.2-2.9c0-0.7,0.2-1.3,0.7-1.8c0.4-0.6,1-0.8,1.6-0.8
			c0.5,0,0.9,0.1,1.2,0.4c0.4,0.3,0.5,0.6,0.5,0.9c0,0.2-0.1,0.4-0.2,0.6s-0.3,0.2-0.5,0.2c-0.4,0-0.5-0.2-0.5-0.6l0-0.6
			c0-0.2-0.1-0.3-0.2-0.4c-0.2-0.1-0.3-0.2-0.5-0.2c-0.3,0-0.5,0.1-0.8,0.3c-0.2,0.2-0.4,0.5-0.4,0.9c0,0.4,0.4,1.1,1.1,2.1
			C127.7,179.6,128.1,180.4,128.1,181z"/>
		<path id="XMLID_137_" fill="#9A999E" d="M136.1,180.1c-0.2,1-0.3,1.7-0.3,2.2c0,0.3,0.1,0.6,0.2,0.8c0.2,0.2,0.4,0.4,0.6,0.4
			c0.4,0,0.8-0.2,1.2-0.5c0.4-0.3,0.8-0.8,1.1-1.3c0.1-0.2,0.3-0.4,0.4-0.4s0.2,0.1,0.2,0.2c0,0.4-0.3,0.9-1,1.5
			c-0.7,0.7-1.4,1-2.2,1c-0.6,0-1-0.2-1.4-0.7c-0.3-0.5-0.5-1-0.5-1.6c0-1.3,0.5-2.8,1.6-4.5s2.2-2.4,3.2-2.4c0.4,0,0.7,0.1,0.9,0.4
			c0.2,0.3,0.4,0.6,0.4,1c0,0.7-0.3,1.4-1,2.1S137.7,179.6,136.1,180.1z M136.2,179.6c1-0.5,1.8-1.1,2.4-1.8c0.6-0.7,1-1.4,1-2
			c0-0.1,0-0.3-0.1-0.4c-0.1-0.1-0.2-0.2-0.4-0.2c-0.4,0-0.9,0.3-1.4,0.9S136.6,177.9,136.2,179.6z"/>
		<path id="XMLID_140_" fill="#9A999E" d="M144.4,178.5c0.7-1.2,1.3-2.2,1.9-2.8c0.6-0.6,1.1-0.9,1.6-0.9c0.3,0,0.5,0.1,0.7,0.4
			c0.2,0.2,0.2,0.5,0.2,0.8c0,0.4-0.1,0.8-0.2,1.2c-0.1,0.4-0.4,1.3-0.8,2.6c-0.6,1.7-0.8,2.8-0.8,3.1c0,0.2,0.1,0.3,0.3,0.3
			c0.2,0,0.4-0.2,0.8-0.5s0.6-0.6,0.8-0.9c0.2-0.3,0.3-0.5,0.4-0.5s0.2,0.1,0.2,0.2c0,0.3-0.3,0.8-1,1.5c-0.6,0.7-1.3,1-1.9,1
			c-0.6,0-0.9-0.3-0.9-0.8c0-0.6,0.5-2.2,1.4-4.9c0.4-1,0.5-1.8,0.5-2.3c0-0.2,0-0.3-0.1-0.4c-0.1-0.1-0.1-0.1-0.3-0.1
			c-0.2,0-0.5,0.3-1.1,0.8s-1.1,1.5-1.8,2.9c-0.7,1.4-1.2,2.6-1.6,3.8c-0.3,0.7-0.4,1.1-0.5,1.1c-0.6,0-0.9-0.1-0.9-0.3l0-0.1
			l1.6-5.2c0.4-1.3,0.6-2.1,0.6-2.6c0-0.2-0.1-0.3-0.3-0.3c-0.2,0-0.4,0.2-0.8,0.5c-0.4,0.3-0.6,0.7-0.8,1c-0.2,0.2-0.3,0.4-0.4,0.4
			c-0.1,0-0.1-0.1-0.1-0.2c0-0.2,0.3-0.7,1-1.4s1.3-1.1,2-1.1c0.2,0,0.4,0.1,0.5,0.2c0.1,0.2,0.2,0.3,0.2,0.5
			C144.8,175.8,144.7,176.8,144.4,178.5z"/>
		<path id="XMLID_142_" fill="#9A999E" d="M164.8,169.6c-0.2,0.7-0.6,2.1-1.3,4.4c-1.5,5-2.3,7.9-2.3,8.6c0,0.1,0,0.2,0.1,0.3
			c0.1,0.1,0.1,0.1,0.2,0.1c0.4,0,1-0.5,1.8-1.6c0.1-0.2,0.2-0.2,0.2-0.2c0,0,0.1,0,0.1,0.1c0,0.1,0.1,0.1,0.1,0.1
			c0,0.1-0.2,0.3-0.5,0.8c-0.4,0.5-0.8,0.9-1.2,1.2s-0.8,0.5-1.1,0.5c-0.2,0-0.4-0.1-0.6-0.4c-0.2-0.3-0.3-0.6-0.3-1
			c0-0.2,0-0.5,0-0.8c-1.1,1.5-2.1,2.2-3.1,2.2c-0.6,0-1-0.2-1.3-0.5s-0.4-0.9-0.4-1.5c0-1.5,0.6-3,1.7-4.5c1.1-1.5,2.3-2.2,3.6-2.2
			c0.2,0,0.4,0,0.6,0.1c0.2,0,0.4,0.1,0.7,0.2l1.2-3.9c0.1-0.4,0.2-0.7,0.2-1c0-0.2-0.1-0.3-0.3-0.4c-0.2-0.1-0.5-0.2-1-0.3
			c-0.1,0-0.2-0.1-0.2-0.2c0-0.1,0.1-0.2,0.2-0.2s0.3,0,0.5,0C162.9,169.6,163.8,169.6,164.8,169.6z M160.3,175.7
			c-0.7,0-1.5,0.7-2.4,2c-0.9,1.3-1.3,2.6-1.3,3.9c0,0.5,0.1,0.9,0.2,1.2c0.2,0.4,0.4,0.5,0.6,0.5c0.4,0,0.9-0.3,1.5-1
			s1.2-1.6,1.6-2.7c0.5-1.2,0.7-2.1,0.7-2.9c0-0.3-0.1-0.5-0.2-0.7C160.8,175.8,160.6,175.7,160.3,175.7z"/>
		<path id="XMLID_145_" fill="#9A999E" d="M166.1,180.1c-0.2,1-0.3,1.7-0.3,2.2c0,0.3,0.1,0.6,0.2,0.8c0.2,0.2,0.4,0.4,0.6,0.4
			c0.4,0,0.8-0.2,1.2-0.5c0.4-0.3,0.8-0.8,1.1-1.3c0.1-0.2,0.3-0.4,0.4-0.4s0.2,0.1,0.2,0.2c0,0.4-0.3,0.9-1,1.5
			c-0.7,0.7-1.4,1-2.2,1c-0.6,0-1-0.2-1.4-0.7c-0.3-0.5-0.5-1-0.5-1.6c0-1.3,0.5-2.8,1.6-4.5s2.2-2.4,3.2-2.4c0.4,0,0.7,0.1,0.9,0.4
			c0.2,0.3,0.4,0.6,0.4,1c0,0.7-0.3,1.4-1,2.1S167.7,179.6,166.1,180.1z M166.2,179.6c1-0.5,1.8-1.1,2.4-1.8c0.6-0.7,1-1.4,1-2
			c0-0.1,0-0.3-0.1-0.4c-0.1-0.1-0.2-0.2-0.4-0.2c-0.4,0-0.9,0.3-1.4,0.9S166.7,177.9,166.2,179.6z"/>
		<path id="XMLID_148_" fill="#9A999E" d="M174.5,177.8c0.5-1,1-1.7,1.5-2.2c0.5-0.5,0.9-0.7,1.3-0.7c0.3,0,0.5,0.1,0.7,0.3
			c0.2,0.2,0.3,0.4,0.3,0.7c0,0.3-0.1,0.5-0.2,0.7s-0.3,0.3-0.6,0.3c-0.4,0-0.7-0.2-0.8-0.6c-0.1-0.3-0.1-0.4-0.3-0.4
			c-0.2,0-0.5,0.3-1,1c-0.5,0.7-0.9,1.6-1.4,2.6l-1.3,4.6h-0.5l-0.5,0l-0.1,0c0-0.2,0.2-0.8,0.6-2c0.9-3.8,1.4-5.9,1.4-6.3
			c0-0.1,0-0.2-0.1-0.2c-0.1,0-0.3,0.2-0.7,0.5c-0.3,0.4-0.6,0.7-0.9,1.1c-0.2,0.3-0.3,0.5-0.5,0.5s-0.2-0.1-0.2-0.2
			c0-0.2,0.3-0.7,1-1.5c0.7-0.8,1.2-1.2,1.7-1.2c0.3,0,0.5,0.1,0.6,0.3c0.1,0.2,0.2,0.4,0.2,0.5c0,0.2,0,0.6-0.1,1
			C174.6,176.8,174.5,177.2,174.5,177.8z"/>
		<path id="XMLID_150_" fill="#9A999E" d="M179.7,180.1c-0.2,1-0.3,1.7-0.3,2.2c0,0.3,0.1,0.6,0.2,0.8c0.2,0.2,0.4,0.4,0.6,0.4
			c0.4,0,0.8-0.2,1.2-0.5c0.4-0.3,0.8-0.8,1.1-1.3c0.1-0.2,0.3-0.4,0.4-0.4s0.2,0.1,0.2,0.2c0,0.4-0.3,0.9-1,1.5
			c-0.7,0.7-1.4,1-2.2,1c-0.6,0-1-0.2-1.4-0.7c-0.3-0.5-0.5-1-0.5-1.6c0-1.3,0.5-2.8,1.6-4.5s2.2-2.4,3.2-2.4c0.4,0,0.7,0.1,0.9,0.4
			c0.2,0.3,0.4,0.6,0.4,1c0,0.7-0.3,1.4-1,2.1S181.2,179.6,179.7,180.1z M179.8,179.6c1-0.5,1.8-1.1,2.4-1.8c0.6-0.7,1-1.4,1-2
			c0-0.1,0-0.3-0.1-0.4c-0.1-0.1-0.2-0.2-0.4-0.2c-0.4,0-0.9,0.3-1.4,0.9S180.2,177.9,179.8,179.6z"/>
		<path id="XMLID_153_" fill="#9A999E" d="M189.6,174.8c0.3,0,0.6,0.1,0.9,0.4c0.3,0.3,0.4,0.6,0.4,0.9c0,0.3-0.1,0.4-0.2,0.6
			c-0.1,0.1-0.3,0.2-0.4,0.2c-0.2,0-0.3-0.1-0.4-0.2c-0.1-0.1-0.2-0.3-0.3-0.7c-0.1-0.3-0.2-0.5-0.2-0.6c-0.1-0.1-0.2-0.1-0.3-0.1
			c-0.4,0-0.8,0.3-1.3,0.9s-0.9,1.5-1.3,2.6c-0.3,1.1-0.5,2-0.5,2.8c0,0.6,0.1,1,0.3,1.3c0.2,0.3,0.4,0.4,0.8,0.4
			c0.4,0,0.8-0.2,1.2-0.6c0.4-0.4,0.8-0.9,1.1-1.3c0.2-0.2,0.3-0.4,0.4-0.4c0.1,0,0.2,0.1,0.2,0.2c0,0.2-0.3,0.7-1,1.5
			c-0.7,0.8-1.5,1.2-2.4,1.2c-0.6,0-1.1-0.2-1.4-0.6c-0.4-0.4-0.5-0.9-0.5-1.5c0-1.1,0.3-2.2,0.9-3.4s1.3-2.1,2.1-2.7
			S189,174.8,189.6,174.8z"/>
		<path id="XMLID_155_" fill="#9A999E" d="M193.6,178.1c0.9-1.3,1.7-2.2,2.2-2.7c0.5-0.5,1-0.8,1.4-0.8c0.3,0,0.6,0.1,0.8,0.3
			s0.3,0.5,0.3,0.8c0,0.6-0.3,1.9-0.9,3.8c-0.6,1.8-0.9,2.9-0.9,3.3c0,0.2,0.1,0.3,0.3,0.3c0.2,0,0.4-0.2,0.8-0.5
			c0.4-0.4,0.7-0.8,1-1.2c0.1-0.1,0.2-0.2,0.3-0.2c0.1,0,0.2,0.1,0.2,0.2c0,0.2-0.3,0.7-1,1.4s-1.3,1.1-1.9,1.1
			c-0.6,0-0.9-0.3-0.9-0.8c0-0.4,0.1-0.8,0.3-1.3c0.3-0.9,0.7-2,1-3.3c0.4-1.3,0.6-2.2,0.6-2.6c0-0.2,0-0.3-0.1-0.4
			c-0.1-0.1-0.1-0.1-0.2-0.1c-0.3,0-0.8,0.3-1.4,0.9c-0.6,0.6-1.2,1.3-1.6,2.2c-0.4,0.8-0.8,2-1.3,3.5c-0.3,0.9-0.4,1.5-0.5,1.6
			c-0.1,0.1-0.1,0.2-0.2,0.2c-0.2,0-0.4,0-0.7-0.1c-0.3-0.1-0.4-0.1-0.4-0.2c0-0.1,0-0.2,0-0.2c0.1-0.2,0.5-1.8,1.4-4.8l1.3-4.7
			l0.7-2.7c0.1-0.3,0.1-0.5,0.1-0.7c0-0.2-0.3-0.4-1-0.6c-0.2,0-0.4-0.1-0.4-0.3s0.1-0.2,0.4-0.2l1.6,0c0.5,0,0.8,0,0.9,0
			c0,0,0.1,0.1,0.1,0.1l0,0.1c0,0,0,0.1-0.1,0.2C195.7,170.9,194.9,173.6,193.6,178.1z"/>
		<path id="XMLID_157_" fill="#9A999E" d="M204.1,174.8c0.8,0,1.5,0.4,2,1.1c0.5,0.7,0.7,1.6,0.7,2.5c0,1.4-0.4,2.6-1.3,3.8
			c-0.9,1.2-1.9,1.8-3.1,1.8c-0.9,0-1.5-0.4-1.9-1.1c-0.4-0.7-0.6-1.5-0.6-2.3c0-1,0.2-2.1,0.7-3c0.5-1,1.1-1.7,1.7-2.1
			C203,175.1,203.5,174.8,204.1,174.8z M204.3,175.3c-0.4,0-0.7,0.2-1.2,0.7c-0.4,0.5-0.8,1.3-1.3,2.5c-0.4,1.2-0.6,2.3-0.6,3.3
			c0,0.5,0.1,0.9,0.3,1.3c0.2,0.4,0.5,0.5,0.8,0.5c0.4,0,0.8-0.3,1.3-0.8c0.5-0.5,0.9-1.3,1.3-2.4c0.4-1.1,0.6-2.1,0.6-3.1
			c0-0.7-0.1-1.1-0.3-1.5S204.7,175.3,204.3,175.3z"/>
		<path id="XMLID_160_" fill="#9A999E" d="M217.6,174.8c0.3,0,0.6,0.1,0.9,0.4c0.3,0.3,0.4,0.6,0.4,0.9c0,0.3-0.1,0.4-0.2,0.6
			c-0.1,0.1-0.3,0.2-0.4,0.2c-0.2,0-0.3-0.1-0.4-0.2c-0.1-0.1-0.2-0.3-0.3-0.7c-0.1-0.3-0.2-0.5-0.2-0.6c-0.1-0.1-0.2-0.1-0.3-0.1
			c-0.4,0-0.8,0.3-1.3,0.9s-0.9,1.5-1.3,2.6c-0.3,1.1-0.5,2-0.5,2.8c0,0.6,0.1,1,0.3,1.3c0.2,0.3,0.4,0.4,0.8,0.4
			c0.4,0,0.8-0.2,1.2-0.6c0.4-0.4,0.8-0.9,1.1-1.3c0.2-0.2,0.3-0.4,0.4-0.4c0.1,0,0.2,0.1,0.2,0.2c0,0.2-0.3,0.7-1,1.5
			c-0.7,0.8-1.5,1.2-2.4,1.2c-0.6,0-1.1-0.2-1.4-0.6c-0.4-0.4-0.5-0.9-0.5-1.5c0-1.1,0.3-2.2,0.9-3.4s1.3-2.1,2.1-2.7
			S216.9,174.8,217.6,174.8z"/>
		<path id="XMLID_162_" fill="#9A999E" d="M223.4,174.8c0.8,0,1.5,0.4,2,1.1c0.5,0.7,0.7,1.6,0.7,2.5c0,1.4-0.4,2.6-1.3,3.8
			c-0.9,1.2-1.9,1.8-3.1,1.8c-0.9,0-1.5-0.4-1.9-1.1c-0.4-0.7-0.6-1.5-0.6-2.3c0-1,0.2-2.1,0.7-3c0.5-1,1.1-1.7,1.7-2.1
			C222.3,175.1,222.9,174.8,223.4,174.8z M223.6,175.3c-0.4,0-0.7,0.2-1.2,0.7c-0.4,0.5-0.8,1.3-1.3,2.5c-0.4,1.2-0.6,2.3-0.6,3.3
			c0,0.5,0.1,0.9,0.3,1.3c0.2,0.4,0.5,0.5,0.8,0.5c0.4,0,0.8-0.3,1.3-0.8c0.5-0.5,0.9-1.3,1.3-2.4c0.4-1.1,0.6-2.1,0.6-3.1
			c0-0.7-0.1-1.1-0.3-1.5S224,175.3,223.6,175.3z"/>
		<path id="XMLID_165_" fill="#9A999E" d="M230.4,178.5c0.7-1.2,1.3-2.2,1.9-2.8c0.6-0.6,1.1-0.9,1.6-0.9c0.3,0,0.5,0.1,0.7,0.4
			c0.2,0.2,0.2,0.5,0.2,0.8c0,0.4-0.1,0.8-0.2,1.2c-0.1,0.4-0.4,1.3-0.8,2.6c-0.6,1.7-0.8,2.8-0.8,3.1c0,0.2,0.1,0.3,0.3,0.3
			c0.2,0,0.4-0.2,0.8-0.5s0.6-0.6,0.8-0.9c0.2-0.3,0.3-0.5,0.4-0.5s0.2,0.1,0.2,0.2c0,0.3-0.3,0.8-1,1.5c-0.6,0.7-1.3,1-1.9,1
			c-0.6,0-0.9-0.3-0.9-0.8c0-0.6,0.5-2.2,1.4-4.9c0.4-1,0.5-1.8,0.5-2.3c0-0.2,0-0.3-0.1-0.4c-0.1-0.1-0.1-0.1-0.3-0.1
			c-0.2,0-0.5,0.3-1.1,0.8s-1.1,1.5-1.8,2.9c-0.7,1.4-1.2,2.6-1.6,3.8c-0.3,0.7-0.4,1.1-0.5,1.1c-0.6,0-0.9-0.1-0.9-0.3l0-0.1
			l1.6-5.2c0.4-1.3,0.6-2.1,0.6-2.6c0-0.2-0.1-0.3-0.3-0.3c-0.2,0-0.4,0.2-0.8,0.5c-0.4,0.3-0.6,0.7-0.8,1c-0.2,0.2-0.3,0.4-0.4,0.4
			c-0.1,0-0.1-0.1-0.1-0.2c0-0.2,0.3-0.7,1-1.4s1.3-1.1,2-1.1c0.2,0,0.4,0.1,0.5,0.2c0.1,0.2,0.2,0.3,0.2,0.5
			C230.9,175.8,230.8,176.8,230.4,178.5z"/>
		<path id="XMLID_167_" fill="#9A999E" d="M241,181c0,0.8-0.3,1.5-0.8,2.1c-0.5,0.6-1.2,0.9-1.9,0.9c-0.6,0-1.1-0.2-1.5-0.6
			s-0.5-0.7-0.5-1c0-0.2,0.1-0.4,0.2-0.6s0.3-0.3,0.5-0.3c0.2,0,0.4,0.1,0.5,0.2c0.1,0.1,0.2,0.3,0.2,0.5c0,0.1,0,0.2-0.1,0.4
			c-0.1,0.2-0.1,0.3-0.1,0.4c0,0.2,0.1,0.3,0.2,0.4c0.1,0.1,0.4,0.1,0.6,0.1c0.5,0,0.8-0.1,1.1-0.4c0.3-0.3,0.4-0.7,0.4-1.1
			c0-0.4-0.2-1-0.7-1.7c-0.8-1.2-1.2-2.2-1.2-2.9c0-0.7,0.2-1.3,0.7-1.8s1-0.8,1.6-0.8c0.5,0,0.9,0.1,1.2,0.4
			c0.4,0.3,0.5,0.6,0.5,0.9c0,0.2-0.1,0.4-0.2,0.6s-0.3,0.2-0.5,0.2c-0.4,0-0.5-0.2-0.5-0.6l0-0.6c0-0.2-0.1-0.3-0.2-0.4
			c-0.2-0.1-0.3-0.2-0.5-0.2c-0.3,0-0.5,0.1-0.8,0.3c-0.2,0.2-0.4,0.5-0.4,0.9c0,0.4,0.4,1.1,1.1,2.1C240.6,179.6,241,180.4,241,181
			z"/>
		<path id="XMLID_169_" fill="#9A999E" d="M246.1,175.5c-0.1,0.2-0.2,0.8-0.5,1.7c-0.9,2.9-1.4,4.7-1.4,5.4c0,0.4,0.1,0.6,0.4,0.6
			c0.5,0,1.2-0.6,2.1-1.8c0.1-0.2,0.2-0.2,0.3-0.2c0.1,0,0.2,0,0.2,0.1c0,0.2-0.4,0.7-1.2,1.5c-0.8,0.8-1.6,1.2-2.4,1.2
			c-0.3,0-0.5-0.1-0.7-0.3s-0.2-0.4-0.2-0.6c0-0.5,0.1-1.1,0.4-1.9c0-0.1,0.6-2,1.7-5.7l-0.9,0l-0.6,0c-0.1,0-0.1,0-0.1-0.1
			c0-0.2,0-0.3,0.1-0.4c0,0,0.2-0.1,0.5-0.1c0.3,0,0.7,0,1.3,0c0.2-0.6,0.4-1.2,0.6-2l0.4-1.2c0-0.1,0.1-0.1,0.1-0.1
			c0.2,0,0.5,0,0.7,0.1c0.2,0.1,0.3,0.1,0.3,0.2l0,0.1l-0.9,2.9l1.2,0c0.4,0,0.6,0,0.6,0c0,0,0,0,0,0.1c0,0.3,0,0.5-0.1,0.5
			l-0.7-0.1L246.1,175.5z"/>
		<path id="XMLID_171_" fill="#9A999E" d="M249.6,183.2c0,0.1,0,0.2,0.1,0.3c0,0.1,0.1,0.1,0.2,0.1c0.2,0,0.5-0.1,0.8-0.4
			c0.3-0.2,0.7-0.6,1-0.9c0.1-0.2,0.2-0.2,0.3-0.2c0.1,0,0.2,0.1,0.2,0.2c0,0.2-0.3,0.6-1,1.1s-1.2,0.8-1.8,0.8
			c-0.3,0-0.6-0.1-0.8-0.2c-0.2-0.2-0.3-0.3-0.3-0.6c0-0.3,0.4-1.4,1.1-3.3c0.9-2.4,1.3-3.7,1.3-4.1c0-0.1,0-0.2-0.1-0.3
			c0-0.1-0.1-0.1-0.2-0.1c-0.3,0-0.7,0.3-1.3,1c-0.2,0.3-0.4,0.4-0.5,0.4c-0.1,0-0.1-0.1-0.1-0.2c0-0.2,0.3-0.6,1-1.1
			c0.7-0.6,1.3-0.8,1.8-0.8c0.2,0,0.4,0.1,0.6,0.3c0.2,0.2,0.2,0.4,0.2,0.6c0,0.3,0,0.5-0.1,0.7s-0.6,1.5-1.4,3.8
			C250,182,249.6,183,249.6,183.2z M252.7,169.7c0.2,0,0.4,0.1,0.5,0.2c0.1,0.2,0.2,0.4,0.2,0.6c0,0.2-0.1,0.4-0.2,0.6
			c-0.1,0.2-0.3,0.2-0.5,0.2c-0.2,0-0.4-0.1-0.5-0.2c-0.1-0.2-0.2-0.4-0.2-0.6c0-0.2,0.1-0.4,0.2-0.6S252.5,169.7,252.7,169.7z"/>
		<path id="XMLID_174_" fill="#9A999E" d="M257,175.5c-0.1,0.2-0.2,0.8-0.5,1.7c-0.9,2.9-1.4,4.7-1.4,5.4c0,0.4,0.1,0.6,0.4,0.6
			c0.5,0,1.2-0.6,2.1-1.8c0.1-0.2,0.2-0.2,0.3-0.2c0.1,0,0.2,0,0.2,0.1c0,0.2-0.4,0.7-1.2,1.5c-0.8,0.8-1.6,1.2-2.4,1.2
			c-0.3,0-0.5-0.1-0.7-0.3s-0.2-0.4-0.2-0.6c0-0.5,0.1-1.1,0.4-1.9c0-0.1,0.6-2,1.7-5.7l-0.9,0l-0.6,0c-0.1,0-0.1,0-0.1-0.1
			c0-0.2,0-0.3,0.1-0.4c0,0,0.2-0.1,0.5-0.1c0.3,0,0.7,0,1.3,0c0.2-0.6,0.4-1.2,0.6-2l0.4-1.2c0-0.1,0.1-0.1,0.1-0.1
			c0.2,0,0.5,0,0.7,0.1c0.2,0.1,0.3,0.1,0.3,0.2l0,0.1l-0.9,2.9l1.2,0c0.4,0,0.6,0,0.6,0c0,0,0,0,0,0.1c0,0.3,0,0.5-0.1,0.5
			l-0.7-0.1L257,175.5z"/>
		<path id="XMLID_176_" fill="#9A999E" d="M267,175c-0.1,0.4-0.3,1-0.6,2c-1.1,3.2-1.6,5.2-1.6,5.9c0,0.1,0,0.2,0.1,0.2
			s0.1,0.1,0.2,0.1c0.2,0,0.5-0.2,0.8-0.6c0.3-0.4,0.6-0.7,0.8-1.1c0.1-0.3,0.3-0.4,0.4-0.4c0.1,0,0.2,0.1,0.2,0.2
			c0,0.3-0.3,0.8-1,1.6c-0.7,0.8-1.3,1.2-1.8,1.2c-0.2,0-0.4-0.1-0.5-0.3s-0.2-0.4-0.2-0.8c0-0.7,0.1-1.5,0.4-2.5
			c-1.4,2.4-2.6,3.5-3.5,3.5c-0.2,0-0.5-0.1-0.6-0.3c-0.2-0.2-0.3-0.5-0.3-0.8s0-0.6,0.1-0.9s0.3-1.2,0.8-2.7
			c0.4-1.5,0.7-2.4,0.8-2.6c0.1-0.3,0.2-0.6,0.2-0.8c0-0.1,0-0.1,0-0.2c0,0-0.1-0.1-0.2-0.1c-0.3,0-0.8,0.5-1.5,1.4
			c-0.3,0.4-0.5,0.6-0.5,0.6c-0.1,0-0.1,0-0.1-0.1c0-0.2,0.3-0.7,1-1.5c0.7-0.7,1.2-1.1,1.7-1.1c0.2,0,0.4,0.1,0.6,0.3
			c0.2,0.2,0.3,0.5,0.3,0.7c0,0.4-0.2,1.2-0.6,2.3c-0.8,2.3-1.3,3.8-1.3,4.5c0,0.1,0,0.3,0.1,0.4s0.1,0.2,0.2,0.2
			c0.1,0,0.3-0.1,0.6-0.3c0.2-0.2,0.7-0.7,1.2-1.6c0.6-0.9,1.1-1.9,1.6-3l1.5-3.4c0.1,0,0.2-0.1,0.4-0.1
			C266.5,174.9,266.8,174.9,267,175z"/>
		<path id="XMLID_178_" fill="#9A999E" d="M273,174.8c0.3,0,0.6,0.1,0.9,0.4c0.3,0.3,0.4,0.6,0.4,0.9c0,0.3-0.1,0.4-0.2,0.6
			c-0.1,0.1-0.3,0.2-0.4,0.2c-0.2,0-0.3-0.1-0.4-0.2c-0.1-0.1-0.2-0.3-0.3-0.7c-0.1-0.3-0.2-0.5-0.2-0.6c-0.1-0.1-0.2-0.1-0.3-0.1
			c-0.4,0-0.8,0.3-1.3,0.9c-0.5,0.6-0.9,1.5-1.3,2.6c-0.3,1.1-0.5,2-0.5,2.8c0,0.6,0.1,1,0.3,1.3c0.2,0.3,0.4,0.4,0.8,0.4
			c0.4,0,0.8-0.2,1.2-0.6c0.4-0.4,0.8-0.9,1.1-1.3c0.2-0.2,0.3-0.4,0.4-0.4c0.1,0,0.2,0.1,0.2,0.2c0,0.2-0.3,0.7-1,1.5
			c-0.7,0.8-1.5,1.2-2.4,1.2c-0.6,0-1.1-0.2-1.4-0.6s-0.5-0.9-0.5-1.5c0-1.1,0.3-2.2,0.9-3.4c0.6-1.2,1.3-2.1,2.1-2.7
			C271.6,175.2,272.3,174.8,273,174.8z"/>
		<path id="XMLID_180_" fill="#9A999E" d="M276.1,183.2c0,0.1,0,0.2,0.1,0.3c0,0.1,0.1,0.1,0.2,0.1c0.2,0,0.5-0.1,0.8-0.4
			c0.3-0.2,0.7-0.6,1-0.9c0.1-0.2,0.2-0.2,0.3-0.2c0.1,0,0.2,0.1,0.2,0.2c0,0.2-0.3,0.6-1,1.1s-1.2,0.8-1.8,0.8
			c-0.3,0-0.6-0.1-0.8-0.2c-0.2-0.2-0.3-0.3-0.3-0.6c0-0.3,0.4-1.4,1.1-3.3c0.9-2.4,1.3-3.7,1.3-4.1c0-0.1,0-0.2-0.1-0.3
			c0-0.1-0.1-0.1-0.2-0.1c-0.3,0-0.7,0.3-1.3,1c-0.2,0.3-0.4,0.4-0.5,0.4c-0.1,0-0.1-0.1-0.1-0.2c0-0.2,0.3-0.6,1-1.1
			c0.7-0.6,1.3-0.8,1.8-0.8c0.2,0,0.4,0.1,0.6,0.3c0.2,0.2,0.2,0.4,0.2,0.6c0,0.3,0,0.5-0.1,0.7s-0.6,1.5-1.4,3.8
			C276.5,182,276.1,183,276.1,183.2z M279.2,169.7c0.2,0,0.4,0.1,0.5,0.2c0.1,0.2,0.2,0.4,0.2,0.6c0,0.2-0.1,0.4-0.2,0.6
			c-0.1,0.2-0.3,0.2-0.5,0.2c-0.2,0-0.4-0.1-0.5-0.2c-0.1-0.2-0.2-0.4-0.2-0.6c0-0.2,0.1-0.4,0.2-0.6S279,169.7,279.2,169.7z"/>
		<path id="XMLID_183_" fill="#9A999E" d="M284.3,174.8c0.8,0,1.5,0.4,2,1.1c0.5,0.7,0.7,1.6,0.7,2.5c0,1.4-0.4,2.6-1.3,3.8
			c-0.9,1.2-1.9,1.8-3.1,1.8c-0.9,0-1.5-0.4-1.9-1.1s-0.6-1.5-0.6-2.3c0-1,0.2-2.1,0.7-3c0.5-1,1.1-1.7,1.7-2.1
			C283.1,175.1,283.7,174.8,284.3,174.8z M284.4,175.3c-0.4,0-0.7,0.2-1.2,0.7c-0.4,0.5-0.8,1.3-1.3,2.5c-0.4,1.2-0.6,2.3-0.6,3.3
			c0,0.5,0.1,0.9,0.3,1.3c0.2,0.4,0.5,0.5,0.8,0.5c0.4,0,0.8-0.3,1.3-0.8c0.5-0.5,0.9-1.3,1.3-2.4c0.4-1.1,0.6-2.1,0.6-3.1
			c0-0.7-0.1-1.1-0.3-1.5S284.9,175.3,284.4,175.3z"/>
		<path id="XMLID_186_" fill="#9A999E" d="M291.3,178.5c0.7-1.2,1.3-2.2,1.9-2.8c0.6-0.6,1.1-0.9,1.6-0.9c0.3,0,0.5,0.1,0.7,0.4
			c0.2,0.2,0.2,0.5,0.2,0.8c0,0.4-0.1,0.8-0.2,1.2c-0.1,0.4-0.4,1.3-0.8,2.6c-0.6,1.7-0.8,2.8-0.8,3.1c0,0.2,0.1,0.3,0.3,0.3
			c0.2,0,0.4-0.2,0.8-0.5s0.6-0.6,0.8-0.9c0.2-0.3,0.3-0.5,0.4-0.5s0.2,0.1,0.2,0.2c0,0.3-0.3,0.8-1,1.5c-0.6,0.7-1.3,1-1.9,1
			c-0.6,0-0.9-0.3-0.9-0.8c0-0.6,0.5-2.2,1.4-4.9c0.4-1,0.5-1.8,0.5-2.3c0-0.2,0-0.3-0.1-0.4c-0.1-0.1-0.1-0.1-0.3-0.1
			c-0.2,0-0.5,0.3-1.1,0.8c-0.5,0.5-1.1,1.5-1.8,2.9c-0.7,1.4-1.2,2.6-1.6,3.8c-0.3,0.7-0.4,1.1-0.5,1.1c-0.6,0-0.9-0.1-0.9-0.3
			l0-0.1l1.6-5.2c0.4-1.3,0.6-2.1,0.6-2.6c0-0.2-0.1-0.3-0.3-0.3c-0.2,0-0.4,0.2-0.8,0.5c-0.4,0.3-0.6,0.7-0.8,1
			c-0.2,0.2-0.3,0.4-0.4,0.4c-0.1,0-0.1-0.1-0.1-0.2c0-0.2,0.3-0.7,1-1.4c0.7-0.7,1.3-1.1,2-1.1c0.2,0,0.4,0.1,0.5,0.2
			c0.1,0.2,0.2,0.3,0.2,0.5C291.8,175.8,291.6,176.8,291.3,178.5z"/>
		<path id="XMLID_188_" fill="#9A999E" d="M305.1,175c-0.2,0.4-0.5,1.6-1.1,3.5l-0.8,2.9c-0.2,0.5-0.3,1-0.3,1.4
			c0,0.2,0.1,0.4,0.3,0.4c0.1,0,0.4-0.1,0.6-0.3s0.6-0.5,0.8-0.9c0.2-0.2,0.3-0.3,0.4-0.3c0.1,0,0.2,0.1,0.2,0.2
			c0,0.2-0.3,0.6-1,1.3s-1.3,1-1.8,1c-0.4,0-0.5-0.3-0.5-0.8c0-0.4,0-0.9,0.1-1.5c-1,1.5-2,2.2-3.1,2.2c-0.5,0-0.8-0.2-1-0.6
			c-0.2-0.4-0.3-0.8-0.3-1.3c0-1.4,0.6-2.9,1.8-4.7c1.2-1.8,2.4-2.6,3.4-2.6c0.3,0,0.5,0.1,0.7,0.3c0.2,0.2,0.3,0.5,0.3,1
			c0.1-0.3,0.3-0.7,0.5-1.3c0.2,0,0.4,0.1,0.6,0.1C304.9,174.9,305,175,305.1,175z M302.1,175.3c-0.4,0-0.8,0.3-1.3,0.9
			c-0.5,0.6-1,1.5-1.4,2.6c-0.4,1.1-0.6,2.1-0.6,2.8c0,0.5,0.1,0.8,0.2,1s0.4,0.3,0.6,0.3c0.7,0,1.5-0.7,2.2-2.2
			c0.7-1.5,1.1-2.8,1.1-4c0-0.4-0.1-0.7-0.2-1C302.6,175.5,302.4,175.3,302.1,175.3z"/>
		<path id="XMLID_191_" fill="#9A999E" d="M311.5,169.4c-0.1,0.5-0.7,2.5-1.6,6l-1.8,6.5c-0.2,0.8-0.3,1.3-0.3,1.5
			c0,0.1,0,0.2,0.1,0.2c0.2,0,0.5-0.2,1.1-0.7c0.5-0.5,0.9-0.9,1.1-1.3c0.2-0.3,0.3-0.4,0.3-0.4c0.1,0,0.2,0.1,0.2,0.2
			c0,0.2-0.4,0.8-1.1,1.6c-0.7,0.8-1.4,1.2-2.1,1.2c-0.2,0-0.4-0.1-0.5-0.2c-0.2-0.2-0.2-0.4-0.2-0.7c0-0.5,0.1-1,0.2-1.6
			c0.1-0.6,0.7-2.8,1.8-6.6c0.7-2.5,1.1-4,1.1-4.3c0-0.4-0.4-0.6-1.1-0.6c-0.3,0-0.4-0.1-0.4-0.2c0-0.1,0.1-0.2,0.4-0.2L311.5,169.4
			z"/>
	</g>
</g>
</svg>
