<?xml version="1.0" encoding="utf-8"?>
<!-- Generator: Adobe Illustrator 18.1.1, SVG Export Plug-In . SVG Version: 6.00 Build 0)  -->
<svg version="1.1" id="Capa_1" xmlns="http://www.w3.org/2000/svg" xmlns:xlink="http://www.w3.org/1999/xlink" x="0px" y="0px"
	 viewBox="0 0 255.1 141.7" enable-background="new 0 0 255.1 141.7" xml:space="preserve">
<g>
	<g>
		<path fill="#214F9E" d="M127.6,0L127.6,0C88.5,0,56.7,31.8,56.7,70.9c0,15.5,5,29.9,13.5,41.5l-8.8,26.3l27.2-8.7
			c11.2,7.4,24.6,11.7,39,11.7c39.1,0,70.8-31.8,70.8-70.9S166.7,0,127.6,0z M168.8,100.1c-1.7,4.8-8.5,8.8-13.9,10
			c-3.7,0.8-8.5,1.4-24.8-5.3c-20.8-8.6-34.2-29.8-35.3-31.2c-1-1.4-8.4-11.2-8.4-21.4s5.2-15.1,7.2-17.2c1.7-1.7,4.5-2.5,7.2-2.5
			c0.9,0,1.7,0,2.4,0.1c2.1,0.1,3.1,0.2,4.5,3.5c1.7,4.1,5.9,14.3,6.4,15.3c0.5,1,1,2.5,0.3,3.8c-0.7,1.4-1.2,2-2.3,3.3
			c-1,1.2-2,2.1-3.1,3.4c-1,1.1-2,2.3-0.8,4.4c1.2,2,5.4,8.8,11.5,14.3c7.9,7,14.3,9.3,16.6,10.2c1.7,0.7,3.7,0.5,5-0.8
			c1.6-1.7,3.5-4.5,5.5-7.3c1.4-2,3.2-2.2,5.1-1.5c1.9,0.7,12,5.7,14.1,6.7c2.1,1,3.5,1.5,4,2.4C170.5,91.1,170.5,95.2,168.8,100.1z
			"/>
	</g>
</g>
</svg>
