<?xml version="1.0" encoding="utf-8"?>
<!-- Generator: Adobe Illustrator 18.1.1, SVG Export Plug-In . SVG Version: 6.00 Build 0)  -->
<svg version="1.1" id="Capa_1" xmlns="http://www.w3.org/2000/svg" xmlns:xlink="http://www.w3.org/1999/xlink" x="0px" y="0px"
	 viewBox="0 0 255.1 141.7" enable-background="new 0 0 255.1 141.7" xml:space="preserve">
<g>
	<g>
		<path fill="#214F9E" d="M67.9,27.1L119,67.6c2.3,1.8,5.5,2.6,8.6,2.5c3.1,0.2,6.3-0.7,8.6-2.5l51.1-40.4c4.1-3.2,3.2-5.9-2-5.9
			h-57.6H69.9C64.7,21.3,63.8,23.9,67.9,27.1z"/>
		<path fill="#214F9E" d="M190.9,37.8l-55.8,42.4c-2.1,1.6-4.8,2.3-7.5,2.3c-2.7,0-5.5-0.7-7.5-2.3L64.2,37.8
			c-4.1-3.1-7.5-1.5-7.5,3.7V111c0,5.2,4.3,9.4,9.4,9.4h61.4H189c5.2,0,9.4-4.3,9.4-9.4V41.5C198.4,36.3,195,34.7,190.9,37.8z"/>
	</g>
</g>
</svg>
