<?xml version="1.0" encoding="utf-8"?>
<!-- Generator: Adobe Illustrator 18.1.1, SVG Export Plug-In . SVG Version: 6.00 Build 0)  -->
<svg version="1.1" id="Capa_1" xmlns="http://www.w3.org/2000/svg" xmlns:xlink="http://www.w3.org/1999/xlink" x="0px" y="0px"
	 viewBox="91 -148.8 438.5 438.5" enable-background="new 91 -148.8 438.5 438.5" xml:space="preserve">
<g>
	<path fill="#1BA8E4" d="M505.4-124.7c-16.1-16.1-35.4-24.1-58.1-24.1H173.2c-22.6,0-42,8-58.1,24.1C99-108.6,91-89.2,91-66.6v274.1
		c0,22.6,8,42,24.1,58.1c16.1,16.1,35.5,24.1,58.1,24.1h274.1c22.6,0,42-8,58.1-24.1c16.1-16.1,24.1-35.5,24.1-58.1V-66.6
		C529.5-89.2,521.5-108.6,505.4-124.7z M224.6,218.4h-66V20.2h66L224.6,218.4L224.6,218.4z M218.6-16.5c-6.9,6.6-15.9,9.9-27.1,9.9
		h-0.3c-10.8,0-19.6-3.3-26.4-9.9c-6.8-6.6-10.1-14.7-10.1-24.4c0-9.9,3.5-18.1,10.4-24.6c6.9-6.5,15.9-9.7,27-9.7
		c11,0,19.9,3.2,26.6,9.7c6.7,6.5,10.1,14.7,10.3,24.6C228.9-31.2,225.5-23,218.6-16.5z M461.9,218.4h-66V112.4
		c0-29.9-11-44.8-33.1-44.8c-8.4,0-15.4,2.3-21.1,7c-5.7,4.7-10,10.3-12.8,17c-1.3,3.4-2,8.8-2,16v110.8h-66
		c0.6-119.5,0.6-185.6,0-198.1h66v28c13.9-21.7,33.6-32.5,59.1-32.5c22.8,0,41.2,7.5,55.1,22.6c13.9,15,20.8,37.2,20.8,66.5
		L461.9,218.4L461.9,218.4L461.9,218.4z"/>
</g>
</svg>
