<?xml version="1.0" encoding="utf-8"?>
<!-- Generator: Adobe Illustrator 18.1.1, SVG Export Plug-In . SVG Version: 6.00 Build 0)  -->
<svg version="1.1" id="Capa_1" xmlns="http://www.w3.org/2000/svg" xmlns:xlink="http://www.w3.org/1999/xlink" x="0px" y="0px"
	 viewBox="0 0 255.1 141.7" enable-background="new 0 0 255.1 141.7" xml:space="preserve">
<g>
	<g>
		<g>
			<path fill="#1BA8E4" d="M171.9,0H83.3C68.6,0,56.7,11.9,56.7,26.6v88.6c0,14.7,11.9,26.6,26.6,26.6h88.6
				c14.7,0,26.6-11.9,26.6-26.6V26.6C198.4,11.9,186.5,0,171.9,0z M162.8,55l0.1,2.3c0,23.1-17.5,49.6-49.6,49.6
				c-9.9,0-19-2.9-26.7-7.8c1.4,0.2,2.8,0.2,4.2,0.2c8.2,0,15.7-2.8,21.7-7.5c-7.6-0.1-14.1-5.2-16.3-12.1c1.1,0.2,2.2,0.3,3.3,0.3
				c1.6,0,3.1-0.2,4.6-0.6c-8-1.6-14-8.7-14-17.1v-0.2c2.4,1.3,5,2.1,7.9,2.2c-4.7-3.1-7.8-8.5-7.8-14.5c0-3.2,0.9-6.2,2.4-8.8
				c8.6,10.6,21.5,17.5,36,18.2c-0.3-1.3-0.5-2.6-0.5-4c0-9.6,7.8-17.4,17.5-17.4c5,0,9.5,2.1,12.7,5.5c4-0.8,7.7-2.2,11.1-4.2
				c-1.3,4.1-4.1,7.5-7.7,9.7c3.5-0.4,6.9-1.4,10-2.7C169.2,49.4,166.2,52.5,162.8,55z"/>
		</g>
	</g>
</g>
</svg>
