<?xml version="1.0" encoding="utf-8"?>
<!-- Generator: Adobe Illustrator 18.1.1, SVG Export Plug-In . SVG Version: 6.00 Build 0)  -->
<svg version="1.1" id="Layer_1" xmlns="http://www.w3.org/2000/svg" xmlns:xlink="http://www.w3.org/1999/xlink" x="0px" y="0px"
	 viewBox="0 0 255.1 141.7" enable-background="new 0 0 255.1 141.7" xml:space="preserve">
<path fill="#1BA8E4" d="M179.3,0H75.8C65.2,0,56.7,8.6,56.7,19.1v103.5c0,10.5,8.6,19.1,19.1,19.1h51.1l0.1-50.6h-13.2
	c-1.7,0-3.1-1.4-3.1-3.1l-0.1-16.3c0-1.7,1.4-3.1,3.1-3.1h13.1V52.8c0-18.3,11.2-28.3,27.5-28.3h13.4c1.7,0,3.1,1.4,3.1,3.1v13.8
	c0,1.7-1.4,3.1-3.1,3.1l-8.2,0c-8.9,0-10.6,4.2-10.6,10.4v13.7h19.5c1.9,0,3.3,1.6,3.1,3.5l-1.9,16.3c-0.2,1.6-1.5,2.7-3.1,2.7H149
	l-0.1,50.6h30.4c10.5,0,19.1-8.6,19.1-19.1V19.1C198.4,8.6,189.9,0,179.3,0z"/>
</svg>
