<?xml version="1.0" encoding="utf-8"?>
<!-- Generator: Adobe Illustrator 22.0.1, SVG Export Plug-In . SVG Version: 6.00 Build 0)  -->
<svg version="1.1" id="Layer_1" xmlns="http://www.w3.org/2000/svg" xmlns:xlink="http://www.w3.org/1999/xlink" x="0px" y="0px"
	 viewBox="0 0 88.5 92.6" style="enable-background:new 0 0 88.5 92.6;" xml:space="preserve">
<style type="text/css">
	.st0{fill:#98AFD3;}
	.st1{fill:#FFFFFF;}
	.st2{fill:#254F9C;}
	.st3{fill-rule:evenodd;clip-rule:evenodd;fill:#254F9C;}
</style>
<g>
	<path class="st0" d="M83.3,92.6c0,0-14.7-15.3-18.4-19.5H33c-7.3,0-13-5.6-13-12.7V20.6c0-7.3,5.8-13.3,13-13.3h42.4
		c7.2,0,13,5.8,13,13v39.7c0,6.6-4.9,12.1-11.3,12.9L83.3,92.6z"/>
	<path class="st1" d="M33,10.3h42.4c5.5,0,10,4.5,10,10v39.7c0,5.5-4.5,10-10,10h-2.8l5.9,14.2c0,0-9.3-10.7-12.3-14.2H33
		c-5.5,0-10-4.2-10-9.7V20.6C23,15.1,27.5,10.3,33,10.3z"/>
	<g>
		<path class="st2" d="M5.1,84.9l5.8-20.5C4.7,63,0,57.4,0,50.7V14C0,6.3,6.3,0,14,0h51.4c7.7,0,14,6.3,14,14v36.7
			c0,7.7-6.3,14-14,14H25C21.2,69.2,5.1,84.9,5.1,84.9z"/>
	</g>
	<g>
		<path class="st1" d="M65.4,4H14C8.5,4,4,8.5,4,14v36.7c0,5.5,4.5,10,10,10h2.8l-5.8,14.7c0,0,9.3-11.3,12.2-14.7h42.3
			c5.5,0,10-4.5,10-10V14C75.4,8.5,71,4,65.4,4z"/>
	</g>
	<g>
		<path class="st3" d="M32.3,19.9c0-1.6-1-3.5-4.9-3.5h-6.2l-1.8,8.1h6.4C30.9,24.5,32.3,22.1,32.3,19.9z"/>
		<path class="st3" d="M48.9,19.9c0-1.6-0.9-3.5-4.9-3.5h-6.2L36,24.5h6.4C47.5,24.5,48.9,22.1,48.9,19.9z"/>
		<path class="st3" d="M30.1,32.1c0-1.6-1-3.5-4.9-3.5H19l-1.8,8.1h6.4C28.7,36.7,30.1,34.3,30.1,32.1z"/>
		<path class="st3" d="M46.7,32.1c0-1.6-1-3.5-4.9-3.5h-6.2l-1.8,8.1h6.4C45.2,36.7,46.7,34.3,46.7,32.1z"/>
		<path class="st3" d="M64,27.1c0-1.6-1-3.5-4.9-3.5h-6.2l-1.8,8.1h6.4C62.6,31.7,64,29.4,64,27.1z"/>
		<path class="st3" d="M61.6,39.8c0-1.6-0.9-3.5-4.9-3.5h-6.2l-1.8,8.1h6.4C60.2,44.4,61.6,42,61.6,39.8z"/>
		<path class="st3" d="M44.3,44.8c0-1.6-0.9-3.5-4.9-3.5h-6.2l-1.7,8.1h6.4C42.9,49.4,44.3,47,44.3,44.8z"/>
	</g>
</g>
</svg>
