<?xml version="1.0" encoding="utf-8"?>
<!-- Generator: Adobe Illustrator 22.0.1, SVG Export Plug-In . SVG Version: 6.00 Build 0)  -->
<svg version="1.1" id="Layer_1" xmlns="http://www.w3.org/2000/svg" xmlns:xlink="http://www.w3.org/1999/xlink" x="0px" y="0px"
	 viewBox="0 0 88.5 92.6" style="enable-background:new 0 0 88.5 92.6;" xml:space="preserve">
<style type="text/css">
	.st0{fill:#254F9C;}
</style>
<g>
	<path class="st0" d="M57.6,8.2H31.4c-0.7,0-1.2-0.5-1.2-1.2V1.2c0-0.7,0.5-1.2,1.2-1.2l26.3,0c0.7,0,1.2,0.5,1.2,1.2V7
		C58.9,7.7,58.3,8.2,57.6,8.2z"/>
	<path class="st0" d="M64.7,20.4H32c-0.7,0-1.2-0.5-1.2-1.2v-5.8c0-0.7,0.5-1.2,1.2-1.2h32.6c0.7,0,1.2,0.5,1.2,1.2v5.8
		C65.9,19.8,65.3,20.4,64.7,20.4z"/>
	<path class="st0" d="M76.1,20.4h-7.4c-0.7,0-1.2-0.5-1.2-1.2v-5.8c0-0.7,0.5-1.2,1.2-1.2h7.4c0.7,0,1.2,0.5,1.2,1.2v5.8
		C77.3,19.8,76.7,20.4,76.1,20.4z"/>
	<path class="st0" d="M44,32.2h-9.7c-0.7,0-1.2-0.5-1.2-1.2v-5.8c0-0.7,0.5-1.2,1.2-1.2H44c0.7,0,1.2,0.5,1.2,1.2v5.8
		C45.2,31.6,44.7,32.2,44,32.2z"/>
	<path class="st0" d="M27.2,20.4H13.6c-0.7,0-1.2-0.5-1.2-1.2v-5.8c0-0.7,0.5-1.2,1.2-1.2h13.6c0.7,0,1.2,0.5,1.2,1.2v5.8
		C28.4,19.8,27.9,20.4,27.2,20.4z"/>
	<path class="st0" d="M15.5,44H3.9c-0.7,0-1.2-0.5-1.2-1.2v-5.8c0-0.7,0.5-1.2,1.2-1.2h11.6c0.7,0,1.2,0.5,1.2,1.2v5.8
		C16.8,43.4,16.2,44,15.5,44z"/>
	<path class="st0" d="M60,56.3H49.3c-0.7,0-1.2-0.5-1.2-1.2v-5.8c0-0.7,0.5-1.2,1.2-1.2H60c0.7,0,1.2,0.5,1.2,1.2v5.8
		C61.2,55.8,60.7,56.3,60,56.3z"/>
	<path class="st0" d="M82.4,56.3H64.9c-0.7,0-1.2-0.5-1.2-1.2v-5.8c0-0.7,0.5-1.2,1.2-1.2h17.5c0.7,0,1.2,0.5,1.2,1.2v5.8
		C83.7,55.8,83.1,56.3,82.4,56.3z"/>
	<path class="st0" d="M42.5,68.3h-8.2c-0.7,0-1.2-0.5-1.2-1.2v-5.8c0-0.7,0.5-1.2,1.2-1.2h8.2c0.7,0,1.2,0.5,1.2,1.2v5.8
		C43.7,67.8,43.2,68.3,42.5,68.3z"/>
	<path class="st0" d="M41.6,92.6H31.4c-0.7,0-1.2-0.5-1.2-1.2v-5.8c0-0.7,0.5-1.2,1.2-1.2h10.2c0.7,0,1.2,0.5,1.2,1.2v5.8
		C42.8,92,42.3,92.6,41.6,92.6z"/>
	<path class="st0" d="M29.6,68.3H12.3c-0.7,0-1.2-0.5-1.2-1.2v-5.8c0-0.7,0.5-1.2,1.2-1.2h17.3c0.7,0,1.2,0.5,1.2,1.2v5.8
		C30.8,67.8,30.3,68.3,29.6,68.3z"/>
	<path class="st0" d="M84.6,44.3H63.4c-0.7,0-1.2-0.5-1.2-1.2v-5.8c0-0.7,0.5-1.2,1.2-1.2h21.2c0.7,0,1.2,0.5,1.2,1.2v5.8
		C85.8,43.8,85.3,44.3,84.6,44.3z"/>
	<path class="st0" d="M82.4,32.5H49.3c-0.7,0-1.2-0.5-1.2-1.2v-5.8c0-0.7,0.5-1.2,1.2-1.2h33.1c0.7,0,1.2,0.5,1.2,1.2v5.8
		C83.7,31.9,83.1,32.5,82.4,32.5z"/>
	<path class="st0" d="M58.5,44H19.9c-0.7,0-1.2-0.5-1.2-1.2v-5.8c0-0.7,0.5-1.2,1.2-1.2h38.6c0.7,0,1.2,0.5,1.2,1.2v5.8
		C59.7,43.4,59.2,44,58.5,44z"/>
	<path class="st0" d="M44.2,56.3H7c-0.7,0-1.2-0.5-1.2-1.2v-5.8c0-0.7,0.5-1.2,1.2-1.2h37.2c0.7,0,1.2,0.5,1.2,1.2v5.8
		C45.4,55.8,44.9,56.3,44.2,56.3z"/>
	<path class="st0" d="M74.8,68.3H47.7c-0.7,0-1.2-0.5-1.2-1.2v-5.8c0-0.7,0.5-1.2,1.2-1.2h27.1c0.7,0,1.2,0.5,1.2,1.2v5.8
		C76,67.8,75.4,68.3,74.8,68.3z"/>
	<path class="st0" d="M29.6,32.5H6.1c-0.7,0-1.2-0.5-1.2-1.2v-5.8c0-0.7,0.5-1.2,1.2-1.2h23.5c0.7,0,1.2,0.5,1.2,1.2v5.8
		C30.8,31.9,30.3,32.5,29.6,32.5z"/>
	<path class="st0" d="M60,80.4H31.4c-0.7,0-1.2-0.5-1.2-1.2v-5.8c0-0.7,0.5-1.2,1.2-1.2H60c0.7,0,1.2,0.5,1.2,1.2v5.8
		C61.2,79.9,60.7,80.4,60,80.4z"/>
</g>
</svg>
