<?xml version="1.0" encoding="UTF-8" standalone="no"?>
<!-- Generator: Adobe Illustrator 18.1.1, SVG Export Plug-In . SVG Version: 6.00 Build 0)  -->

<svg
   xmlns:dc="http://purl.org/dc/elements/1.1/"
   xmlns:cc="http://creativecommons.org/ns#"
   xmlns:rdf="http://www.w3.org/1999/02/22-rdf-syntax-ns#"
   xmlns:svg="http://www.w3.org/2000/svg"
   xmlns="http://www.w3.org/2000/svg"
   xmlns:sodipodi="http://sodipodi.sourceforge.net/DTD/sodipodi-0.dtd"
   xmlns:inkscape="http://www.inkscape.org/namespaces/inkscape"
   version="1.1"
   id="Capa_1"
   x="0px"
   y="0px"
   viewBox="0 0 141.69999 99.100001"
   enable-background="new 0 0 255.1 141.7"
   xml:space="preserve"
   sodipodi:docname="contacto.svg"
   width="141.7"
   height="99.099998"
   inkscape:version="0.92.2 (5c3e80d, 2017-08-06)"><metadata
     id="metadata15"><rdf:RDF><cc:Work
         rdf:about=""><dc:format>image/svg+xml</dc:format><dc:type
           rdf:resource="http://purl.org/dc/dcmitype/StillImage" /><dc:title></dc:title></cc:Work></rdf:RDF></metadata><defs
     id="defs13" /><sodipodi:namedview
     pagecolor="#ffffff"
     bordercolor="#666666"
     borderopacity="1"
     objecttolerance="10"
     gridtolerance="10"
     guidetolerance="10"
     inkscape:pageopacity="0"
     inkscape:pageshadow="2"
     inkscape:window-width="640"
     inkscape:window-height="405"
     id="namedview11"
     showgrid="false"
     fit-margin-top="0"
     fit-margin-left="0"
     fit-margin-right="0"
     fit-margin-bottom="0"
     inkscape:zoom="1.3014504"
     inkscape:cx="70.850003"
     inkscape:cy="49.550002"
     inkscape:window-x="478"
     inkscape:window-y="121"
     inkscape:window-maximized="0"
     inkscape:current-layer="Capa_1" /><g
     id="g8"
     transform="translate(-56.7,-21.3)"><g
       id="g6"><path
         d="M 67.9,27.1 119,67.6 c 2.3,1.8 5.5,2.6 8.6,2.5 3.1,0.2 6.3,-0.7 8.6,-2.5 l 51.1,-40.4 c 4.1,-3.2 3.2,-5.9 -2,-5.9 H 127.7 69.9 c -5.2,0 -6.1,2.6 -2,5.8 z"
         id="path2"
         inkscape:connector-curvature="0"
         style="fill:#214f9e" /><path
         d="m 190.9,37.8 -55.8,42.4 c -2.1,1.6 -4.8,2.3 -7.5,2.3 -2.7,0 -5.5,-0.7 -7.5,-2.3 L 64.2,37.8 c -4.1,-3.1 -7.5,-1.5 -7.5,3.7 V 111 c 0,5.2 4.3,9.4 9.4,9.4 h 61.4 61.5 c 5.2,0 9.4,-4.3 9.4,-9.4 V 41.5 c 0,-5.2 -3.4,-6.8 -7.5,-3.7 z"
         id="path4"
         inkscape:connector-curvature="0"
         style="fill:#214f9e" /></g></g></svg>