<?xml version="1.0" encoding="utf-8"?>
<!-- Generator: Adobe Illustrator 18.1.1, SVG Export Plug-In . SVG Version: 6.00 Build 0)  -->
<svg version="1.1" id="Capa_1" xmlns="http://www.w3.org/2000/svg" xmlns:xlink="http://www.w3.org/1999/xlink" x="0px" y="0px"
	 viewBox="91 -148.8 438.5 438.5" enable-background="new 91 -148.8 438.5 438.5" xml:space="preserve">
<g>
	<path fill="#214F9E" d="M413.6-106c-28.5-28.6-63-42.8-103.4-42.8c-40.4,0-74.8,14.3-103.4,42.8c-28.5,28.5-42.8,63-42.8,103.4
		c0,20.7,3.1,37.8,9.4,51.1l104.2,221c2.9,6.3,7.3,11.2,13.3,14.8c6,3.6,12.4,5.4,19.3,5.4c6.9,0,13.3-1.8,19.3-5.4
		c6-3.6,10.5-8.6,13.6-14.8L447,48.5c6.3-13.3,9.4-30.4,9.4-51.1C456.4-43,442.2-77.4,413.6-106z M361.9,49
		c-14.3,14.3-31.5,21.4-51.7,21.4s-37.4-7.1-51.7-21.4c-14.3-14.3-21.4-31.5-21.4-51.7c0-20.2,7.1-37.4,21.4-51.7
		c14.3-14.3,31.5-21.4,51.7-21.4c20.2,0,37.4,7.1,51.7,21.4c14.3,14.3,21.4,31.5,21.4,51.7S376.2,34.8,361.9,49z"/>
</g>
</svg>
