<?xml version="1.0" encoding="UTF-8" standalone="no"?>
<!-- Generator: Adobe Illustrator 18.1.1, SVG Export Plug-In . SVG Version: 6.00 Build 0)  -->

<svg
   xmlns:dc="http://purl.org/dc/elements/1.1/"
   xmlns:cc="http://creativecommons.org/ns#"
   xmlns:rdf="http://www.w3.org/1999/02/22-rdf-syntax-ns#"
   xmlns:svg="http://www.w3.org/2000/svg"
   xmlns="http://www.w3.org/2000/svg"
   xmlns:sodipodi="http://sodipodi.sourceforge.net/DTD/sodipodi-0.dtd"
   xmlns:inkscape="http://www.inkscape.org/namespaces/inkscape"
   version="1.1"
   id="Capa_1"
   x="0px"
   y="0px"
   viewBox="0 0 141.69999 141.7"
   enable-background="new 0 0 255.1 141.7"
   xml:space="preserve"
   sodipodi:docname="whatsapp.svg"
   width="141.7"
   height="141.7"
   inkscape:version="0.92.2 (5c3e80d, 2017-08-06)"><metadata
     id="metadata13"><rdf:RDF><cc:Work
         rdf:about=""><dc:format>image/svg+xml</dc:format><dc:type
           rdf:resource="http://purl.org/dc/dcmitype/StillImage" /><dc:title></dc:title></cc:Work></rdf:RDF></metadata><defs
     id="defs11" /><sodipodi:namedview
     pagecolor="#ffffff"
     bordercolor="#666666"
     borderopacity="1"
     objecttolerance="10"
     gridtolerance="10"
     guidetolerance="10"
     inkscape:pageopacity="0"
     inkscape:pageshadow="2"
     inkscape:window-width="640"
     inkscape:window-height="480"
     id="namedview9"
     showgrid="false"
     fit-margin-top="0"
     fit-margin-left="0"
     fit-margin-right="0"
     fit-margin-bottom="0"
     inkscape:zoom="1.3014504"
     inkscape:cx="70.850003"
     inkscape:cy="70.850002"
     inkscape:window-x="311"
     inkscape:window-y="61"
     inkscape:window-maximized="0"
     inkscape:current-layer="Capa_1" /><g
     id="g6"
     transform="translate(-56.7)"><g
       id="g4"><path
         d="M 127.6,0 V 0 C 88.5,0 56.7,31.8 56.7,70.9 c 0,15.5 5,29.9 13.5,41.5 l -8.8,26.3 27.2,-8.7 c 11.2,7.4 24.6,11.7 39,11.7 39.1,0 70.8,-31.8 70.8,-70.9 C 198.4,31.7 166.7,0 127.6,0 Z m 41.2,100.1 c -1.7,4.8 -8.5,8.8 -13.9,10 -3.7,0.8 -8.5,1.4 -24.8,-5.3 C 109.3,96.2 95.9,75 94.8,73.6 93.8,72.2 86.4,62.4 86.4,52.2 86.4,42 91.6,37.1 93.6,35 c 1.7,-1.7 4.5,-2.5 7.2,-2.5 0.9,0 1.7,0 2.4,0.1 2.1,0.1 3.1,0.2 4.5,3.5 1.7,4.1 5.9,14.3 6.4,15.3 0.5,1 1,2.5 0.3,3.8 -0.7,1.4 -1.2,2 -2.3,3.3 -1,1.2 -2,2.1 -3.1,3.4 -1,1.1 -2,2.3 -0.8,4.4 1.2,2 5.4,8.8 11.5,14.3 7.9,7 14.3,9.3 16.6,10.2 1.7,0.7 3.7,0.5 5,-0.8 1.6,-1.7 3.5,-4.5 5.5,-7.3 1.4,-2 3.2,-2.2 5.1,-1.5 1.9,0.7 12,5.7 14.1,6.7 2.1,1 3.5,1.5 4,2.4 0.5,0.8 0.5,4.9 -1.2,9.8 z"
         id="path2"
         inkscape:connector-curvature="0"
         style="fill:#214f9e" /></g></g></svg>